<!-- Created with Inkscape (http://www.inkscape.org/) --><svg xmlns:dc="http://purl.org/dc/elements/1.1/" xmlns:cc="http://creativecommons.org/ns#" xmlns:rdf="http://www.w3.org/1999/02/22-rdf-syntax-ns#" xmlns:svg="http://www.w3.org/2000/svg" xmlns="http://www.w3.org/2000/svg" xmlns:xlink="http://www.w3.org/1999/xlink" xmlns:sodipodi="http://sodipodi.sourceforge.net/DTD/sodipodi-0.dtd" xmlns:inkscape="http://www.inkscape.org/namespaces/inkscape" width="1024" height="1024" viewBox="0 0 1024 1024" version="1.1" id="svg8" inkscape:version="0.92.4 (5da689c313, 2019-01-14)" sodipodi:docname="_Orelega.tar">
  <defs id="defs2"/>
  <sodipodi:namedview id="base" pagecolor="#ffffff" bordercolor="#666666" borderopacity="1.0" inkscape:pageopacity="0.0" inkscape:pageshadow="2" inkscape:zoom="0.29451728" inkscape:cx="2301.7128" inkscape:cy="586.9766" inkscape:document-units="px" inkscape:current-layer="layer7" showgrid="false" units="px" inkscape:pagecheckerboard="true" borderlayer="true" gridtolerance="10" inkscape:snap-smooth-nodes="true" inkscape:snap-text-baseline="true" inkscape:snap-page="true" showguides="false" inkscape:guide-bbox="true" inkscape:object-nodes="true" inkscape:object-paths="false" inkscape:snap-global="true" inkscape:snap-intersection-paths="false" inkscape:lockguides="false">
    <inkscape:grid type="xygrid" id="grid4131" empspacing="4" spacingx="10" spacingy="10" color="#ffffff" opacity="0.2627451" empcolor="#ffffff" empopacity="0.62352941"/>
    <sodipodi:guide position="15825.17,820.00003" orientation="0,1" id="guide979" inkscape:locked="false"/>
    <sodipodi:guide position="8940,200" orientation="0,1" id="guide983" inkscape:locked="false"/>
    <sodipodi:guide position="10030,120" orientation="0,1" id="guide985" inkscape:locked="false"/>
    <sodipodi:guide position="0,40" orientation="0,1" id="guide987" inkscape:locked="false"/>
    <sodipodi:guide position="3340,820.00003" orientation="0,1" id="guide1028" inkscape:locked="false"/>
    <sodipodi:guide position="0,0" orientation="0,1" id="guide1030" inkscape:locked="false"/>
    <sodipodi:guide position="17640,660" orientation="0,1" id="guide1122" inkscape:locked="false"/>
    <sodipodi:guide position="4810,860" orientation="0,1" id="guide1263" inkscape:locked="false"/>
    <sodipodi:guide position="10420.135,337.48828" orientation="0,1" id="guide1490" inkscape:locked="false"/>
    <sodipodi:guide position="14093.408,408.07209" orientation="0,1" id="guide1871" inkscape:locked="false"/>
  </sodipodi:namedview>
  <metadata id="metadata5">
    <rdf:RDF>
      <cc:Work rdf:about="">
        <dc:format>image/svg+xml</dc:format>
        <dc:type rdf:resource="http://purl.org/dc/dcmitype/StillImage"/>
        <dc:title/>
      </cc:Work>
    </rdf:RDF>
  </metadata>
  <svg:g inkscape:groupmode="layer" id="layer7" inkscape:label="Orelega More 1" style="display:inline" sodipodi:insensitive="true">
    <svg:path style="display:inline;opacity:1;vector-effect:none;fill:#390000;fill-opacity:1;fill-rule:nonzero;stroke:none;stroke-width:8;stroke-linecap:round;stroke-linejoin:round;stroke-miterlimit:4;stroke-dasharray:none;stroke-dashoffset:0;stroke-opacity:1;paint-order:stroke fill markers" d="m 3080,194 c -160.3192,0 -253.5194,116.3314 -276,246 l 60,10 c 19.2458,-112.1249 96.0419,-194.00001 212,-194 151.25,10e-6 214,115.1746 214,258 0,142.8254 -63.55,260 -210,260 -146.45,0 -200,-90 -200,-200 l -80,-30 c 0,160 85.882,290 280,290 194.118,0 290,-160 290,-320 0,-160 -95.882,-320 -290,-320 z" id="path1758" inkscape:connector-curvature="0" sodipodi:nodetypes="sccsssccsss"/>
    <svg:path style="display:inline;opacity:1;vector-effect:none;fill:#000000;fill-opacity:1;fill-rule:nonzero;stroke:none;stroke-width:8;stroke-linecap:round;stroke-linejoin:round;stroke-miterlimit:4;stroke-dasharray:none;stroke-dashoffset:0;stroke-opacity:1;paint-order:stroke fill markers" d="m 2040,544 c 0,160 98.4706,290 312,290 213.5294,0 330,-160 330,-320 0,-160 -116.4706,-320 -330,-320 -178.5334,0 -283.2586,109.6339 -310,240 l 80,20 c 20.5304,-108.5051 96.2067,-170 196.4032,-170 108.2555,0 183.5968,98.1612 183.5968,230 0,131.83884 -50.1476,240 -150,240 -99.8524,0 -150,-108.16116 -150,-240" id="path1597-8-03" inkscape:connector-curvature="0" sodipodi:nodetypes="cscsccscsc"/>
    <svg:path style="display:inline;opacity:1;vector-effect:none;fill:#000000;fill-opacity:1;fill-rule:nonzero;stroke:none;stroke-width:8;stroke-linecap:round;stroke-linejoin:round;stroke-miterlimit:4;stroke-dasharray:none;stroke-dashoffset:0;stroke-opacity:1;paint-order:stroke fill markers" d="M 410,194 C 215.882,194 120,354 120,514 120,674 215.882,834.00001 410,834.00001 604.118,834.00001 700,674 700,514 700,354 604.118,194 410,194 Z m 0,60.00001 C 561.25,254.00001 620,371.1746 620,514 620,656.8254 556.45,774.00001 410,774.00001 263.55,774.00001 200,656.8254 200,514 200,371.1746 258.75,254.00001 410,254.00001 Z" id="path1597-8-5-5" inkscape:connector-curvature="0" sodipodi:nodetypes="ssssssssss"/>
    <svg:path sodipodi:nodetypes="sssccsssccs" inkscape:connector-curvature="0" id="path1280-4" d="M 1678.1543,354 C 1545.8366,354.00059 1460,448.94523 1460,594 c 0,145.05476 87.2663,239.99941 219.584,240 113.8705,5e-4 167.5455,-63.29492 196.7266,-143.29492 L 1818.5723,674 c -13.3975,50 -60,100.00036 -140,100 -70,-3.2e-4 -140,-58.85715 -140,-180 0,-121.14286 70,-180 140,-180 79.7828,0 125.6504,26.16016 140,100 l 57.274,-20.70553 C 1855.3068,416.6398 1786.8695,353.99952 1678.1543,354 Z" style="display:inline;opacity:1;vector-effect:none;fill:#000000;fill-opacity:1;fill-rule:nonzero;stroke:none;stroke-width:9.14285755;stroke-linecap:round;stroke-linejoin:round;stroke-miterlimit:4;stroke-dasharray:none;stroke-dashoffset:0;stroke-opacity:1;paint-order:stroke fill markers"/>
    <svg:circle style="display:inline;opacity:1;vector-effect:none;fill:#000000;fill-opacity:1;fill-rule:nonzero;stroke:none;stroke-width:9.14285755;stroke-linecap:round;stroke-linejoin:round;stroke-miterlimit:4;stroke-dasharray:none;stroke-dashoffset:0;stroke-opacity:1;paint-order:stroke fill markers" id="circle1282-3" cx="1798.5723" cy="514" r="80"/>
    <svg:path sodipodi:nodetypes="zzzzzzzzzz" inkscape:connector-curvature="0" id="path1270-2" d="m 1070,355.42854 c -132.3181,5.8e-4 -219.5826,94.94524 -219.5826,240 0,145.05476 87.2645,239.99942 219.5826,240 132.3181,5.8e-4 219.5848,-94.94427 219.5848,-240 0,-145.05573 -87.2667,-240.00058 -219.5848,-240 z M 1070,414 c 70,0 140.4174,50 140.4174,180 0,130 -70,180.00031 -140.4174,180 C 999.5826,773.99969 930.4174,724 930.4174,594 930.4174,464 1000,414 1070,414 Z" style="display:inline;opacity:1;vector-effect:none;fill:#000000;fill-opacity:1;fill-rule:nonzero;stroke:none;stroke-width:9.14285755;stroke-linecap:round;stroke-linejoin:round;stroke-miterlimit:4;stroke-dasharray:none;stroke-dashoffset:0;stroke-opacity:1;paint-order:stroke fill markers"/>
    <svg:path style="display:inline;opacity:1;vector-effect:none;fill:#000000;fill-opacity:1;fill-rule:nonzero;stroke:none;stroke-width:80;stroke-linecap:butt;stroke-linejoin:round;stroke-miterlimit:4;stroke-dasharray:none;stroke-dashoffset:0;stroke-opacity:1;paint-order:stroke fill markers" d="m 542.791,203.99997 -357.957,620 h 92.375 l 357.957,-620 z" id="rect1314-2-9" inkscape:connector-curvature="0"/>
    <svg:path style="display:inline;opacity:1;vector-effect:none;fill:#000000;fill-opacity:1;fill-rule:nonzero;stroke:none;stroke-width:80;stroke-linecap:butt;stroke-linejoin:round;stroke-miterlimit:4;stroke-dasharray:none;stroke-dashoffset:0;stroke-opacity:1;paint-order:stroke fill markers" d="M 1178.6856,324 866.91571,864 h 92.37502 L 1271.0606,324 Z" id="path1292-1" inkscape:connector-curvature="0" sodipodi:nodetypes="ccccc"/>
    <svg:rect style="display:inline;opacity:1;vector-effect:none;fill:#000000;fill-opacity:1;fill-rule:nonzero;stroke:none;stroke-width:80;stroke-linecap:butt;stroke-linejoin:round;stroke-miterlimit:4;stroke-dasharray:none;stroke-dashoffset:0;stroke-opacity:1;paint-order:stroke fill markers" id="rect1297-6" width="80" height="660" x="1620" y="264"/>
    <svg:path style="opacity:1;vector-effect:none;fill:#000000;fill-opacity:1;fill-rule:nonzero;stroke:none;stroke-width:4;stroke-linecap:round;stroke-linejoin:round;stroke-miterlimit:4;stroke-dasharray:none;stroke-dashoffset:0;stroke-opacity:1;paint-order:stroke fill markers" d="m 2807.5,514 -7.5,30 10,30 h 500 v -60 z" id="rect1716" inkscape:connector-curvature="0" sodipodi:nodetypes="cccccc"/>
    <svg:path style="opacity:1;vector-effect:none;fill:#000000;fill-opacity:1;fill-rule:nonzero;stroke:none;stroke-width:4;stroke-linecap:round;stroke-linejoin:round;stroke-miterlimit:4;stroke-dasharray:none;stroke-dashoffset:0;stroke-opacity:1;paint-order:stroke fill markers" d="m 2050,504 -10,40 10,40 h 475.2095 v -80 z" id="rect1718" inkscape:connector-curvature="0" sodipodi:nodetypes="cccccc"/>
  </svg:g>
  </svg>