<!-- Created with Inkscape (http://www.inkscape.org/) --><svg xmlns:dc="http://purl.org/dc/elements/1.1/" xmlns:cc="http://creativecommons.org/ns#" xmlns:rdf="http://www.w3.org/1999/02/22-rdf-syntax-ns#" xmlns:svg="http://www.w3.org/2000/svg" xmlns="http://www.w3.org/2000/svg" xmlns:xlink="http://www.w3.org/1999/xlink" xmlns:sodipodi="http://sodipodi.sourceforge.net/DTD/sodipodi-0.dtd" xmlns:inkscape="http://www.inkscape.org/namespaces/inkscape" width="1024" height="1024" viewBox="0 0 1024 1024" version="1.1" id="svg8" inkscape:version="0.92.4 (5da689c313, 2019-01-14)" sodipodi:docname="_Orelega.tar">
  <defs id="defs2"/>
  <sodipodi:namedview id="base" pagecolor="#ffffff" bordercolor="#666666" borderopacity="1.0" inkscape:pageopacity="0.0" inkscape:pageshadow="2" inkscape:zoom="0.29451728" inkscape:cx="2301.7128" inkscape:cy="586.9766" inkscape:document-units="px" inkscape:current-layer="layer7" showgrid="false" units="px" inkscape:pagecheckerboard="true" borderlayer="true" gridtolerance="10" inkscape:snap-smooth-nodes="true" inkscape:snap-text-baseline="true" inkscape:snap-page="true" showguides="false" inkscape:guide-bbox="true" inkscape:object-nodes="true" inkscape:object-paths="false" inkscape:snap-global="true" inkscape:snap-intersection-paths="false" inkscape:lockguides="false">
    <inkscape:grid type="xygrid" id="grid4131" empspacing="4" spacingx="10" spacingy="10" color="#ffffff" opacity="0.2627451" empcolor="#ffffff" empopacity="0.62352941"/>
    <sodipodi:guide position="15825.17,820.00003" orientation="0,1" id="guide979" inkscape:locked="false"/>
    <sodipodi:guide position="8940,200" orientation="0,1" id="guide983" inkscape:locked="false"/>
    <sodipodi:guide position="10030,120" orientation="0,1" id="guide985" inkscape:locked="false"/>
    <sodipodi:guide position="0,40" orientation="0,1" id="guide987" inkscape:locked="false"/>
    <sodipodi:guide position="3340,820.00003" orientation="0,1" id="guide1028" inkscape:locked="false"/>
    <sodipodi:guide position="0,0" orientation="0,1" id="guide1030" inkscape:locked="false"/>
    <sodipodi:guide position="17640,660" orientation="0,1" id="guide1122" inkscape:locked="false"/>
    <sodipodi:guide position="4810,860" orientation="0,1" id="guide1263" inkscape:locked="false"/>
    <sodipodi:guide position="10420.135,337.48828" orientation="0,1" id="guide1490" inkscape:locked="false"/>
    <sodipodi:guide position="14093.408,408.07209" orientation="0,1" id="guide1871" inkscape:locked="false"/>
  </sodipodi:namedview>
  <metadata id="metadata5">
    <rdf:RDF>
      <cc:Work rdf:about="">
        <dc:format>image/svg+xml</dc:format>
        <dc:type rdf:resource="http://purl.org/dc/dcmitype/StillImage"/>
        <dc:title/>
      </cc:Work>
    </rdf:RDF>
  </metadata>
  <svg:g transform="translate(0,24)" style="display:inline;opacity:1" inkscape:label="Orelega symbols &#12467;&#12500;&#12540;" id="g1709" inkscape:groupmode="layer" sodipodi:insensitive="true">
    <svg:path inkscape:connector-curvature="0" id="path1508" d="m 17440,326.78634 c -110.457,0 -200,89.54305 -200,200 0,110.45695 89.543,200 200,200 110.457,0 200,-89.54305 200,-200 0,-110.45695 -89.543,-200 -200,-200 z m 0,80 c 66.274,0 120,53.72583 120,120 0,66.27417 -53.726,120 -120,120 -66.274,0 -120,-53.72583 -120,-120 0,-66.27417 53.726,-120 120,-120 z" style="opacity:1;vector-effect:none;fill:#000000;fill-opacity:1;fill-rule:nonzero;stroke:none;stroke-width:80;stroke-linecap:butt;stroke-linejoin:round;stroke-miterlimit:4;stroke-dasharray:none;stroke-dashoffset:0;stroke-opacity:1;paint-order:stroke fill markers" sodipodi:nodetypes="ssssssssss"/>
    <svg:circle r="80" cy="725.00006" cx="80" id="circle1510" style="opacity:1;vector-effect:none;fill:#000000;fill-opacity:1;fill-rule:nonzero;stroke:none;stroke-width:8;stroke-linecap:round;stroke-linejoin:round;stroke-miterlimit:4;stroke-dasharray:none;stroke-dashoffset:0;stroke-opacity:1;paint-order:stroke fill markers"/>
    <svg:path inkscape:connector-curvature="0" id="path1512" d="m 80,160 c -44.1828,0 -80,35.81722 -80,80 0,77.84259 45.9603,234.2184 70,320 h 20 c 24.0397,-85.7816 70,-242.15741 70,-320 0,-44.18278 -35.8172,-80 -80,-80 z" style="opacity:1;vector-effect:none;fill:#000000;fill-opacity:1;fill-rule:nonzero;stroke:none;stroke-width:8;stroke-linecap:round;stroke-linejoin:round;stroke-miterlimit:4;stroke-dasharray:none;stroke-dashoffset:0;stroke-opacity:1;paint-order:stroke fill markers" sodipodi:nodetypes="ssccss"/>
    <svg:circle r="80" cy="340" cx="360" id="circle1514" style="display:inline;opacity:1;vector-effect:none;fill:#000000;fill-opacity:1;fill-rule:nonzero;stroke:none;stroke-width:9.14285755;stroke-linecap:round;stroke-linejoin:round;stroke-miterlimit:4;stroke-dasharray:none;stroke-dashoffset:0;stroke-opacity:1;paint-order:stroke fill markers"/>
    <svg:path sodipodi:nodetypes="cssccssc" inkscape:connector-curvature="0" id="path1516" d="m 280,340 c 0,-100 70,-180 200,-180 130,0 190,60 190,180 0,140 -180,140 -180,230 H 460 C 400,480 590,450 590,340 590,260 550,220 460,220 370,220 320,270 320,340" style="opacity:1;vector-effect:none;fill:#000000;fill-opacity:1;fill-rule:nonzero;stroke:none;stroke-width:8;stroke-linecap:round;stroke-linejoin:round;stroke-miterlimit:4;stroke-dasharray:none;stroke-dashoffset:0;stroke-opacity:1;paint-order:stroke fill markers"/>
    <svg:circle style="opacity:1;vector-effect:none;fill:#000000;fill-opacity:1;fill-rule:nonzero;stroke:none;stroke-width:8;stroke-linecap:round;stroke-linejoin:round;stroke-miterlimit:4;stroke-dasharray:none;stroke-dashoffset:0;stroke-opacity:1;paint-order:stroke fill markers" id="circle1518" cx="480" cy="725.00006" r="80"/>
    <svg:path sodipodi:nodetypes="cccccssc" inkscape:connector-curvature="0" id="path1520" d="m 860,645 c -44.1828,0 -80,35.81722 -80,80 0.048,40.81657 30.8166,75.05187 71.3965,79.44141 C 850.4523,837.58723 844.251,880.47874 770,940 l 19.3262,20 c 84.3408,-48.69419 152.9333,-133.23571 152.9333,-217.22192 0,-12.87603 -1.6122,-25.73902 -5.0271,-38.45777 C 927.8511,669.37935 896.1923,645.04361 860,645 Z" style="opacity:1;vector-effect:none;fill:#000000;fill-opacity:1;fill-rule:nonzero;stroke:none;stroke-width:8;stroke-linecap:round;stroke-linejoin:round;stroke-miterlimit:4;stroke-dasharray:none;stroke-dashoffset:0;stroke-opacity:1;paint-order:stroke fill markers"/>
    <svg:circle style="opacity:1;vector-effect:none;fill:#000000;fill-opacity:1;fill-rule:nonzero;stroke:none;stroke-width:8;stroke-linecap:round;stroke-linejoin:round;stroke-miterlimit:4;stroke-dasharray:none;stroke-dashoffset:0;stroke-opacity:1;paint-order:stroke fill markers" id="circle1522" cx="860" cy="417.5" r="80"/>
    <svg:path sodipodi:nodetypes="ssccss" inkscape:connector-curvature="0" style="opacity:1;vector-effect:none;fill:#000000;fill-opacity:1;fill-rule:nonzero;stroke:none;stroke-width:8;stroke-linecap:round;stroke-linejoin:round;stroke-miterlimit:4;stroke-dasharray:none;stroke-dashoffset:0;stroke-opacity:1;paint-order:stroke fill markers" d="m 1080,160 c -38.66,0 -70,31.34007 -70,70 0,68.11227 30,170 50,250 h 40 c 20,-80 50,-181.88773 50,-250 0,-38.65993 -31.3401,-70 -70,-70 z" id="path1524"/>
    <svg:path id="path1526" d="m 1270,160 c -38.66,0 -70,31.34007 -70,70 0,68.11227 30,170 50,250 h 40 c 20,-80 50,-181.88773 50,-250 0,-38.65993 -31.3401,-70 -70,-70 z" style="opacity:1;vector-effect:none;fill:#000000;fill-opacity:1;fill-rule:nonzero;stroke:none;stroke-width:8;stroke-linecap:round;stroke-linejoin:round;stroke-miterlimit:4;stroke-dasharray:none;stroke-dashoffset:0;stroke-opacity:1;paint-order:stroke fill markers" inkscape:connector-curvature="0" sodipodi:nodetypes="ssccss"/>
    <svg:path style="opacity:1;vector-effect:none;fill:#000000;fill-opacity:1;fill-rule:nonzero;stroke:none;stroke-width:8;stroke-linecap:round;stroke-linejoin:round;stroke-miterlimit:4;stroke-dasharray:none;stroke-dashoffset:0;stroke-opacity:1;paint-order:stroke fill markers" d="m 1957.7405,162.22192 c -44.1828,0 -80,35.81722 -80,80 0.048,40.81657 30.8166,75.05187 71.3965,79.44141 -0.9442,33.14582 -9.9131,78.81541 -84.1641,138.33667 l 22.0938,17.22192 C 1971.4075,428.52773 2040,343.98621 2040,260 c 0,-12.87603 -1.6122,-25.73902 -5.0271,-38.45777 -9.3813,-34.94096 -41.0401,-59.2767 -77.2324,-59.32031 z" id="path1529" inkscape:connector-curvature="0" sodipodi:nodetypes="cccccssc"/>
    <svg:path style="opacity:1;vector-effect:none;fill:#000000;fill-opacity:1;fill-rule:nonzero;stroke:none;stroke-width:8;stroke-linecap:round;stroke-linejoin:round;stroke-miterlimit:4;stroke-dasharray:none;stroke-dashoffset:0;stroke-opacity:1;paint-order:stroke fill markers" d="m 2182.7676,162.22192 c -44.1828,0 -80,35.81722 -80,80 0.048,40.81657 30.8166,75.05187 71.3965,79.44141 C 2173.2199,354.80915 2164.251,400.47874 2090,460 l 22.0938,17.22192 C 2196.4346,428.52773 2265.0271,343.98621 2265.0271,260 c 0,-12.87603 -1.6122,-25.73902 -5.0271,-38.45777 -9.3813,-34.94096 -41.0401,-59.2767 -77.2324,-59.32031 z" id="path1533" inkscape:connector-curvature="0" sodipodi:nodetypes="cccccssc"/>
    <svg:path sodipodi:nodetypes="cccccssc" inkscape:connector-curvature="0" id="path1535" d="m 1706.4236,477.22192 c 44.1828,0 80,-35.81722 80,-80 -0.048,-40.81657 -30.8166,-75.05187 -71.3965,-79.44141 0.9442,-33.14582 5.749,-78.25925 80,-137.78051 l -17.9297,-17.77808 c -84.3408,48.69419 -152.9333,133.23571 -152.9333,217.22192 0,12.87603 1.6122,25.73902 5.0271,38.45777 9.3813,34.94096 41.0401,59.2767 77.2324,59.32031 z" style="opacity:1;vector-effect:none;fill:#000000;fill-opacity:1;fill-rule:nonzero;stroke:none;stroke-width:8;stroke-linecap:round;stroke-linejoin:round;stroke-miterlimit:4;stroke-dasharray:none;stroke-dashoffset:0;stroke-opacity:1;paint-order:stroke fill markers"/>
    <svg:path sodipodi:nodetypes="cccccssc" inkscape:connector-curvature="0" id="path1537" d="m 1481.3965,477.22192 c 44.1828,0 80,-35.81722 80,-80 -0.048,-40.81657 -30.8166,-75.05187 -71.3965,-79.44141 0.9442,-33.14582 5.749,-78.25925 80,-137.78051 l -17.9297,-17.77808 c -84.3408,48.69419 -152.9333,133.23571 -152.9333,217.22192 0,12.87603 1.6122,25.73902 5.0271,38.45777 9.3813,34.94096 41.0401,59.2767 77.2324,59.32031 z" style="opacity:1;vector-effect:none;fill:#000000;fill-opacity:1;fill-rule:nonzero;stroke:none;stroke-width:8;stroke-linecap:round;stroke-linejoin:round;stroke-miterlimit:4;stroke-dasharray:none;stroke-dashoffset:0;stroke-opacity:1;paint-order:stroke fill markers"/>
    <svg:path sodipodi:nodetypes="ssssssssss" inkscape:connector-curvature="0" id="path1539" d="m 2590.0001,170 c -121.5014,7.8e-4 -219.9979,126.87622 -219.9979,320.71427 0,193.83806 98.4965,320.71349 219.9979,320.71427 C 2711.5023,811.42932 2810,684.55361 2810,490.71427 2810,296.87494 2711.5023,169.99922 2590.0001,170 Z m -7e-4,60 c 87.261,0.81696 140.0006,67.04082 140.0006,260.71427 0,193.67345 -52.7396,260.71468 -140.0006,260.71427 -87.2608,-4.1e-4 -139.9972,-63.31632 -139.9972,-260.71427 0,-197.39795 52.7364,-261.53123 139.9972,-260.71427 z" style="display:inline;opacity:1;vector-effect:none;fill:#000000;fill-opacity:1;fill-rule:nonzero;stroke:none;stroke-width:9.14285755;stroke-linecap:round;stroke-linejoin:round;stroke-miterlimit:4;stroke-dasharray:none;stroke-dashoffset:0;stroke-opacity:1;paint-order:stroke fill markers"/>
    <svg:path sodipodi:nodetypes="csccccccccccc" inkscape:connector-curvature="0" id="path1541" d="m 3140,180 c -40,69.28203 -70,80 -120,80 h -20 v 60 h 90 v 420 h -90 v 60 h 260 v -60 h -90 V 180 Z" style="display:inline;opacity:1;vector-effect:none;fill:#000000;fill-opacity:1;fill-rule:nonzero;stroke:none;stroke-width:8;stroke-linecap:round;stroke-linejoin:round;stroke-miterlimit:4;stroke-dasharray:none;stroke-dashoffset:0;stroke-opacity:1;paint-order:stroke fill markers"/>
    <svg:circle r="80" cy="350" cx="3510" style="display:inline;opacity:1;vector-effect:none;fill:#000000;fill-opacity:1;fill-rule:nonzero;stroke:none;stroke-width:8;stroke-linecap:round;stroke-linejoin:round;stroke-miterlimit:4;stroke-dasharray:none;stroke-dashoffset:0;stroke-opacity:1;paint-order:stroke fill markers" id="circle1543"/>
    <svg:path sodipodi:nodetypes="cssscccsssc" inkscape:connector-curvature="0" id="path1545" d="M 3440.718,390 C 3381.9666,288.23959 3450,170 3610,170 c 150,0 200,90 200,180 0,120 -110,208.71996 -190,270 -53.2539,40.79248 -110,80 -130,140 v 6.78607 L 3430,800 c 0,-130 60,-170 150,-240 56.2198,-43.72649 150,-120 150,-210 0,-80 -30,-120 -140,-120 -59.8781,0 -120,10 -120,80" style="opacity:1;vector-effect:none;fill:#000000;fill-opacity:1;fill-rule:nonzero;stroke:none;stroke-width:8;stroke-linecap:round;stroke-linejoin:round;stroke-miterlimit:4;stroke-dasharray:none;stroke-dashoffset:0;stroke-opacity:1;paint-order:stroke fill markers"/>
    <svg:circle id="circle1547" style="display:inline;opacity:1;vector-effect:none;fill:#000000;fill-opacity:1;fill-rule:nonzero;stroke:none;stroke-width:8;stroke-linecap:round;stroke-linejoin:round;stroke-miterlimit:4;stroke-dasharray:none;stroke-dashoffset:0;stroke-opacity:1;paint-order:stroke fill markers" cx="4060" cy="350" r="80"/>
    <svg:path style="opacity:1;vector-effect:none;fill:#000000;fill-opacity:1;fill-rule:nonzero;stroke:none;stroke-width:8;stroke-linecap:round;stroke-linejoin:round;stroke-miterlimit:4;stroke-dasharray:none;stroke-dashoffset:0;stroke-opacity:1;paint-order:stroke fill markers" d="M 3990.718,390 C 3931.9666,288.23959 4010,170 4160,170 c 160,0 200,90 200,180 0,100 -110,150 -170,150 l -80,-40 c 130,0 170,-50 170,-110 0,-90 -40,-120 -130,-120 -80,0 -120,30 -120,70" id="path1549" inkscape:connector-curvature="0" sodipodi:nodetypes="cssccssc"/>
    <svg:circle transform="scale(1,-1)" r="80" cy="-630" cx="4060" style="display:inline;opacity:1;vector-effect:none;fill:#000000;fill-opacity:1;fill-rule:nonzero;stroke:none;stroke-width:8;stroke-linecap:round;stroke-linejoin:round;stroke-miterlimit:4;stroke-dasharray:none;stroke-dashoffset:0;stroke-opacity:1;paint-order:stroke fill markers" id="circle1551"/>
    <svg:path sodipodi:nodetypes="csscccssc" inkscape:connector-curvature="0" id="path1553" d="M 3990.718,590 C 3931.9666,691.76041 4020,810 4160,810 c 140,0 200,-80 200,-180 0,-100 -50,-146 -170,-146 l -80,-24 v 60 c 130,0 170,40 170,110 0,90 -57.8912,120 -130,120 -80,0 -120,-20 -120,-70" style="opacity:1;vector-effect:none;fill:#000000;fill-opacity:1;fill-rule:nonzero;stroke:none;stroke-width:8;stroke-linecap:round;stroke-linejoin:round;stroke-miterlimit:4;stroke-dasharray:none;stroke-dashoffset:0;stroke-opacity:1;paint-order:stroke fill markers"/>
    <svg:path sodipodi:nodetypes="ccccsssscc" inkscape:connector-curvature="0" id="path1555" d="m 3430,800 h 390 V 560 h -50 v 100 c 0,29.81424 -10,80 -40,80 h -160 c -20.2759,0 -62.4107,1.20534 -80,10 l -40,20 z" style="display:inline;opacity:1;vector-effect:none;fill:#000000;fill-opacity:1;fill-rule:nonzero;stroke:none;stroke-width:9.23760414;stroke-linecap:round;stroke-linejoin:round;stroke-miterlimit:4;stroke-dasharray:none;stroke-dashoffset:0;stroke-opacity:1;paint-order:stroke fill markers"/>
    <svg:path sodipodi:nodetypes="ccccccccccccccccccccc" inkscape:connector-curvature="0" id="path1557" d="m 4700,180 c -20,160 -80,280 -200,400 v 60 h 250 v 100 h -100 v 60 h 260 v -60 h -80 V 640 h 80 v -60 h -80 V 340 h -30 c -6.7676,20 -30,60 -50,80 v 160 h -170 c 100,-90 200,-260 200,-400 z" style="display:inline;opacity:1;vector-effect:none;fill:#000000;fill-opacity:1;fill-rule:nonzero;stroke:none;stroke-width:9.23760414;stroke-linecap:round;stroke-linejoin:round;stroke-miterlimit:4;stroke-dasharray:none;stroke-dashoffset:0;stroke-opacity:1;paint-order:stroke fill markers"/>
    <svg:circle id="circle1559" style="display:inline;opacity:1;vector-effect:none;fill:#000000;fill-opacity:1;fill-rule:nonzero;stroke:none;stroke-width:8;stroke-linecap:round;stroke-linejoin:round;stroke-miterlimit:4;stroke-dasharray:none;stroke-dashoffset:0;stroke-opacity:1;paint-order:stroke fill markers" cx="5150" cy="-630" r="80" transform="scale(1,-1)"/>
    <svg:path style="opacity:1;vector-effect:none;fill:#000000;fill-opacity:1;fill-rule:nonzero;stroke:none;stroke-width:8;stroke-linecap:round;stroke-linejoin:round;stroke-miterlimit:4;stroke-dasharray:none;stroke-dashoffset:0;stroke-opacity:1;paint-order:stroke fill markers" d="M 5080.718,590 C 5021.9666,691.76041 5100,810 5250,810 c 150,0 200,-90 200,-180 0,-160 -130,-230 -310,-170 l -60,20 60,20 c 180,-20 230,20 230,130 0,70 -50,120 -130,120 -80,0 -130,-20 -130,-90" id="path1561" inkscape:connector-curvature="0" sodipodi:nodetypes="csscccssc"/>
    <svg:rect transform="rotate(7.8051015)" y="-517.14948" x="5098.1841" height="303.26025" width="60" id="rect1563" style="opacity:1;vector-effect:none;fill:#000000;fill-opacity:1;fill-rule:nonzero;stroke:none;stroke-width:8;stroke-linecap:round;stroke-linejoin:round;stroke-miterlimit:4;stroke-dasharray:none;stroke-dashoffset:0;stroke-opacity:1;paint-order:stroke fill markers"/>
    <svg:path sodipodi:nodetypes="csccscc" inkscape:connector-curvature="0" id="path1565" d="m 5160,220 c 40,40 90,61.39823 150,60 79.9783,-1.8638 110,-40 130,-70 l -10,-30.00003 C 5400,190 5360,200 5310,200 c -50,0 -80,-10 -110,-20.00003 l -75.5275,2e-5" style="opacity:1;vector-effect:none;fill:#000000;fill-opacity:1;fill-rule:nonzero;stroke:none;stroke-width:8;stroke-linecap:round;stroke-linejoin:round;stroke-miterlimit:4;stroke-dasharray:none;stroke-dashoffset:0;stroke-opacity:1;paint-order:stroke fill markers"/>
    <svg:circle r="80" cy="300" cx="5930" style="display:inline;opacity:1;vector-effect:none;fill:#000000;fill-opacity:1;fill-rule:nonzero;stroke:none;stroke-width:8;stroke-linecap:round;stroke-linejoin:round;stroke-miterlimit:4;stroke-dasharray:none;stroke-dashoffset:0;stroke-opacity:1;paint-order:stroke fill markers" id="circle1567"/>
    <svg:path sodipodi:nodetypes="csccscc" inkscape:connector-curvature="0" id="path1569" d="m 5830,170 c -120,0 -219.998,126.87679 -219.998,320.71484 0,193.83806 99.998,320.71224 219.998,320.71289 V 750 C 5760,750 5690,670 5690,490.71484 5690,308.45975 5760,228.92429 5840,230 Z" style="display:inline;opacity:1;vector-effect:none;fill:#000000;fill-opacity:1;fill-rule:nonzero;stroke:none;stroke-width:9.14285755;stroke-linecap:round;stroke-linejoin:round;stroke-miterlimit:4;stroke-dasharray:none;stroke-dashoffset:0;stroke-opacity:1;paint-order:stroke fill markers"/>
    <svg:path sodipodi:nodetypes="cssccsscc" inkscape:connector-curvature="0" id="path1571" d="M 5694.2819,600 C 5720,510 5785.0056,480 5840,480 c 60,0 120,20 120,130 0,70 -57.8912,140 -130,140 v 60 c 130,0 210,-90 210,-200 0,-130 -64.0195,-190 -190,-190 -70,0 -150,40 -170,110 z" style="opacity:1;vector-effect:none;fill:#000000;fill-opacity:1;fill-rule:nonzero;stroke:none;stroke-width:8;stroke-linecap:round;stroke-linejoin:round;stroke-miterlimit:4;stroke-dasharray:none;stroke-dashoffset:0;stroke-opacity:1;paint-order:stroke fill markers"/>
    <svg:path sodipodi:nodetypes="cccc" inkscape:connector-curvature="0" id="path1573" d="m 6010,300 c 0,-80 -60,-130 -180,-130 l 10,60 c 50,0 120,20 120,40" style="opacity:1;vector-effect:none;fill:#000000;fill-opacity:1;fill-rule:nonzero;stroke:none;stroke-width:8;stroke-linecap:round;stroke-linejoin:round;stroke-miterlimit:4;stroke-dasharray:none;stroke-dashoffset:0;stroke-opacity:1;paint-order:stroke fill markers"/>
    <svg:path sodipodi:nodetypes="cccssscccccc" inkscape:connector-curvature="0" id="path1575" d="m 6170,180 v 240 h 50 v -80 c 0,-29.8142 10,-80 40,-80 h 140 c 38.6176,0 57.0406,-3.55669 88,-10 -172.2598,172.2598 -208,353.12098 -208,550 h 80 c 0,-190 -20,-330 200,-580 v -40 z" style="display:inline;opacity:1;vector-effect:none;fill:#000000;fill-opacity:1;fill-rule:nonzero;stroke:none;stroke-width:9.23760414;stroke-linecap:round;stroke-linejoin:round;stroke-miterlimit:4;stroke-dasharray:none;stroke-dashoffset:0;stroke-opacity:1;paint-order:stroke fill markers"/>
    <svg:path sodipodi:nodetypes="cccc" inkscape:connector-curvature="0" id="path1580" d="m 6770,490 c -69.6767,18.66981 -120,89.99999 -120,149.99999 h 70 C 6720,589.99999 6740,550 6820,510" style="opacity:1;vector-effect:none;fill:#000000;fill-opacity:1;fill-rule:nonzero;stroke:none;stroke-width:8;stroke-linecap:round;stroke-linejoin:round;stroke-miterlimit:4;stroke-dasharray:none;stroke-dashoffset:0;stroke-opacity:1;paint-order:stroke fill markers"/>
    <svg:path sodipodi:nodetypes="ssccsssssccssss" inkscape:connector-curvature="0" id="path1584" d="m 8850,320 c -1.545,-49.97612 20,-90 50,-90 30,0 60,10 60,60 l 60,10 c 0,-90 -44,-130 -120,-130 -90,0 -130,60 -130,150 0,85.84281 29.8984,178.70938 120,280 88.3323,99.30166 170,210 230,210 90.0018,0 100,-99.31897 100,-150 v -40 h -60 v 40 c 0,50 -5.329,70 -20,70 -42.665,0 -117.5219,-101.49796 -190,-180 -63.4237,-68.69515 -97.8359,-159.99681 -100,-230 z" style="display:inline;opacity:1;vector-effect:none;fill:#000000;fill-opacity:1;fill-rule:nonzero;stroke:none;stroke-width:9.14285755;stroke-linecap:round;stroke-linejoin:round;stroke-miterlimit:4;stroke-dasharray:none;stroke-dashoffset:0;stroke-opacity:1;paint-order:stroke fill markers"/>
    <svg:circle r="80" cy="340" cx="9160" id="circle1586" style="opacity:1;vector-effect:none;fill:#000000;fill-opacity:1;fill-rule:nonzero;stroke:none;stroke-width:8;stroke-linecap:round;stroke-linejoin:round;stroke-miterlimit:4;stroke-dasharray:none;stroke-dashoffset:0;stroke-opacity:1;paint-order:stroke fill markers"/>
    <svg:path sodipodi:nodetypes="cssssccsssscc" inkscape:connector-curvature="0" id="path1588" d="m 8960,290 c 0,40 -30,80 -100,120 -10.0256,5.72892 -40,20 -60,30 -60,30 -130,90 -130,180 0,120 70,190 200,190 81.972,0 141.172,-47.28832 180,-90 44.058,-48.46408 -23.948,-63.49934 -44.793,-40 -22.374,25.22364 -65.207,60 -115.207,60 -70,0 -140,-30 -140,-120 0,-50.447 30,-110 70,-130 20,-10 47.6375,-23.13197 60,-30 90,-50 140,-100 140,-160 z" style="opacity:1;vector-effect:none;fill:#000000;fill-opacity:1;fill-rule:nonzero;stroke:none;stroke-width:8;stroke-linecap:round;stroke-linejoin:round;stroke-miterlimit:4;stroke-dasharray:none;stroke-dashoffset:0;stroke-opacity:1;paint-order:stroke fill markers"/>
    <svg:path sodipodi:nodetypes="ccscccccsc" inkscape:connector-curvature="0" id="path1590" d="M 9229.282,300 9190,370 c 0,40 -47.398,70 -100,70 h -90 v 60 c 80,20 70,130 30,150 l 40,50 c 60,-40 70,-160 40,-200 78.29,-6.88355 134,-65.18751 134,-127.09848 0,-24.74166 -1.53,-50.05937 -14.718,-72.90152 z" style="opacity:1;vector-effect:none;fill:#000000;fill-opacity:1;fill-rule:nonzero;stroke:none;stroke-width:8;stroke-linecap:round;stroke-linejoin:round;stroke-miterlimit:4;stroke-dasharray:none;stroke-dashoffset:0;stroke-opacity:1;paint-order:stroke fill markers"/>
    <svg:rect y="480" x="7760" height="80" width="270" id="rect1592" style="opacity:1;vector-effect:none;fill:#000000;fill-opacity:1;fill-rule:nonzero;stroke:none;stroke-width:7.23627234;stroke-linecap:round;stroke-linejoin:round;stroke-miterlimit:4;stroke-dasharray:none;stroke-dashoffset:0;stroke-opacity:1;paint-order:stroke fill markers"/>
    <svg:path sodipodi:nodetypes="cccccccccc" inkscape:connector-curvature="0" id="path1594" d="m 8150,360 v 80 h 380 v -80 z m 0,180 v 80 h 380 v -80 z" style="opacity:1;vector-effect:none;fill:#000000;fill-opacity:1;fill-rule:nonzero;stroke:none;stroke-width:8.58469391;stroke-linecap:round;stroke-linejoin:round;stroke-miterlimit:4;stroke-dasharray:none;stroke-dashoffset:0;stroke-opacity:1;paint-order:stroke fill markers"/>
    <svg:circle r="80" cy="900" cx="9900" style="opacity:1;vector-effect:none;fill:#000000;fill-opacity:1;fill-rule:nonzero;stroke:none;stroke-width:8;stroke-linecap:round;stroke-linejoin:round;stroke-miterlimit:4;stroke-dasharray:none;stroke-dashoffset:0;stroke-opacity:1;paint-order:stroke fill markers" id="circle1608"/>
    <svg:path sodipodi:nodetypes="cssc" inkscape:connector-curvature="0" id="path1610" d="M 10110,520 C 10110,300 9990,159.99997 9760,159.99997 9520,159.99997 9350,320 9350,560 c 0,270 152.5793,410 370,410" style="opacity:1;vector-effect:none;fill:none;fill-opacity:1;fill-rule:nonzero;stroke:#000000;stroke-width:60;stroke-linecap:butt;stroke-linejoin:round;stroke-miterlimit:4;stroke-dasharray:none;stroke-dashoffset:0;stroke-opacity:1;paint-order:stroke fill markers"/>
    <svg:path sodipodi:nodetypes="cccc" inkscape:connector-curvature="0" id="path1612" d="m 9720,1000 c 100,0 171.0282,-2.44408 220,-30.71797 L 9900,920 c -40,20 -101.422,20 -180,20" style="opacity:1;vector-effect:none;fill:#000000;fill-opacity:1;fill-rule:nonzero;stroke:none;stroke-width:80;stroke-linecap:butt;stroke-linejoin:round;stroke-miterlimit:4;stroke-dasharray:none;stroke-dashoffset:0;stroke-opacity:1;paint-order:stroke fill markers"/>
    <svg:rect y="-10517.419" x="180.84087" height="65" width="622.89642" id="rect1614" style="opacity:1;vector-effect:none;fill:#000000;fill-opacity:1;fill-rule:nonzero;stroke:none;stroke-width:12.31357479;stroke-linecap:round;stroke-linejoin:round;stroke-miterlimit:4;stroke-dasharray:none;stroke-dashoffset:0;stroke-opacity:1;paint-order:stroke fill markers" transform="matrix(-0.09632352,0.99535008,-1,0,0,0)"/>
    <svg:rect transform="matrix(-0.09632352,0.99535008,-1,0,0,0)" style="opacity:1;vector-effect:none;fill:#000000;fill-opacity:1;fill-rule:nonzero;stroke:none;stroke-width:10.99109459;stroke-linecap:round;stroke-linejoin:round;stroke-miterlimit:4;stroke-dasharray:none;stroke-dashoffset:0;stroke-opacity:1;paint-order:stroke fill markers" id="rect1616" width="622.89642" height="65" x="180.84087" y="-10722.419"/>
    <svg:rect transform="scale(-1)" style="opacity:1;vector-effect:none;fill:#000000;fill-opacity:1;fill-rule:nonzero;stroke:none;stroke-width:10.04233456;stroke-linecap:round;stroke-linejoin:round;stroke-miterlimit:4;stroke-dasharray:none;stroke-dashoffset:0;stroke-opacity:1;paint-order:stroke fill markers" id="rect1618" width="440" height="60" x="-10760" y="-380"/>
    <svg:rect y="-660" x="-10760" height="60" width="440" id="rect1620" style="opacity:1;vector-effect:none;fill:#000000;fill-opacity:1;fill-rule:nonzero;stroke:none;stroke-width:10.04233456;stroke-linecap:round;stroke-linejoin:round;stroke-miterlimit:4;stroke-dasharray:none;stroke-dashoffset:0;stroke-opacity:1;paint-order:stroke fill markers" transform="scale(-1)"/>
    <svg:path inkscape:connector-curvature="0" id="path1622" d="m 11110,170 c -79.412,0 -150,41.24998 -150,165 0,123.75002 70.588,165 150,165 79.412,0 150,-41.24998 150,-165 0,-123.75002 -70.588,-165 -150,-165 z m 0,60 c 42,0 70,17.49998 70,105 0,87.50002 -28,105 -70,105 -42,0 -70,-17.49998 -70,-105 0,-87.50002 28,-105 70,-105 z" style="display:inline;opacity:1;vector-effect:none;fill:#000000;fill-opacity:1;fill-rule:nonzero;stroke:none;stroke-width:8.4292984;stroke-linecap:round;stroke-linejoin:round;stroke-miterlimit:4;stroke-dasharray:none;stroke-dashoffset:0;stroke-opacity:1;paint-order:stroke fill markers" sodipodi:nodetypes="ssssssssss"/>
    <svg:path inkscape:connector-curvature="0" id="path1627" d="m 11464.613,180 -357.957,620 h 72.375 l 357.957,-620 z" style="opacity:1;vector-effect:none;fill:#000000;fill-opacity:1;fill-rule:nonzero;stroke:none;stroke-width:80;stroke-linecap:butt;stroke-linejoin:round;stroke-miterlimit:4;stroke-dasharray:none;stroke-dashoffset:0;stroke-opacity:1;paint-order:stroke fill markers" sodipodi:nodetypes="ccccc"/>
    <svg:path sodipodi:nodetypes="ccccc" inkscape:connector-curvature="0" id="path1634" d="m 12104.264,390.37028 -318.286,-3.4e-4 L 11770,450 l 318.286,3.4e-4 z" style="display:inline;opacity:1;vector-effect:none;fill:#000000;fill-opacity:1;fill-rule:nonzero;stroke:none;stroke-width:20;stroke-linecap:round;stroke-linejoin:round;stroke-miterlimit:4;stroke-dasharray:none;stroke-dashoffset:0;stroke-opacity:1;paint-order:stroke fill markers"/>
    <svg:path style="display:inline;opacity:1;vector-effect:none;fill:#000000;fill-opacity:1;fill-rule:nonzero;stroke:none;stroke-width:20;stroke-linecap:round;stroke-linejoin:round;stroke-miterlimit:4;stroke-dasharray:none;stroke-dashoffset:0;stroke-opacity:1;paint-order:stroke fill markers" d="m 12072.11,510.37028 -286.132,-3.4e-4 L 11770,570 l 286.132,3.4e-4 z" id="path1636" inkscape:connector-curvature="0" sodipodi:nodetypes="ccccc"/>
    <svg:path sodipodi:nodetypes="csssccscsccc" inkscape:connector-curvature="0" id="path1638" d="m 12570,760 c 70,-50 110,-110 110,-210 0,-40.04297 -20,-130 -20,-180 0,-79.99997 70,-140 120,-140 60,0 140,50 140,110 h 40 c 0,-115.4556 -90,-170 -180,-170 -140,0 -200.495,77.22443 -200,200 0.362,90 30,130 30,210 0,60 -20,130 -80,170 l 30,50 z" style="display:inline;opacity:1;vector-effect:none;fill:#000000;fill-opacity:1;fill-rule:nonzero;stroke:none;stroke-width:9.14285755;stroke-linecap:round;stroke-linejoin:round;stroke-miterlimit:4;stroke-dasharray:none;stroke-dashoffset:0;stroke-opacity:1;paint-order:stroke fill markers"/>
    <svg:circle r="80" cy="340" cx="12880" style="display:inline;opacity:1;vector-effect:none;fill:#000000;fill-opacity:1;fill-rule:nonzero;stroke:none;stroke-width:9.14285755;stroke-linecap:round;stroke-linejoin:round;stroke-miterlimit:4;stroke-dasharray:none;stroke-dashoffset:0;stroke-opacity:1;paint-order:stroke fill markers" id="circle1640"/>
    <svg:path sodipodi:nodetypes="csssccsssc" inkscape:connector-curvature="0" id="path1642" d="m 12560,750 c 60,-50 130,-70 200,-70 80,0 90,40 130,40 20,0 30,-15.47079 30,-90 v -30 h 60 v 30 c 0,140 -30,170 -100,170 -80,0 -100,-50 -170,-50 -70,0 -95.321,12.25838 -150,50" style="opacity:1;vector-effect:none;fill:#000000;fill-opacity:1;fill-rule:nonzero;stroke:none;stroke-width:80;stroke-linecap:butt;stroke-linejoin:round;stroke-miterlimit:4;stroke-dasharray:none;stroke-dashoffset:0;stroke-opacity:1;paint-order:stroke fill markers"/>
    <svg:path style="display:inline;opacity:1;vector-effect:none;fill:#000000;fill-opacity:1;fill-rule:nonzero;stroke:none;stroke-width:20;stroke-linecap:round;stroke-linejoin:round;stroke-miterlimit:4;stroke-dasharray:none;stroke-dashoffset:0;stroke-opacity:1;paint-order:stroke fill markers" d="m 12780,390 -248.564,-4.6e-4 -16.077,60.00016 248.564,4.6e-4 z" id="path1644" inkscape:connector-curvature="0" sodipodi:nodetypes="ccccc"/>
    <svg:path sodipodi:nodetypes="ccccc" inkscape:connector-curvature="0" id="path1646" d="m 12780,509.99984 -248.564,-4.6e-4 -16.077,60.00016 248.564,4.6e-4 z" style="display:inline;opacity:1;vector-effect:none;fill:#000000;fill-opacity:1;fill-rule:nonzero;stroke:none;stroke-width:20;stroke-linecap:round;stroke-linejoin:round;stroke-miterlimit:4;stroke-dasharray:none;stroke-dashoffset:0;stroke-opacity:1;paint-order:stroke fill markers"/>
    <svg:path sodipodi:nodetypes="sccssccss" inkscape:connector-curvature="0" id="path1668" d="m 14110,530 c -30,0 -60,30 -60,80 l 38,30 c 5.408,-48.07209 12,-56 28,-56 12.243,0 16.517,15.85122 14.25,36 L 14110,800 h 60 l 20.25,-180 c 5.704,-50.69829 -18.053,-90 -80.25,-90 z" style="opacity:1;vector-effect:none;fill:#000000;fill-opacity:1;fill-rule:nonzero;stroke:none;stroke-width:80;stroke-linecap:butt;stroke-linejoin:round;stroke-miterlimit:4;stroke-dasharray:none;stroke-dashoffset:0;stroke-opacity:1;paint-order:stroke fill markers"/>
    <svg:path sodipodi:nodetypes="csccscc" inkscape:connector-curvature="0" id="path1670" d="m 14840,940 c -87.501,0 -150,-177.33033 -150,-370 0,-192.66967 62.499,-370.99504 150,-370 v -60 c -150.69,0 -230,236.16195 -230,430 0,193.83806 79.31,430 230,430 z" style="display:inline;opacity:1;vector-effect:none;fill:#000000;fill-opacity:1;fill-rule:nonzero;stroke:none;stroke-width:9.14285755;stroke-linecap:round;stroke-linejoin:round;stroke-miterlimit:4;stroke-dasharray:none;stroke-dashoffset:0;stroke-opacity:1;paint-order:stroke fill markers"/>
    <svg:path sodipodi:nodetypes="ssssccccsssccs" inkscape:connector-curvature="0" id="path1672" d="m 15110,140 c -60,0 -110,50 -110,140 v 210 c 0,25.95703 -16.377,50 -50,50 h -30 v 50 h 70 v -10 c 50,0 90,-30 90,-100 V 280 c 0,-70 36.753,-80 60,-80 20,0 27.23,5.67436 33.824,10 L 15190,160 c -18.189,-13.00636 -35.518,-20 -80,-20 z" style="opacity:1;vector-effect:none;fill:#000000;fill-opacity:1;fill-rule:nonzero;stroke:none;stroke-width:80;stroke-linecap:butt;stroke-linejoin:round;stroke-miterlimit:4;stroke-dasharray:none;stroke-dashoffset:0;stroke-opacity:1;paint-order:stroke fill markers"/>
    <svg:use height="100%" width="100%" transform="matrix(1,0,0,-1,0,1140)" id="use1674" xlink:href="#path1672" y="0" x="0"/>
    <svg:path inkscape:connector-curvature="0" id="path1677" d="m 15320,140 v 860 h 220 v -60 h -140 V 200 h 140 v -60 z" style="opacity:1;vector-effect:none;fill:#000000;fill-opacity:1;fill-rule:nonzero;stroke:none;stroke-width:80;stroke-linecap:butt;stroke-linejoin:round;stroke-miterlimit:4;stroke-dasharray:none;stroke-dashoffset:0;stroke-opacity:1;paint-order:stroke fill markers" sodipodi:nodetypes="ccccccccc"/>
    <svg:g transform="translate(0,33.568444)" id="g1693">
      <svg:g id="g1683" transform="translate(-40,220)">
        <svg:path sodipodi:nodetypes="cscccc" inkscape:connector-curvature="0" id="path1679" transform="translate(40,-271.56844)" d="m 15920,224 c -44.183,0 -80,35.81722 -80,80 0,81.31481 60,147.56836 60,217.56836 l 20,10 V 304 Z" style="display:inline;opacity:1;vector-effect:none;fill:#000000;fill-opacity:1;fill-rule:nonzero;stroke:none;stroke-width:8;stroke-linecap:round;stroke-linejoin:round;stroke-miterlimit:4;stroke-dasharray:none;stroke-dashoffset:0;stroke-opacity:1;paint-order:stroke fill markers"/>
        <svg:use x="0" y="0" xlink:href="#path1679" id="use1681" transform="matrix(-1,0,0,1,31920,0)" width="100%" height="100%"/>
      </svg:g>
      <svg:use x="0" y="0" xlink:href="#g1683" id="use1685" transform="rotate(72,15920,480)" width="100%" height="100%"/>
      <svg:use height="100%" width="100%" transform="rotate(144,15920,480)" id="use1687" xlink:href="#g1683" y="0" x="0"/>
      <svg:use x="0" y="0" xlink:href="#g1683" id="use1689" transform="rotate(-144,15920,480)" width="100%" height="100%"/>
      <svg:use height="100%" width="100%" transform="rotate(-72,15920,480)" id="use1691" xlink:href="#g1683" y="0" x="0"/>
    </svg:g>
    <svg:g transform="translate(-460,-65)" id="g1699">
      <svg:path sodipodi:nodetypes="ccccscc" inkscape:connector-curvature="0" id="path1695" d="m 17120,368.21366 -380,140 v 69.91482 l 40,-15.13014 c 60.663,-5.14475 109.446,-17.37769 150,-32.75226 l 190,-72.03242 z" style="opacity:1;vector-effect:none;fill:#000000;fill-opacity:1;fill-rule:nonzero;stroke:none;stroke-width:80;stroke-linecap:butt;stroke-linejoin:round;stroke-miterlimit:4;stroke-dasharray:none;stroke-dashoffset:0;stroke-opacity:1;paint-order:stroke fill markers"/>
      <svg:use x="0" y="0" xlink:href="#path1695" id="use1697" transform="matrix(1,0,0,-1,0,1110)" width="100%" height="100%"/>
    </svg:g>
    <svg:path sodipodi:nodetypes="scccccss" inkscape:connector-curvature="0" id="path1701" transform="translate(0,-24)" d="m 17656,268 c -16.569,0 -31.569,6.71636 -42.426,17.57422 -40.219,40.21875 -14.076,70.6451 -63.574,120.14258 V 434 h 28.283 c 49.498,-49.49748 79.925,-23.35546 120.143,-63.57422 C 17709.284,359.56791 17716,344.56854 17716,328 c 0,-33.13708 -26.863,-60 -60,-60 z" style="display:inline;opacity:1;vector-effect:none;fill:#000000;fill-opacity:1;fill-rule:nonzero;stroke:none;stroke-width:8;stroke-linecap:round;stroke-linejoin:round;stroke-miterlimit:4;stroke-dasharray:none;stroke-dashoffset:0;stroke-opacity:1;paint-order:stroke fill markers"/>
    <svg:use height="100%" width="100%" transform="rotate(90,17440,520)" id="use1703" xlink:href="#path1701" y="0" x="0"/>
    <svg:use x="0" y="0" xlink:href="#path1701" id="use1705" transform="rotate(180,17440,520)" width="100%" height="100%"/>
    <svg:use height="100%" width="100%" transform="rotate(-90,17440,520)" id="use1707" xlink:href="#path1701" y="0" x="0"/>
    <svg:path style="opacity:1;vector-effect:none;fill:#000000;fill-opacity:1;fill-rule:nonzero;stroke:none;stroke-width:8;stroke-linecap:round;stroke-linejoin:round;stroke-miterlimit:4;stroke-dasharray:none;stroke-dashoffset:0;stroke-opacity:1;paint-order:stroke fill markers" d="m 6910,480 c 69.6767,-18.6698 120,-80 120,-140 h -70 c 0,50 -20,80 -100,120" id="path1711" inkscape:connector-curvature="0" sodipodi:nodetypes="cccc"/>
    <svg:rect y="-7470" x="140" height="60" width="700" id="rect1713" style="opacity:1;vector-effect:none;fill:#000000;fill-opacity:1;fill-rule:nonzero;stroke:none;stroke-width:10.09049988;stroke-linecap:round;stroke-linejoin:round;stroke-miterlimit:4;stroke-dasharray:none;stroke-dashoffset:0;stroke-opacity:1;paint-order:stroke fill markers" transform="rotate(90)"/>
    <svg:circle r="80" cy="-639.99994" cx="-7309.999" style="display:inline;opacity:1;vector-effect:none;fill:#000000;fill-opacity:1;fill-rule:nonzero;stroke:none;stroke-width:9.14285755;stroke-linecap:round;stroke-linejoin:round;stroke-miterlimit:4;stroke-dasharray:none;stroke-dashoffset:0;stroke-opacity:1;paint-order:stroke fill markers" id="circle2349-5" transform="scale(-1)"/>
    <svg:circle r="80" cy="340.00003" cx="7569.999" id="circle2351-7" style="display:inline;opacity:1;vector-effect:none;fill:#000000;fill-opacity:1;fill-rule:nonzero;stroke:none;stroke-width:9.14285755;stroke-linecap:round;stroke-linejoin:round;stroke-miterlimit:4;stroke-dasharray:none;stroke-dashoffset:0;stroke-opacity:1;paint-order:stroke fill markers"/>
    <svg:path sodipodi:nodetypes="ssccssssccsss" inkscape:connector-curvature="0" id="path2356-5" d="m 7309.999,340 c 0,-76.39864 54.3951,-109.99999 140.001,-109.99999 80,0 139.999,30 139.999,109.99999 l 59.999,-10e-6 C 7649.998,212.86963 7529.999,170 7439.999,170 c -99.999,0 -201.0568,59.96262 -200.001,170 1.9189,200 350.001,160 350.001,299.99999 C 7589.999,720 7520,750.00001 7430,750.00001 c -80,0 -140.002,-50.00002 -140.002,-110.00002 h -60 C 7229.998,767.13035 7359.999,810 7449.999,810 7560,810 7661.0538,750.03738 7659.998,640 7657.983,430 7309.999,470 7309.999,340 Z" style="display:inline;opacity:1;vector-effect:none;fill:#000000;fill-opacity:1;fill-rule:nonzero;stroke:none;stroke-width:9.14285755;stroke-linecap:round;stroke-linejoin:round;stroke-miterlimit:4;stroke-dasharray:none;stroke-dashoffset:0;stroke-opacity:1;paint-order:stroke fill markers"/>
    <svg:path style="display:inline;opacity:1;vector-effect:none;fill:#000000;fill-opacity:1;fill-rule:nonzero;stroke:none;stroke-width:9.14285755;stroke-linecap:round;stroke-linejoin:round;stroke-miterlimit:4;stroke-dasharray:none;stroke-dashoffset:0;stroke-opacity:1;paint-order:stroke fill markers" d="m 6730,340 c 0,-76.39864 42.2585,-109.99999 119.513,-109.99999 72.1955,0 110.487,30 110.487,109.99999 l 70,-10e-6 C 7030,212.86963 6921.7076,170 6840.4877,170 6750.2442,170 6659.0452,229.96262 6659.998,340 6661.7297,540 6970,500 6970,639.99999 6970,720 6912.6841,750.00001 6831.4641,750.00001 6759.2686,750.00001 6720,699.99999 6720,639.99999 h -69.0264 c 0,127.13036 117.3186,170.00001 198.5385,170.00001 99.2698,0 190.4651,-59.96262 189.5123,-170 C 7037.206,430 6730,470 6730,340 Z" id="path1748" inkscape:connector-curvature="0" sodipodi:nodetypes="ssccssssccsss"/>
    <svg:path style="display:inline;opacity:1;vector-effect:none;fill:#000000;fill-opacity:1;fill-rule:nonzero;stroke:none;stroke-width:9.14285755;stroke-linecap:round;stroke-linejoin:round;stroke-miterlimit:4;stroke-dasharray:none;stroke-dashoffset:0;stroke-opacity:1;paint-order:stroke fill markers" d="m 9903.132,340 -44.332,70 v 300 c 0,33.02599 31.2,90 111.2,90 80,0 170,-90 170,-280 0,-7.1604 -60,-44.329 -60,0 0,170 -61.481,220 -100,220 -20,0 -41.2,-23.96583 -41.2,-50 V 340 Z" id="path1274-6-4" inkscape:connector-curvature="0" sodipodi:nodetypes="ccsssssscc"/>
    <svg:path style="display:inline;opacity:1;vector-effect:none;fill:#000000;fill-opacity:1;fill-rule:nonzero;stroke:none;stroke-width:9.14285755;stroke-linecap:round;stroke-linejoin:round;stroke-miterlimit:4;stroke-dasharray:none;stroke-dashoffset:0;stroke-opacity:1;paint-order:stroke fill markers" d="m 9710.8,811.42857 c 59.482,0 86.087,-16.76136 117.077,-44.67302 30.989,-27.91165 48.489,-66.97359 54.015,-111.57475 l 36.908,64.81922 -53.266,-106.14516 c -29.459,64.9536 -56.734,136.14516 -154.734,136.14516 -80,0 -122,-50 -122,-178.38402 0,-131.61598 54.207,-181.61598 122,-181.61598 90,0 149.055,92.0481 154.025,163.03564 L 9916.8,342.85714 9870,429.73212 c -16.565,-23.09006 -60.816,-99.8192 -159.2,-99.8192 -114.948,0 -202,92.94422 -202,239.93531 0,146.99097 83.036,241.58034 202,241.58034 z" id="path1276-1-7" inkscape:connector-curvature="0" sodipodi:nodetypes="sscccssscccsss"/>
    <svg:path sodipodi:nodetypes="csssccssscc" inkscape:connector-curvature="0" id="path2125-6" d="M 12357.274,349.29447 C 12329.257,244.73308 12236.568,169.99999 12100,169.99999 c -194.118,0 -270,160 -270,320 0,160 75.882,320 270,320 160.319,0 237.519,-116.33137 260,-245.99999 l -60,-10 c -19.246,112.12493 -76.239,195.99998 -200,195.99998 -140,0 -190,-117.17459 -190,-259.99999 0,-142.8254 60,-256.41072 210,-256.41072 110,0 155.891,63.13722 188,136.41073 z" style="display:inline;opacity:1;vector-effect:none;fill:#000000;fill-opacity:1;fill-rule:nonzero;stroke:none;stroke-width:8;stroke-linecap:round;stroke-linejoin:round;stroke-miterlimit:4;stroke-dasharray:none;stroke-dashoffset:0;stroke-opacity:1;paint-order:stroke fill markers"/>
    <svg:circle id="circle2127-2" style="display:inline;opacity:1;vector-effect:none;fill:#000000;fill-opacity:1;fill-rule:nonzero;stroke:none;stroke-width:8;stroke-linecap:round;stroke-linejoin:round;stroke-miterlimit:4;stroke-dasharray:none;stroke-dashoffset:0;stroke-opacity:1;paint-order:stroke fill markers" cx="12280" cy="370" r="80"/>
    <svg:path sodipodi:nodetypes="ccccc" inkscape:connector-curvature="0" style="display:inline;opacity:1;vector-effect:none;fill:#000000;fill-opacity:1;fill-rule:nonzero;stroke:none;stroke-width:8;stroke-linecap:round;stroke-linejoin:round;stroke-miterlimit:4;stroke-dasharray:none;stroke-dashoffset:0;stroke-opacity:1;paint-order:stroke fill markers" d="m 13358.627,520.00001 53.556,-56.10742 -175.193,-223.89258 h -98 z" id="path2502-6"/>
    <svg:rect style="display:inline;opacity:1;vector-effect:none;fill:#000000;fill-opacity:1;fill-rule:nonzero;stroke:none;stroke-width:4;stroke-linecap:butt;stroke-linejoin:round;stroke-miterlimit:4;stroke-dasharray:none;stroke-dashoffset:0;stroke-opacity:1;paint-order:stroke fill markers" id="rect2504-0" width="240" height="60" x="13095" y="180"/>
    <svg:path sodipodi:nodetypes="ccccc" inkscape:connector-curvature="0" id="path2506-7" d="m 13410.035,521.21485 230.955,-281.21484 h -78.459 l -198.379,242.55469 z" style="display:inline;opacity:1;vector-effect:none;fill:#000000;fill-opacity:1;fill-rule:nonzero;stroke:none;stroke-width:8;stroke-linecap:round;stroke-linejoin:round;stroke-miterlimit:4;stroke-dasharray:none;stroke-dashoffset:0;stroke-opacity:1;paint-order:stroke fill markers"/>
    <svg:rect transform="scale(-1)" y="-240" x="-13685" height="60" width="200" id="rect2508-1" style="display:inline;opacity:1;vector-effect:none;fill:#000000;fill-opacity:1;fill-rule:nonzero;stroke:none;stroke-width:4;stroke-linecap:butt;stroke-linejoin:round;stroke-miterlimit:4;stroke-dasharray:none;stroke-dashoffset:0;stroke-opacity:1;paint-order:stroke fill markers"/>
    <svg:rect style="display:inline;opacity:1;vector-effect:none;fill:#000000;fill-opacity:1;fill-rule:nonzero;stroke:none;stroke-width:4.07921553;stroke-linecap:butt;stroke-linejoin:round;stroke-miterlimit:4;stroke-dasharray:none;stroke-dashoffset:0;stroke-opacity:1;paint-order:stroke fill markers" id="rect2510-4" width="80" height="260" x="13345" y="480"/>
    <svg:rect style="display:inline;opacity:1;vector-effect:none;fill:#000000;fill-opacity:1;fill-rule:nonzero;stroke:none;stroke-width:4;stroke-linecap:butt;stroke-linejoin:round;stroke-miterlimit:4;stroke-dasharray:none;stroke-dashoffset:0;stroke-opacity:1;paint-order:stroke fill markers" id="rect2512-1" width="240" height="60" x="13265" y="740"/>
    <svg:path sodipodi:nodetypes="ccccc" inkscape:connector-curvature="0" id="path1837" d="m 13560,480 -343.923,-4.6e-4 -16.077,60.00016 343.923,4.6e-4 z" style="display:inline;opacity:1;vector-effect:none;fill:#000000;fill-opacity:1;fill-rule:nonzero;stroke:none;stroke-width:20;stroke-linecap:round;stroke-linejoin:round;stroke-miterlimit:4;stroke-dasharray:none;stroke-dashoffset:0;stroke-opacity:1;paint-order:stroke fill markers"/>
    <svg:path style="display:inline;opacity:1;vector-effect:none;fill:#000000;fill-opacity:1;fill-rule:nonzero;stroke:none;stroke-width:20;stroke-linecap:round;stroke-linejoin:round;stroke-miterlimit:4;stroke-dasharray:none;stroke-dashoffset:0;stroke-opacity:1;paint-order:stroke fill markers" d="m 13560,599.99984 -343.923,-4.6e-4 -16.077,60.00016 343.923,4.6e-4 z" id="path1839" inkscape:connector-curvature="0" sodipodi:nodetypes="ccccc"/>
    <svg:circle r="80" cy="340" cx="14330" id="circle2351-7-5" style="display:inline;opacity:1;vector-effect:none;fill:#000000;fill-opacity:1;fill-rule:nonzero;stroke:none;stroke-width:9.14285755;stroke-linecap:round;stroke-linejoin:round;stroke-miterlimit:4;stroke-dasharray:none;stroke-dashoffset:0;stroke-opacity:1;paint-order:stroke fill markers"/>
    <svg:path sodipodi:nodetypes="ssccssssccsss" inkscape:connector-curvature="0" id="path2356-5-3" d="m 14160,339.99997 c 0,-57.72401 14.125,-109.99999 90.001,-109.99999 64.721,0 99.999,24.90692 99.999,70.1042 l 59.999,39.89578 c 0,-111.5245 -79.999,-169.99999 -169.999,-169.99999 -80.476,0 -161.057,59.96262 -160.001,170 1.919,200 260.001,160 260.001,299.99999 0,80.00001 -70,110.00002 -220,110.00002 -140,0 -230,-50.00002 -230,-110.00002 h -60 c 0,127.13036 150,170.00001 309.999,170.00001 180.001,0 281.056,-59.96262 280,-170 -2.015,-210 -259.999,-170 -259.999,-300 z" style="display:inline;opacity:1;vector-effect:none;fill:#000000;fill-opacity:1;fill-rule:nonzero;stroke:none;stroke-width:9.14285755;stroke-linecap:round;stroke-linejoin:round;stroke-miterlimit:4;stroke-dasharray:none;stroke-dashoffset:0;stroke-opacity:1;paint-order:stroke fill markers"/>
    <svg:path style="opacity:1;vector-effect:none;fill:#000000;fill-opacity:1;fill-rule:nonzero;stroke:none;stroke-width:80;stroke-linecap:butt;stroke-linejoin:round;stroke-miterlimit:4;stroke-dasharray:none;stroke-dashoffset:0;stroke-opacity:1;paint-order:stroke fill markers" d="m 14009.75,554 c -30,0 -60,30 -60,80 l 38,30 c 5.408,-48.07209 12.25,-56 28,-56 12.243,0 16.517,15.85122 14.25,36 l -20.25,180 h 60 L 14090,644 c 0.122,-1.08464 0.212,-2.15653 0.307,-3.23047 L 14070,634 c 0,-48.4368 -9.385,-78.10438 -55.428,-79.91211 0,-2e-5 0,2e-5 0,0 0,-10e-5 0,10e-5 0,0 -1.392,-0.0545 -2.823,-0.0787 -4.283,-0.082 -0.177,-6.5e-4 -0.351,-0.006 -0.529,-0.006 z" transform="translate(0,-24)" id="path1861" inkscape:connector-curvature="0" sodipodi:nodetypes="cccsccccccccccsc"/>
    <svg:path style="opacity:1;vector-effect:none;fill:#000000;fill-opacity:1;fill-rule:nonzero;stroke:none;stroke-width:80;stroke-linecap:butt;stroke-linejoin:round;stroke-miterlimit:4;stroke-dasharray:none;stroke-dashoffset:0;stroke-opacity:1;paint-order:stroke fill markers" d="m 13909.75,554 c -29.75,0 -79.75,30 -79.75,110 h 60 c 0,-40 15.75,-56 25.75,-56 12.243,0 16.517,15.85122 14.25,36 l -20.25,180 h 60 L 13990,644 c 0.122,-1.08464 0.212,-2.15653 0.307,-3.23047 L 13970,634 c 0,-48.4368 -9.385,-78.10438 -55.428,-79.91211 0,-2e-5 0,2e-5 0,0 0,-10e-5 0,10e-5 0,0 -1.392,-0.0545 -2.823,-0.0787 -4.283,-0.082 -0.177,-6.5e-4 -0.351,-0.006 -0.529,-0.006 z" transform="translate(0,-24)" id="path1863" inkscape:connector-curvature="0" sodipodi:nodetypes="sccsccccccccccs"/>
  </svg:g>
  </svg>