<?xml version="1.0" encoding="UTF-8" standalone="no"?>
<!-- Created with Inkscape (http://www.inkscape.org/) -->

<svg
   width="1024"
   height="1024"
   viewBox="0 0 1024 1024"
   version="1.1"
   id="svg8"
   inkscape:version="1.1.2 (b8e25be833, 2022-02-05)"
   sodipodi:docname="L Orelega Upper Cyrillic.svg"
   inkscape:export-filename="D:\Documents\Orelega\svg\Orelega cyrillic draft.png"
   inkscape:export-xdpi="24"
   inkscape:export-ydpi="24"
   xmlns:inkscape="http://www.inkscape.org/namespaces/inkscape"
   xmlns:sodipodi="http://sodipodi.sourceforge.net/DTD/sodipodi-0.dtd"
   xmlns:xlink="http://www.w3.org/1999/xlink"
   xmlns="http://www.w3.org/2000/svg"
   xmlns:svg="http://www.w3.org/2000/svg"
   xmlns:rdf="http://www.w3.org/1999/02/22-rdf-syntax-ns#"
   xmlns:cc="http://creativecommons.org/ns#"
   xmlns:dc="http://purl.org/dc/elements/1.1/">
  <defs
     id="defs2" />
  <sodipodi:namedview
     id="base"
     pagecolor="#ffffff"
     bordercolor="#666666"
     borderopacity="1.0"
     inkscape:pageopacity="0.0"
     inkscape:pageshadow="2"
     inkscape:zoom="0.088388348"
     inkscape:cx="8490.9382"
     inkscape:cy="271.529"
     inkscape:document-units="px"
     inkscape:current-layer="layer11"
     showgrid="true"
     units="px"
     inkscape:pagecheckerboard="false"
     borderlayer="true"
     gridtolerance="10"
     inkscape:snap-smooth-nodes="false"
     inkscape:snap-text-baseline="true"
     inkscape:snap-page="true"
     showguides="true"
     inkscape:guide-bbox="true"
     inkscape:object-nodes="true"
     inkscape:object-paths="false"
     inkscape:snap-global="true"
     inkscape:snap-intersection-paths="true"
     inkscape:lockguides="true"
     showborder="false"
     inkscape:window-width="1920"
     inkscape:window-height="1027"
     inkscape:window-x="-8"
     inkscape:window-y="-8"
     inkscape:window-maximized="1">
    <inkscape:grid
       type="xygrid"
       id="grid4131"
       empspacing="4"
       spacingx="10"
       spacingy="10"
       color="#ffffff"
       opacity="0.2627451"
       empcolor="#ffffff"
       empopacity="0.62352941" />
    <sodipodi:guide
       position="15825.17,820.00003"
       orientation="0,1"
       id="guide979"
       inkscape:locked="true" />
    <sodipodi:guide
       position="13510,200"
       orientation="0,1"
       id="guide983"
       inkscape:locked="true" />
    <sodipodi:guide
       position="13120,120"
       orientation="0,1"
       id="guide985"
       inkscape:locked="true" />
    <sodipodi:guide
       position="0,40"
       orientation="0,1"
       id="guide987"
       inkscape:locked="true" />
    <sodipodi:guide
       position="2710,820.00003"
       orientation="0,1"
       id="guide1028"
       inkscape:locked="true" />
    <sodipodi:guide
       position="0,0"
       orientation="0,1"
       id="guide1030"
       inkscape:locked="true" />
    <sodipodi:guide
       position="9460,660"
       orientation="0,1"
       id="guide1122"
       inkscape:locked="true" />
    <sodipodi:guide
       position="4810,860"
       orientation="0,1"
       id="guide1263"
       inkscape:locked="true" />
    <sodipodi:guide
       position="9200,520"
       orientation="0,1"
       id="guide1490"
       inkscape:locked="true" />
    <sodipodi:guide
       position="280,440"
       orientation="0,1"
       id="guide1871"
       inkscape:locked="true" />
    <sodipodi:guide
       position="7220,740"
       orientation="0.89043443,-0.45511155"
       id="guide2166"
       inkscape:locked="true" />
  </sodipodi:namedview>
  <metadata
     id="metadata5">
    <rdf:RDF>
      <cc:Work
         rdf:about="">
        <dc:format>image/svg+xml</dc:format>
        <dc:type
           rdf:resource="http://purl.org/dc/dcmitype/StillImage" />
      </cc:Work>
    </rdf:RDF>
  </metadata>
  <g
     inkscape:groupmode="layer"
     id="layer11"
     inkscape:label="Orelega upper cyrillic light"
     style="display:inline">
    <rect
       style="display:inline;vector-effect:none;fill:#000000;fill-opacity:1;fill-rule:nonzero;stroke:none;stroke-width:4.03872;stroke-linecap:butt;stroke-linejoin:round;stroke-miterlimit:4;stroke-dasharray:none;stroke-dashoffset:0;stroke-opacity:1;paint-order:stroke fill markers"
       id="rect2092-0"
       width="80"
       height="519.92078"
       x="120"
       y="254" />
    <path
       sodipodi:nodetypes="ccsssccsssc"
       inkscape:connector-curvature="0"
       id="path2096-8"
       d="m 156.88672,514 v 60 H 300 c 140,0 170,30 170,90 0,80 -40,100 -210,100 H 40 v 60 H 260 C 458.7142,824 550,796.05366 550,664 550,554.76781 451.8619,514 300,514 Z"
       style="display:inline;vector-effect:none;fill:#000000;fill-opacity:1;fill-rule:nonzero;stroke:none;stroke-width:9.2376;stroke-linecap:round;stroke-linejoin:round;stroke-miterlimit:4;stroke-dasharray:none;stroke-dashoffset:0;stroke-opacity:1;paint-order:stroke fill markers" />
    <rect
       style="display:inline;vector-effect:none;fill:#000000;fill-opacity:1;fill-rule:nonzero;stroke:none;stroke-width:4.03872;stroke-linecap:butt;stroke-linejoin:round;stroke-miterlimit:4;stroke-dasharray:none;stroke-dashoffset:0;stroke-opacity:1;paint-order:stroke fill markers"
       id="rect2092-0-4"
       width="80"
       height="519.92078"
       x="7560"
       y="250" />
    <path
       sodipodi:nodetypes="csccscc"
       inkscape:connector-curvature="0"
       id="path2096-8-7"
       d="m 7809.3057,524 c 0,80 -35.8752,110 -130,110 h -80 v 60 h 80 c 111.2104,0 210,-37.94634 210,-170 z"
       style="display:inline;vector-effect:none;fill:#000000;fill-opacity:1;fill-rule:nonzero;stroke:none;stroke-width:9.2376;stroke-linecap:round;stroke-linejoin:round;stroke-miterlimit:4;stroke-dasharray:none;stroke-dashoffset:0;stroke-opacity:1;paint-order:stroke fill markers" />
    <rect
       style="display:inline;vector-effect:none;fill:#000000;fill-opacity:1;fill-rule:nonzero;stroke:none;stroke-width:4.03872;stroke-linecap:butt;stroke-linejoin:round;stroke-miterlimit:4;stroke-dasharray:none;stroke-dashoffset:0;stroke-opacity:1;paint-order:stroke fill markers"
       id="rect2164-9"
       width="80"
       height="519.92078"
       x="750"
       y="254" />
    <path
       style="display:inline;vector-effect:none;fill:#000000;fill-opacity:1;fill-rule:nonzero;stroke:none;stroke-width:4;stroke-linecap:butt;stroke-linejoin:round;stroke-miterlimit:4;stroke-dasharray:none;stroke-dashoffset:0;stroke-opacity:1;paint-order:stroke fill markers"
       d="m 670,204 v 60 h 410 v 140 h 60 V 204 Z m 0,560 v 60 h 300 v -60 z"
       id="path2168-9"
       inkscape:connector-curvature="0"
       sodipodi:nodetypes="cccccccccccc" />
    <path
       style="display:inline;vector-effect:none;fill:#000000;fill-opacity:1;fill-rule:nonzero;stroke:none;stroke-width:9.2376;stroke-linecap:round;stroke-linejoin:round;stroke-miterlimit:4;stroke-dasharray:none;stroke-dashoffset:0;stroke-opacity:1;paint-order:stroke fill markers"
       d="m 1040,264 c 30,0 40,50.18576 40,80 v -80 z"
       id="path2177-7"
       inkscape:connector-curvature="0" />
    <rect
       style="display:inline;vector-effect:none;fill:#000000;fill-opacity:1;fill-rule:nonzero;stroke:none;stroke-width:4.03872;stroke-linecap:butt;stroke-linejoin:round;stroke-miterlimit:4;stroke-dasharray:none;stroke-dashoffset:0;stroke-opacity:1;paint-order:stroke fill markers"
       id="rect2164-9-2"
       width="80"
       height="519.92078"
       x="15860"
       y="254" />
    <path
       style="display:inline;vector-effect:none;fill:#000000;fill-opacity:1;fill-rule:nonzero;stroke:none;stroke-width:4;stroke-linecap:butt;stroke-linejoin:round;stroke-miterlimit:4;stroke-dasharray:none;stroke-dashoffset:0;stroke-opacity:1;paint-order:stroke fill markers"
       d="m 15780,764 v 60 h 300 v -60 z"
       id="path6431" />
    <path
       style="display:inline;vector-effect:none;fill:#000000;fill-opacity:1;fill-rule:nonzero;stroke:none;stroke-width:4;stroke-linecap:butt;stroke-linejoin:round;stroke-miterlimit:4;stroke-dasharray:none;stroke-dashoffset:0;stroke-opacity:1;paint-order:stroke fill markers"
       d="m 15780,263.99997 v -60 h 410 v -140 h 60 v 200 z"
       id="path2168-9-9" />
    <path
       style="display:inline;vector-effect:none;fill:#000000;fill-opacity:1;fill-rule:nonzero;stroke:none;stroke-width:9.2376;stroke-linecap:round;stroke-linejoin:round;stroke-miterlimit:4;stroke-dasharray:none;stroke-dashoffset:0;stroke-opacity:1;paint-order:stroke fill markers"
       d="m 16150,203.99997 c 30,0 40,-50.18576 40,-80 v 80 z"
       id="path2177-7-3"
       inkscape:connector-curvature="0" />
    <rect
       y="264"
       x="1680"
       height="519.92078"
       width="80"
       id="rect2359-0"
       style="display:inline;vector-effect:none;fill:#000000;fill-opacity:1;fill-rule:nonzero;stroke:none;stroke-width:4.03872;stroke-linecap:butt;stroke-linejoin:round;stroke-miterlimit:4;stroke-dasharray:none;stroke-dashoffset:0;stroke-opacity:1;paint-order:stroke fill markers" />
    <path
       sodipodi:nodetypes="cccccccccccccc"
       inkscape:connector-curvature="0"
       id="path2361-3"
       d="m 1250,764 v 180 h 60 V 824 h 480 v 120 h 60 V 764 Z m 70,-560 v 60 h 440 v -60 z"
       style="display:inline;vector-effect:none;fill:#000000;fill-opacity:1;fill-rule:nonzero;stroke:none;stroke-width:4;stroke-linecap:butt;stroke-linejoin:round;stroke-miterlimit:4;stroke-dasharray:none;stroke-dashoffset:0;stroke-opacity:1;paint-order:stroke fill markers" />
    <path
       id="path2363-5"
       d="m 1750,824 c 30,0 40,50.18576 40,80 v -80 z"
       style="display:inline;vector-effect:none;fill:#000000;fill-opacity:1;fill-rule:nonzero;stroke:none;stroke-width:9.2376;stroke-linecap:round;stroke-linejoin:round;stroke-miterlimit:4;stroke-dasharray:none;stroke-dashoffset:0;stroke-opacity:1;paint-order:stroke fill markers"
       inkscape:connector-curvature="0"
       sodipodi:nodetypes="cccc" />
    <path
       sodipodi:nodetypes="ccccc"
       inkscape:connector-curvature="0"
       id="path2361-3-9"
       d="m 8640,824 v 120 h 60 V 764 Z"
       style="display:inline;vector-effect:none;fill:#000000;fill-opacity:1;fill-rule:nonzero;stroke:none;stroke-width:4;stroke-linecap:butt;stroke-linejoin:round;stroke-miterlimit:4;stroke-dasharray:none;stroke-dashoffset:0;stroke-opacity:1;paint-order:stroke fill markers" />
    <path
       id="path2363-5-3"
       d="m 8600,824 c 30,0 40,50.18576 40,80 v -80 z"
       style="display:inline;vector-effect:none;fill:#000000;fill-opacity:1;fill-rule:nonzero;stroke:none;stroke-width:9.2376;stroke-linecap:round;stroke-linejoin:round;stroke-miterlimit:4;stroke-dasharray:none;stroke-dashoffset:0;stroke-opacity:1;paint-order:stroke fill markers"
       inkscape:connector-curvature="0"
       sodipodi:nodetypes="cccc" />
    <path
       sodipodi:nodetypes="cccc"
       inkscape:connector-curvature="0"
       style="display:inline;vector-effect:none;fill:#000000;fill-opacity:1;fill-rule:nonzero;stroke:none;stroke-width:9.2376;stroke-linecap:round;stroke-linejoin:round;stroke-miterlimit:4;stroke-dasharray:none;stroke-dashoffset:0;stroke-opacity:1;paint-order:stroke fill markers"
       d="m 1350,824 c -30,0 -40,50.18576 -40,80 v -80 z"
       id="path2365-2" />
    <path
       style="display:inline;vector-effect:none;fill:#000000;fill-opacity:1;fill-rule:nonzero;stroke:none;stroke-width:4;stroke-linecap:butt;stroke-linejoin:round;stroke-miterlimit:4;stroke-dasharray:none;stroke-dashoffset:0;stroke-opacity:1;paint-order:stroke fill markers"
       d="m 40,204 v 60 h 430 v 140 h 60 V 204 Z"
       id="path21200"
       inkscape:connector-curvature="0"
       sodipodi:nodetypes="ccccccc" />
    <rect
       style="display:inline;vector-effect:none;fill:#000000;fill-opacity:1;fill-rule:nonzero;stroke:none;stroke-width:4.03872;stroke-linecap:butt;stroke-linejoin:round;stroke-miterlimit:4;stroke-dasharray:none;stroke-dashoffset:0;stroke-opacity:1;paint-order:stroke fill markers"
       id="rect2092-0-8"
       width="80"
       height="519.92078"
       x="12120"
       y="254" />
    <path
       sodipodi:nodetypes="ccsssccsssc"
       inkscape:connector-curvature="0"
       id="path2096-8-0"
       d="m 12156.887,514 v 60 H 12300 c 140,0 170,30 170,90 0,80 -40,100 -210,100 h -220 v 60 h 220 c 198.714,0 290,-27.94634 290,-160 0,-109.23219 -98.138,-150 -250,-150 z"
       style="display:inline;vector-effect:none;fill:#000000;fill-opacity:1;fill-rule:nonzero;stroke:none;stroke-width:9.2376;stroke-linecap:round;stroke-linejoin:round;stroke-miterlimit:4;stroke-dasharray:none;stroke-dashoffset:0;stroke-opacity:1;paint-order:stroke fill markers" />
    <path
       style="display:inline;vector-effect:none;fill:#000000;fill-opacity:1;fill-rule:nonzero;stroke:none;stroke-width:4;stroke-linecap:butt;stroke-linejoin:round;stroke-miterlimit:4;stroke-dasharray:none;stroke-dashoffset:0;stroke-opacity:1;paint-order:stroke fill markers"
       d="m 12300,204 v 60 h -340 v 140 h -60 V 204 Z"
       id="path21200-6"
       inkscape:connector-curvature="0"
       sodipodi:nodetypes="ccccccc" />
    <path
       style="display:inline;vector-effect:none;fill:#000000;fill-opacity:1;fill-rule:nonzero;stroke:none;stroke-width:9.2376;stroke-linecap:round;stroke-linejoin:round;stroke-miterlimit:4;stroke-dasharray:none;stroke-dashoffset:0;stroke-opacity:1;paint-order:stroke fill markers"
       d="m 430,264 c 30,0 40,50.18576 40,80 v -80 z"
       id="path21202"
       inkscape:connector-curvature="0"
       sodipodi:nodetypes="cccc" />
    <path
       style="display:inline;vector-effect:none;fill:#000000;fill-opacity:1;fill-rule:nonzero;stroke:none;stroke-width:9.2376;stroke-linecap:round;stroke-linejoin:round;stroke-miterlimit:4;stroke-dasharray:none;stroke-dashoffset:0;stroke-opacity:1;paint-order:stroke fill markers"
       d="m 12000,264 c -30,0 -40,50.18576 -40,80 v -80 z"
       id="path21202-1"
       inkscape:connector-curvature="0"
       sodipodi:nodetypes="cccc" />
    <path
       style="display:inline;vector-effect:none;fill:#000000;fill-opacity:1;fill-rule:nonzero;stroke:none;stroke-width:9.2376;stroke-linecap:round;stroke-linejoin:round;stroke-miterlimit:4;stroke-dasharray:none;stroke-dashoffset:0;stroke-opacity:1;paint-order:stroke fill markers"
       d="m 1398,764 c 48.7441,-101.01493 62,-184 62,-340 V 264 h -60 v 160 c 0,136 -20,236 -72,340 z"
       id="path1560-6-7"
       inkscape:connector-curvature="0"
       sodipodi:nodetypes="csccscc" />
    <g
       id="g24205">
      <path
         style="display:inline;vector-effect:none;fill:#000000;fill-opacity:1;fill-rule:nonzero;stroke:none;stroke-width:10.721;stroke-linecap:round;stroke-linejoin:round;stroke-miterlimit:4;stroke-dasharray:none;stroke-dashoffset:0;stroke-opacity:1;paint-order:stroke fill markers"
         d="m 2480,514 v 60 h 120 v -60 z"
         id="path1123-1-4-5"
         inkscape:connector-curvature="0"
         sodipodi:nodetypes="ccccc" />
      <path
         style="display:inline;vector-effect:none;fill:#000000;fill-opacity:1;fill-rule:nonzero;stroke:none;stroke-width:8;stroke-linecap:round;stroke-linejoin:round;stroke-miterlimit:4;stroke-dasharray:none;stroke-dashoffset:0;stroke-opacity:1;paint-order:stroke fill markers"
         d="m 2600,534 c 70,0 140.7056,20.67195 170,130 22.5203,84.04694 30,110 46.875,110 33.125,0 43.125,-31.08136 52.603,-110 L 2920,669.16779 C 2910.625,759.16779 2890,834 2808.75,834 2740,834 2711.8549,782.88397 2680,664 c -17.1487,-64 -70,-90 -120,-90"
         id="path1854-3-5"
         inkscape:connector-curvature="0"
         sodipodi:nodetypes="cssccssc" />
      <path
         style="display:inline;vector-effect:none;fill:#000000;fill-opacity:1;fill-rule:nonzero;stroke:none;stroke-width:8;stroke-linecap:round;stroke-linejoin:round;stroke-miterlimit:4;stroke-dasharray:none;stroke-dashoffset:0;stroke-opacity:1;paint-order:stroke fill markers"
         d="m 2932.9947,364 c 0,-79.86899 -22.9941,-120.79398 -56.9478,-142.98047 C 2850.0006,204 2820,194 2770,194 c -20,0 -59.5917,8.91255 -80,30 -25.0745,25.90893 -40.3641,62.40579 -50,122.1 C 2620,470 2590,514 2540,514 l 30,40 c 80,0 120,-64 140,-207.9 9.1227,-65.63748 45.5788,-91.1 77.1119,-91.1 49.4246,0 82.8881,25 76.8881,65.1 l -20,156.00001 c 39.4487,0 88.9947,-26.10001 88.9947,-112.10001 z"
         id="path1751-3-3"
         inkscape:connector-curvature="0"
         sodipodi:nodetypes="sssssccssccs" />
      <circle
         id="circle2127-1"
         style="display:inline;vector-effect:none;fill:#000000;fill-opacity:1;fill-rule:nonzero;stroke:none;stroke-width:8;stroke-linecap:round;stroke-linejoin:round;stroke-miterlimit:4;stroke-dasharray:none;stroke-dashoffset:0;stroke-opacity:1;paint-order:stroke fill markers"
         cx="2844"
         cy="396.10001"
         r="80" />
    </g>
    <circle
       id="circle1547-8"
       style="display:inline;vector-effect:none;fill:#000000;fill-opacity:1;fill-rule:nonzero;stroke:none;stroke-width:8;stroke-linecap:round;stroke-linejoin:round;stroke-miterlimit:4;stroke-dasharray:none;stroke-dashoffset:0;stroke-opacity:1;paint-order:stroke fill markers"
       cx="3160"
       cy="394"
       r="80" />
    <path
       style="display:inline;vector-effect:none;fill:#000000;fill-opacity:1;fill-rule:nonzero;stroke:none;stroke-width:8;stroke-linecap:round;stroke-linejoin:round;stroke-miterlimit:4;stroke-dasharray:none;stroke-dashoffset:0;stroke-opacity:1;paint-order:stroke fill markers"
       d="M 3090.718,434 C 3036.4471,340 3110,194 3280,194 c 160,0 210,86 210,200 0,96 -96,156 -186,156 l -74,-36 c 140,0 180,-60 180,-120 0,-104 -50,-140 -140,-140 -60,0 -130,50 -130,90"
       id="path1549-6"
       inkscape:connector-curvature="0"
       sodipodi:nodetypes="cssccssc" />
    <rect
       style="display:inline;vector-effect:none;fill:#000000;fill-opacity:1;fill-rule:nonzero;stroke:none;stroke-width:3.91918;stroke-linecap:butt;stroke-linejoin:round;stroke-miterlimit:4;stroke-dasharray:none;stroke-dashoffset:0;stroke-opacity:1;paint-order:stroke fill markers"
       id="rect2181-9"
       width="240"
       height="60"
       x="3640"
       y="203.99997" />
    <rect
       style="display:inline;vector-effect:none;fill:#000000;fill-opacity:1;fill-rule:nonzero;stroke:none;stroke-width:3.91918;stroke-linecap:butt;stroke-linejoin:round;stroke-miterlimit:4;stroke-dasharray:none;stroke-dashoffset:0;stroke-opacity:1;paint-order:stroke fill markers"
       id="rect2181-9-5"
       width="240"
       height="60"
       x="7480"
       y="203.99997" />
    <rect
       style="display:inline;vector-effect:none;fill:#000000;fill-opacity:1;fill-rule:nonzero;stroke:none;stroke-width:4;stroke-linecap:butt;stroke-linejoin:round;stroke-miterlimit:4;stroke-dasharray:none;stroke-dashoffset:0;stroke-opacity:1;paint-order:stroke fill markers"
       id="rect2189-9"
       width="80"
       height="500"
       x="4100"
       y="263.99997" />
    <rect
       style="display:inline;vector-effect:none;fill:#000000;fill-opacity:1;fill-rule:nonzero;stroke:none;stroke-width:3.91918;stroke-linecap:butt;stroke-linejoin:round;stroke-miterlimit:4;stroke-dasharray:none;stroke-dashoffset:0;stroke-opacity:1;paint-order:stroke fill markers"
       id="rect2191-6"
       width="160"
       height="60"
       x="4100"
       y="203.99997" />
    <rect
       style="display:inline;vector-effect:none;fill:#000000;fill-opacity:1;fill-rule:nonzero;stroke:none;stroke-width:3.91918;stroke-linecap:butt;stroke-linejoin:round;stroke-miterlimit:4;stroke-dasharray:none;stroke-dashoffset:0;stroke-opacity:1;paint-order:stroke fill markers"
       id="rect2193-1"
       width="240"
       height="60"
       x="4020"
       y="764" />
    <circle
       transform="scale(1,-1)"
       r="80"
       cy="-674"
       cx="3160"
       style="display:inline;vector-effect:none;fill:#000000;fill-opacity:1;fill-rule:nonzero;stroke:none;stroke-width:8;stroke-linecap:round;stroke-linejoin:round;stroke-miterlimit:4;stroke-dasharray:none;stroke-dashoffset:0;stroke-opacity:1;paint-order:stroke fill markers"
       id="circle1551-8" />
    <path
       sodipodi:nodetypes="csscccssc"
       inkscape:connector-curvature="0"
       id="path1553-5"
       d="M 3090.718,634 C 3035.2924,730 3110,834 3280,834 c 150,0 220,-54 220,-168 0,-100 -70,-136 -190,-136 l -80,-16 v 60 c 130,0 190,22 190,92 0,90 -77.8912,108 -150,108 -80,0 -130,-24 -130,-74"
       style="display:inline;vector-effect:none;fill:#000000;fill-opacity:1;fill-rule:nonzero;stroke:none;stroke-width:8;stroke-linecap:round;stroke-linejoin:round;stroke-miterlimit:4;stroke-dasharray:none;stroke-dashoffset:0;stroke-opacity:1;paint-order:stroke fill markers" />
    <rect
       y="264"
       x="2440"
       height="500"
       width="80"
       id="rect2195-9"
       style="display:inline;vector-effect:none;fill:#000000;fill-opacity:1;fill-rule:nonzero;stroke:none;stroke-width:4;stroke-linecap:butt;stroke-linejoin:round;stroke-miterlimit:4;stroke-dasharray:none;stroke-dashoffset:0;stroke-opacity:1;paint-order:stroke fill markers" />
    <rect
       y="204"
       x="2370"
       height="60"
       width="220"
       id="rect2197-5"
       style="display:inline;vector-effect:none;fill:#000000;fill-opacity:1;fill-rule:nonzero;stroke:none;stroke-width:3.91918;stroke-linecap:butt;stroke-linejoin:round;stroke-miterlimit:4;stroke-dasharray:none;stroke-dashoffset:0;stroke-opacity:1;paint-order:stroke fill markers" />
    <rect
       y="764"
       x="2360"
       height="60"
       width="240"
       id="rect2199-1"
       style="display:inline;vector-effect:none;fill:#000000;fill-opacity:1;fill-rule:nonzero;stroke:none;stroke-width:3.91918;stroke-linecap:butt;stroke-linejoin:round;stroke-miterlimit:4;stroke-dasharray:none;stroke-dashoffset:0;stroke-opacity:1;paint-order:stroke fill markers" />
    <use
       x="0"
       y="0"
       xlink:href="#g24205"
       id="use24207"
       transform="matrix(-1,0,0,1,4952.9947,0)"
       width="100%"
       height="100%" />
    <rect
       style="display:inline;vector-effect:none;fill:#000000;fill-opacity:1;fill-rule:nonzero;stroke:none;stroke-width:4;stroke-linecap:butt;stroke-linejoin:round;stroke-miterlimit:4;stroke-dasharray:none;stroke-dashoffset:0;stroke-opacity:1;paint-order:stroke fill markers"
       id="rect25544"
       width="80"
       height="500"
       x="-3800"
       y="-764"
       transform="scale(-1)" />
    <rect
       style="display:inline;vector-effect:none;fill:#000000;fill-opacity:1;fill-rule:nonzero;stroke:none;stroke-width:3.91918;stroke-linecap:butt;stroke-linejoin:round;stroke-miterlimit:4;stroke-dasharray:none;stroke-dashoffset:0;stroke-opacity:1;paint-order:stroke fill markers"
       id="rect25546"
       width="160"
       height="60"
       x="-3800"
       y="-824"
       transform="scale(-1)" />
    <rect
       style="display:inline;vector-effect:none;fill:#000000;fill-opacity:1;fill-rule:nonzero;stroke:none;stroke-width:4.77315;stroke-linecap:butt;stroke-linejoin:round;stroke-miterlimit:4;stroke-dasharray:none;stroke-dashoffset:0;stroke-opacity:1;paint-order:stroke fill markers"
       id="rect25548"
       width="80"
       height="711.96906"
       x="4200.1611"
       y="234.2608"
       transform="matrix(1,0,-0.4915944,0.87082429,0,0)" />
    <use
       x="0"
       y="0"
       xlink:href="#g24205"
       id="use25712"
       transform="translate(2040)"
       width="100%"
       height="100%" />
    <rect
       y="264"
       x="4480"
       height="500"
       width="80"
       id="rect25750"
       style="display:inline;vector-effect:none;fill:#000000;fill-opacity:1;fill-rule:nonzero;stroke:none;stroke-width:4;stroke-linecap:butt;stroke-linejoin:round;stroke-miterlimit:4;stroke-dasharray:none;stroke-dashoffset:0;stroke-opacity:1;paint-order:stroke fill markers" />
    <rect
       y="204"
       x="4410"
       height="60"
       width="220"
       id="rect25752"
       style="display:inline;vector-effect:none;fill:#000000;fill-opacity:1;fill-rule:nonzero;stroke:none;stroke-width:3.91918;stroke-linecap:butt;stroke-linejoin:round;stroke-miterlimit:4;stroke-dasharray:none;stroke-dashoffset:0;stroke-opacity:1;paint-order:stroke fill markers" />
    <rect
       y="764"
       x="4400"
       height="60"
       width="240"
       id="rect25754"
       style="display:inline;vector-effect:none;fill:#000000;fill-opacity:1;fill-rule:nonzero;stroke:none;stroke-width:3.91918;stroke-linecap:butt;stroke-linejoin:round;stroke-miterlimit:4;stroke-dasharray:none;stroke-dashoffset:0;stroke-opacity:1;paint-order:stroke fill markers" />
    <path
       style="display:inline;vector-effect:none;fill:#000000;fill-opacity:1;fill-rule:nonzero;stroke:none;stroke-width:4;stroke-linecap:round;stroke-linejoin:round;stroke-miterlimit:4;stroke-dasharray:none;stroke-dashoffset:0;stroke-opacity:1;paint-order:stroke fill markers"
       d="m 5340,264 v 240 c 0,216 -30,270 -102,270 -50,0 -58,-34 -58,-70 l 10,-40 -36.5685,-56.56854 C 5130,630.86292 5119.4206,664 5120,704 c 1.3036,90 47.3216,130 120,130 120,0 160,-84 160,-330 V 264 Z"
       id="rect2024-3-9-2"
       inkscape:connector-curvature="0"
       sodipodi:nodetypes="csscccssscc" />
    <path
       style="display:inline;vector-effect:none;fill:#000000;fill-opacity:1;fill-rule:nonzero;stroke:none;stroke-width:9.2376;stroke-linecap:round;stroke-linejoin:round;stroke-miterlimit:4;stroke-dasharray:none;stroke-dashoffset:0;stroke-opacity:1;paint-order:stroke fill markers"
       d="m 5240,204 v 60 h 340 v 500 h -80 v 60 h 240 v -60 h -80 V 264 h 80 v -60 z"
       id="path2079-9"
       inkscape:connector-curvature="0"
       sodipodi:nodetypes="ccccccccccccc" />
    <circle
       transform="scale(-1)"
       id="path1116-4-55-8"
       style="display:inline;vector-effect:none;fill:#000000;fill-opacity:1;fill-rule:nonzero;stroke:none;stroke-width:9.14286;stroke-linecap:round;stroke-linejoin:round;stroke-miterlimit:4;stroke-dasharray:none;stroke-dashoffset:0;stroke-opacity:1;paint-order:stroke fill markers"
       cx="-5210"
       cy="-664"
       r="80" />
    <path
       id="path26373"
       style="display:inline;vector-effect:none;fill:#000000;fill-opacity:1;fill-rule:nonzero;stroke:none;stroke-width:9.2376;stroke-linecap:round;stroke-linejoin:round;stroke-miterlimit:4;stroke-dasharray:none;stroke-dashoffset:0;stroke-opacity:1;paint-order:stroke fill markers"
       d="m 5880,204 v 60 h 80 v 500 h -80 v 60 h 240 v -60 h -80 V 264 h 300 v 500 h -80 v 60 h 240 v -60 h -80 V 264 h 80 v -60 z" />
    <path
       sodipodi:nodetypes="ccccc"
       inkscape:connector-curvature="0"
       style="display:inline;vector-effect:none;fill:#000000;fill-opacity:1;fill-rule:nonzero;stroke:none;stroke-width:8;stroke-linecap:round;stroke-linejoin:round;stroke-miterlimit:4;stroke-dasharray:none;stroke-dashoffset:0;stroke-opacity:1;paint-order:stroke fill markers"
       d="m 6947.8593,683.99997 53.556,-64.1074 -175.193,-355.8926 h -98 z"
       id="path2502-7" />
    <rect
       style="display:inline;vector-effect:none;fill:#000000;fill-opacity:1;fill-rule:nonzero;stroke:none;stroke-width:4;stroke-linecap:butt;stroke-linejoin:round;stroke-miterlimit:4;stroke-dasharray:none;stroke-dashoffset:0;stroke-opacity:1;paint-order:stroke fill markers"
       id="rect2504-5"
       width="240"
       height="60"
       x="6684.2222"
       y="203.99997" />
    <path
       id="path2506-1"
       style="display:inline;vector-effect:none;fill:#000000;fill-opacity:1;fill-rule:nonzero;stroke:none;stroke-width:8;stroke-linecap:round;stroke-linejoin:round;stroke-miterlimit:4;stroke-dasharray:none;stroke-dashoffset:0;stroke-opacity:1;paint-order:stroke fill markers"
       d="M 6761.3368,687.86521 6714.7188,624 c -12.6086,21.83839 -21.9247,46.79409 -21.9247,81.8741 0,83.48633 66.1751,128.08684 135.2967,128.08684 83.4854,0 135.8913,-49.05801 238.5752,-249.96094 l 163.5567,-320 h -78.459 l -130.9805,273.33984 c -94.4555,197.11673 -139,237.06836 -190.8096,237.06836 -46.9612,0 -80.5691,-37.14233 -68.6368,-86.54299 z"
       sodipodi:nodetypes="ccsssccssc" />
    <circle
       style="display:inline;vector-effect:none;fill:#000000;fill-opacity:1;fill-rule:nonzero;stroke:none;stroke-width:9.14286;stroke-linecap:round;stroke-linejoin:round;stroke-miterlimit:4;stroke-dasharray:none;stroke-dashoffset:0;stroke-opacity:1;paint-order:stroke fill markers"
       id="circle2161-1"
       transform="scale(-1)"
       inkscape:transform-center-y="-5.4101763"
       cx="-6784"
       cy="-664"
       r="80" />
    <rect
       transform="scale(-1)"
       y="-263.99997"
       x="-7274.2222"
       height="60"
       width="200"
       id="rect2508-6"
       style="display:inline;vector-effect:none;fill:#000000;fill-opacity:1;fill-rule:nonzero;stroke:none;stroke-width:4;stroke-linecap:butt;stroke-linejoin:round;stroke-miterlimit:4;stroke-dasharray:none;stroke-dashoffset:0;stroke-opacity:1;paint-order:stroke fill markers" />
    <rect
       style="display:inline;vector-effect:none;fill:#000000;fill-opacity:1;fill-rule:nonzero;stroke:none;stroke-width:3.91918;stroke-linecap:butt;stroke-linejoin:round;stroke-miterlimit:4;stroke-dasharray:none;stroke-dashoffset:0;stroke-opacity:1;paint-order:stroke fill markers"
       id="rect29826"
       width="240"
       height="60"
       x="7480"
       y="764" />
    <use
       x="0"
       y="0"
       xlink:href="#path2096-8-7"
       id="use30017"
       transform="matrix(1,0,0,-1,0,1048)"
       width="100%"
       height="100%" />
    <use
       x="0"
       y="0"
       xlink:href="#path2096-8-7"
       id="use30037"
       transform="rotate(180,7599.3057,524)"
       width="100%"
       height="100%" />
    <use
       x="0"
       y="0"
       xlink:href="#path2096-8-7"
       id="use30039"
       transform="matrix(-1,0,0,1,15198.611,0)"
       width="100%"
       height="100%" />
    <path
       id="path30230"
       style="display:inline;vector-effect:none;fill:#000000;fill-opacity:1;fill-rule:nonzero;stroke:none;stroke-width:9.2376;stroke-linecap:round;stroke-linejoin:round;stroke-miterlimit:4;stroke-dasharray:none;stroke-dashoffset:0;stroke-opacity:1;paint-order:stroke fill markers"
       d="m 8080,824 v -60 h 80 V 264 h -80 v -60 h 240 v 60 h -80 v 500 h 300 V 264 h -80 v -60 h 240 v 60 h -80 v 500 h 80 l -33.0324,60 z"
       sodipodi:nodetypes="ccccccccccccccccccccc" />
    <path
       id="path1497-3-3-7"
       style="display:inline;vector-effect:none;fill:#000000;fill-opacity:1;fill-rule:nonzero;stroke:none;stroke-width:9.14286;stroke-linecap:round;stroke-linejoin:round;stroke-miterlimit:4;stroke-dasharray:none;stroke-dashoffset:0;stroke-opacity:1;paint-order:stroke fill markers"
       d="m 9220,203.99997 v 60 h 80 v 500 h -80 v 60 h 240 v -60 h -80 v -500 h 80 v -60 z"
       sodipodi:nodetypes="ccccccccccccc" />
    <path
       id="rect13332-1-3-2"
       style="display:inline;vector-effect:none;fill:#000000;fill-opacity:1;fill-rule:nonzero;stroke:none;stroke-width:4;stroke-linecap:round;stroke-linejoin:round;stroke-miterlimit:4;stroke-dasharray:none;stroke-dashoffset:0;stroke-opacity:1;paint-order:stroke fill markers"
       d="m 8840,203.99997 v 60 h 80 V 440 c 0,130 60,209.99993 190,209.99997 C 9230,650 9300,570 9330,446 l -30,-50 C 9270,520 9220,583.99997 9120,583.99997 9050,583.99997 9000,540 9000,440 V 263.99997 h 80 v -60 z"
       sodipodi:nodetypes="cccssccsscccc" />
    <path
       id="path1497-3-3-7-9"
       style="display:inline;vector-effect:none;fill:#000000;fill-opacity:1;fill-rule:nonzero;stroke:none;stroke-width:9.14286;stroke-linecap:round;stroke-linejoin:round;stroke-miterlimit:4;stroke-dasharray:none;stroke-dashoffset:0;stroke-opacity:1;paint-order:stroke fill markers"
       d="m 14480,824 v -60 h -80 V 264 h 80 v -60 h -240 v 60 h 80 v 500 h -80 v 60 z"
       sodipodi:nodetypes="ccccccccccccc" />
    <path
       id="rect13332-1-3-2-4"
       style="display:inline;vector-effect:none;fill:#000000;fill-opacity:1;fill-rule:nonzero;stroke:none;stroke-width:4;stroke-linecap:round;stroke-linejoin:round;stroke-miterlimit:4;stroke-dasharray:none;stroke-dashoffset:0;stroke-opacity:1;paint-order:stroke fill markers"
       d="m 14860,824 v -60 h -80 V 647.99997 c 0,-130 -60,-209.99993 -190,-209.99997 -120,-3e-5 -190,79.99997 -220,203.99997 l 30,50 c 30,-124 80,-187.99997 180,-187.99997 70,0 120,43.99997 120,143.99997 V 764 h -80 v 60 z"
       sodipodi:nodetypes="cccssccsscccc" />
    <path
       sodipodi:nodetypes="ccccc"
       inkscape:connector-curvature="0"
       id="path33122"
       d="m 11740,824 v 120 h 60 V 764 Z"
       style="display:inline;vector-effect:none;fill:#000000;fill-opacity:1;fill-rule:nonzero;stroke:none;stroke-width:4;stroke-linecap:butt;stroke-linejoin:round;stroke-miterlimit:4;stroke-dasharray:none;stroke-dashoffset:0;stroke-opacity:1;paint-order:stroke fill markers" />
    <path
       id="path33124"
       d="m 11700,824 c 30,0 40,50.18576 40,80 v -80 z"
       style="display:inline;vector-effect:none;fill:#000000;fill-opacity:1;fill-rule:nonzero;stroke:none;stroke-width:9.2376;stroke-linecap:round;stroke-linejoin:round;stroke-miterlimit:4;stroke-dasharray:none;stroke-dashoffset:0;stroke-opacity:1;paint-order:stroke fill markers"
       inkscape:connector-curvature="0"
       sodipodi:nodetypes="cccc" />
    <path
       id="path33126"
       style="display:inline;vector-effect:none;fill:#000000;fill-opacity:1;fill-rule:nonzero;stroke:none;stroke-width:9.2376;stroke-linecap:round;stroke-linejoin:round;stroke-miterlimit:4;stroke-dasharray:none;stroke-dashoffset:0;stroke-opacity:1;paint-order:stroke fill markers"
       d="m 10840,204 v 60 h 80 v 500 h -80 v 60 h 926.969 L 11800,764 h -80 V 264 h 80 v -60 h -240 v 60 h 80 v 500 h -280 V 264 h 80 v -60 h -240 v 60 h 80 v 500 h -280 V 264 h 80 v -60 z" />
    <path
       id="path33501"
       style="display:inline;vector-effect:none;fill:#000000;fill-opacity:1;fill-rule:nonzero;stroke:none;stroke-width:9.2376;stroke-linecap:round;stroke-linejoin:round;stroke-miterlimit:4;stroke-dasharray:none;stroke-dashoffset:0;stroke-opacity:1;paint-order:stroke fill markers"
       d="m 9660,204 v 60 h 80 v 500 h -80 v 60 h 960 v -60 h -80 V 264 h 80 v -60 h -240 v 60 h 80 v 500 h -280 V 264 h 80 v -60 h -240 v 60 h 80 V 764 H 9820 V 264 h 80 v -60 z"
       sodipodi:nodetypes="ccccccccccccccccccccccccccccc" />
    <rect
       style="display:inline;vector-effect:none;fill:#000000;fill-opacity:1;fill-rule:nonzero;stroke:none;stroke-width:4.03872;stroke-linecap:butt;stroke-linejoin:round;stroke-miterlimit:4;stroke-dasharray:none;stroke-dashoffset:0;stroke-opacity:1;paint-order:stroke fill markers"
       id="rect34358"
       width="80"
       height="519.92078"
       x="12800"
       y="254" />
    <path
       sodipodi:nodetypes="ccsssccsssc"
       inkscape:connector-curvature="0"
       id="path34360"
       d="m 12836.887,514 v 60 H 12980 c 130,0 150,30 150,90 0,80 -30,100 -190,100 h -220 v 60 h 220 c 190,0 270,-27.94634 270,-160 0,-109.23219 -80,-150 -230,-150 z"
       style="display:inline;vector-effect:none;fill:#000000;fill-opacity:1;fill-rule:nonzero;stroke:none;stroke-width:9.2376;stroke-linecap:round;stroke-linejoin:round;stroke-miterlimit:4;stroke-dasharray:none;stroke-dashoffset:0;stroke-opacity:1;paint-order:stroke fill markers" />
    <path
       id="path34362"
       style="display:inline;vector-effect:none;fill:#000000;fill-opacity:1;fill-rule:nonzero;stroke:none;stroke-width:4;stroke-linecap:butt;stroke-linejoin:round;stroke-miterlimit:4;stroke-dasharray:none;stroke-dashoffset:0;stroke-opacity:1;paint-order:stroke fill markers"
       d="m 12720,204 v 60 h 260 v -60 z"
       sodipodi:nodetypes="ccccc" />
    <rect
       y="263.99997"
       x="13360"
       height="500"
       width="80"
       id="rect2195-6"
       style="display:inline;vector-effect:none;fill:#000000;fill-opacity:1;fill-rule:nonzero;stroke:none;stroke-width:4;stroke-linecap:butt;stroke-linejoin:round;stroke-miterlimit:4;stroke-dasharray:none;stroke-dashoffset:0;stroke-opacity:1;paint-order:stroke fill markers" />
    <rect
       y="203.99997"
       x="13280"
       height="60"
       width="240"
       id="rect2197-1"
       style="display:inline;vector-effect:none;fill:#000000;fill-opacity:1;fill-rule:nonzero;stroke:none;stroke-width:3.91918;stroke-linecap:butt;stroke-linejoin:round;stroke-miterlimit:4;stroke-dasharray:none;stroke-dashoffset:0;stroke-opacity:1;paint-order:stroke fill markers" />
    <rect
       y="764"
       x="13280"
       height="60"
       width="240"
       id="rect2199-2"
       style="display:inline;vector-effect:none;fill:#000000;fill-opacity:1;fill-rule:nonzero;stroke:none;stroke-width:3.91918;stroke-linecap:butt;stroke-linejoin:round;stroke-miterlimit:4;stroke-dasharray:none;stroke-dashoffset:0;stroke-opacity:1;paint-order:stroke fill markers" />
    <rect
       style="display:inline;vector-effect:none;fill:#000000;fill-opacity:1;fill-rule:nonzero;stroke:none;stroke-width:4.03872;stroke-linecap:butt;stroke-linejoin:round;stroke-miterlimit:4;stroke-dasharray:none;stroke-dashoffset:0;stroke-opacity:1;paint-order:stroke fill markers"
       id="rect34968"
       width="80"
       height="519.92078"
       x="13680"
       y="254" />
    <path
       sodipodi:nodetypes="ccsssccsssc"
       inkscape:connector-curvature="0"
       id="path34970"
       d="m 13716.887,514 v 60 H 13860 c 140,0 170,30 170,90 0,80 -40,100 -210,100 h -220 v 60 h 220 c 198.714,0 290,-27.94634 290,-160 0,-109.23219 -98.138,-150 -250,-150 z"
       style="display:inline;vector-effect:none;fill:#000000;fill-opacity:1;fill-rule:nonzero;stroke:none;stroke-width:9.2376;stroke-linecap:round;stroke-linejoin:round;stroke-miterlimit:4;stroke-dasharray:none;stroke-dashoffset:0;stroke-opacity:1;paint-order:stroke fill markers" />
    <path
       id="path34972"
       style="display:inline;vector-effect:none;fill:#000000;fill-opacity:1;fill-rule:nonzero;stroke:none;stroke-width:4;stroke-linecap:butt;stroke-linejoin:round;stroke-miterlimit:4;stroke-dasharray:none;stroke-dashoffset:0;stroke-opacity:1;paint-order:stroke fill markers"
       d="m 13600,204 v 60 h 260 v -60 z"
       sodipodi:nodetypes="ccccc" />
    <path
       style="display:inline;vector-effect:none;fill:#000000;fill-opacity:1;fill-rule:nonzero;stroke:none;stroke-width:9.14286;stroke-linecap:round;stroke-linejoin:round;stroke-miterlimit:4;stroke-dasharray:none;stroke-dashoffset:0;stroke-opacity:1;paint-order:stroke fill markers"
       d="m 15470,767.99998 c 70,0 90,-47.99998 90,-120.00001 0,-100 -50,-143.99997 -120,-143.99997 -100,0 -150,63.99997 -180,187.99997 l -30,-50 c 30,-124 100,-204 220,-203.99997 130,4e-5 190,79.99997 190,209.99997 0,102.00003 -50,180 -170,180 -30,0 -60,-10.86288 -76.569,-27.43143 z"
       id="path2564-8"
       inkscape:connector-curvature="0"
       sodipodi:nodetypes="cssccssccc" />
    <path
       transform="scale(-1)"
       id="circle2566-0"
       style="display:inline;vector-effect:none;fill:#000000;fill-opacity:1;fill-rule:nonzero;stroke:none;stroke-width:9.14286;stroke-linecap:round;stroke-linejoin:round;stroke-miterlimit:4;stroke-dasharray:none;stroke-dashoffset:0;stroke-opacity:1;paint-order:stroke fill markers"
       sodipodi:type="arc"
       sodipodi:cx="-15450"
       sodipodi:cy="-744"
       sodipodi:rx="80"
       sodipodi:ry="80"
       sodipodi:start="5.4977871"
       sodipodi:end="4.712389"
       sodipodi:arc-type="chord"
       d="m -15393.431,-800.56854 a 80,80 0 0 1 9.949,101.01416 80,80 0 0 1 -97.133,29.46474 80,80 0 0 1 -47.848,-89.51759 A 80,80 0 0 1 -15450,-824 Z"
       sodipodi:open="true" />
    <path
       id="path2361-5"
       style="display:inline;vector-effect:none;fill:#000000;fill-opacity:1;fill-rule:nonzero;stroke:none;stroke-width:4;stroke-linecap:butt;stroke-linejoin:round;stroke-miterlimit:4;stroke-dasharray:none;stroke-dashoffset:0;stroke-opacity:1;paint-order:stroke fill markers"
       d="m 14160,204 v 200 h 60 v -60 c 0,-29.81424 10,-80 40,-80 h 320 c 30,0 40,50.18576 40,80 v 60 h 60 V 204 Z" />
    <path
       id="path5564"
       style="display:inline;vector-effect:none;fill:#000000;fill-opacity:1;fill-rule:nonzero;stroke:none;stroke-width:9.14286;stroke-linecap:round;stroke-linejoin:round;stroke-miterlimit:4;stroke-dasharray:none;stroke-dashoffset:0;stroke-opacity:1;paint-order:stroke fill markers"
       d="m 15340,824 v -60 h -80 V 264 h 80 v -60 h -240 v 60 h 80 v 500 h -80 v 60 z"
       sodipodi:nodetypes="ccccccccccccc" />
    <path
       id="path5568"
       style="display:inline;vector-effect:none;fill:#000000;fill-opacity:1;fill-rule:nonzero;stroke:none;stroke-width:4;stroke-linecap:butt;stroke-linejoin:round;stroke-miterlimit:4;stroke-dasharray:none;stroke-dashoffset:0;stroke-opacity:1;paint-order:stroke fill markers"
       d="m 15020,204 v 200 h 60 v -60 c 0,-29.81424 10,-80 40,-80 h 320 c 30,0 40,50.18576 40,80 v 60 h 60 V 204 Z"
       sodipodi:nodetypes="cccsssscccc" />
  </g>
</svg>
