<!-- Created with Inkscape (http://www.inkscape.org/) --><svg xmlns:dc="http://purl.org/dc/elements/1.1/" xmlns:cc="http://creativecommons.org/ns#" xmlns:rdf="http://www.w3.org/1999/02/22-rdf-syntax-ns#" xmlns:svg="http://www.w3.org/2000/svg" xmlns="http://www.w3.org/2000/svg" xmlns:xlink="http://www.w3.org/1999/xlink" xmlns:sodipodi="http://sodipodi.sourceforge.net/DTD/sodipodi-0.dtd" xmlns:inkscape="http://www.inkscape.org/namespaces/inkscape" width="1024" height="1024" viewBox="0 0 1024 1024" version="1.1" id="svg8" inkscape:version="0.92.4 (5da689c313, 2019-01-14)" sodipodi:docname="orelega.svg">
  <defs id="defs2"/>
  <sodipodi:namedview id="base" pagecolor="#ffffff" bordercolor="#666666" borderopacity="1.0" inkscape:pageopacity="0.0" inkscape:pageshadow="2" inkscape:zoom="0.17504384" inkscape:cx="1509.3565" inkscape:cy="249.79663" inkscape:document-units="px" inkscape:current-layer="layer2" showgrid="true" units="px" inkscape:pagecheckerboard="true" borderlayer="true" gridtolerance="10" inkscape:snap-smooth-nodes="true" inkscape:snap-text-baseline="true" inkscape:snap-page="true" showguides="true" inkscape:guide-bbox="true" inkscape:object-nodes="true" inkscape:object-paths="false" inkscape:snap-global="true">
    <inkscape:grid type="xygrid" id="grid4131" empspacing="4" spacingx="10" spacingy="10" color="#ffffff" opacity="0.2627451" empcolor="#ffffff" empopacity="0.62352941"/>
    <sodipodi:guide position="15825.17,820.00003" orientation="0,1" id="guide979" inkscape:locked="false"/>
    <sodipodi:guide position="8940,200" orientation="0,1" id="guide983" inkscape:locked="false"/>
    <sodipodi:guide position="11680,120" orientation="0,1" id="guide985" inkscape:locked="false"/>
    <sodipodi:guide position="0,40" orientation="0,1" id="guide987" inkscape:locked="false"/>
    <sodipodi:guide position="14960,820.00003" orientation="0,1" id="guide1028" inkscape:locked="false"/>
    <sodipodi:guide position="0,0" orientation="0,1" id="guide1030" inkscape:locked="false"/>
    <sodipodi:guide position="17640,660" orientation="0,1" id="guide1122" inkscape:locked="false"/>
    <sodipodi:guide position="4810,860" orientation="0,1" id="guide1263" inkscape:locked="false"/>
    <sodipodi:guide position="14730,430" orientation="0,1" id="guide1490" inkscape:locked="false"/>
  </sodipodi:namedview>
  <metadata id="metadata5">
    <rdf:RDF>
      <cc:Work rdf:about="">
        <dc:format>image/svg+xml</dc:format>
        <dc:type rdf:resource="http://purl.org/dc/dcmitype/StillImage"/>
        <dc:title/>
      </cc:Work>
    </rdf:RDF>
  </metadata>
  <svg:g inkscape:groupmode="layer" id="layer10" inkscape:label="Orelega Sans lower" style="display:none;opacity:0.47600002" transform="translate(0,24)">
    <svg:path style="opacity:1;vector-effect:none;fill:#000000;fill-opacity:1;fill-rule:nonzero;stroke:none;stroke-width:20;stroke-linecap:round;stroke-linejoin:round;stroke-miterlimit:4;stroke-dasharray:none;stroke-dashoffset:0;stroke-opacity:1;paint-order:stroke fill markers" d="M 290,800 H 400 V 510 C 400,400 359.80694,329.99994 232.09097,329.99994 104.375,329.99994 50,370 40,470 l 120,20 c 0,-60 20,-70 50,-70 21.75108,0 60,13.25759 60,80 v 250 z" id="path4050" inkscape:connector-curvature="0" sodipodi:nodetypes="cccsccsccc"/>
    <svg:path style="opacity:1;vector-effect:none;fill:#000000;fill-opacity:1;fill-rule:nonzero;stroke:none;stroke-width:20;stroke-linecap:round;stroke-linejoin:round;stroke-miterlimit:4;stroke-dasharray:none;stroke-dashoffset:0;stroke-opacity:1;paint-order:stroke fill markers" d="M 280,570 C 256.46327,558.23164 204.22945,549.69538 160,550 90,550.4821 30,576.68739 30,680 30,774.24354 80,811.42855 149.04663,811.42855 200,811.42855 248.80616,792.28131 280,770 v -90 c -21.86423,27.33029 -60,40 -90,40 -17.25497,0 -30,-12.79635 -30,-40 0,-40 10,-50 40,-50 20,0 58.56235,7.13741 80,20" id="path4052" inkscape:connector-curvature="0" sodipodi:nodetypes="csssccsssc"/>
    <svg:path style="opacity:1;vector-effect:none;fill:#000000;fill-opacity:1;fill-rule:nonzero;stroke:none;stroke-width:20;stroke-linecap:round;stroke-linejoin:round;stroke-miterlimit:4;stroke-dasharray:none;stroke-dashoffset:0;stroke-opacity:1;paint-order:stroke fill markers" d="m 500,180 v 620 h 90 L 630,700 V 180 Z" id="rect4054" inkscape:connector-curvature="0" sodipodi:nodetypes="cccccc"/>
    <svg:path style="opacity:1;vector-effect:none;fill:#000000;fill-opacity:1;fill-rule:nonzero;stroke:none;stroke-width:20;stroke-linecap:round;stroke-linejoin:round;stroke-miterlimit:4;stroke-dasharray:none;stroke-dashoffset:0;stroke-opacity:1;paint-order:stroke fill markers" d="m 600,700 c 20,53.35139 50,110 120,110 70,0 170,-40 170,-240 0,-200 -100,-240 -160,-240 -50,0 -90,30 -110,110 v 60 c 30,-70 45.20833,-80 70,-80 24.79167,0 70,20.10417 70,140 0,119.89583 -25.33855,160 -70,160 -44.66145,0 -60,-60 -70,-90" id="path4056" inkscape:connector-curvature="0" sodipodi:nodetypes="csssccsssc"/>
    <svg:path style="opacity:1;vector-effect:none;fill:#000000;fill-opacity:1;fill-rule:nonzero;stroke:none;stroke-width:20;stroke-linecap:round;stroke-linejoin:round;stroke-miterlimit:4;stroke-dasharray:none;stroke-dashoffset:0;stroke-opacity:1;paint-order:stroke fill markers" d="m 3280,330 c -73.8462,0 -180,19.375 -180,155 0,135.625 106.1538,155 180,155 73.8462,0 180,-19.375 180,-155 0,-135.625 -106.1538,-155 -180,-155 z m 0,90 c 21.289,0 50,5 50,75 0,70 -28.711,75 -50,75 -21.289,0 -50,-5 -50,-75 0,-70 28.711,-75 50,-75 z" id="path4061" inkscape:connector-curvature="0" sodipodi:nodetypes="ssssssssss"/>
    <svg:path style="opacity:1;vector-effect:none;fill:#000000;fill-opacity:1;fill-rule:nonzero;stroke:none;stroke-width:20;stroke-linecap:round;stroke-linejoin:round;stroke-miterlimit:4;stroke-dasharray:none;stroke-dashoffset:0;stroke-opacity:1;paint-order:stroke fill markers" d="M 1426.7051,510 C 1408.3483,354.08948 1311.6532,330 1240,330 c -80,0 -200,30 -200,240 0,210 120,240 200,240 66.6574,0 155.6719,-20.82772 181.8418,-149.25195 L 1296.8535,640.14062 C 1288.9025,713.64569 1262.0628,720 1240,720 c -27.6757,0 -70,-10 -70,-150 0,-140 42.3243,-150 70,-150 24.7621,0 54.2352,8.03884 59.1152,110 z" id="path4069" inkscape:connector-curvature="0" sodipodi:nodetypes="csssccssscc"/>
    <svg:path sodipodi:nodetypes="cccccc" inkscape:connector-curvature="0" id="path4077" d="M 2020,180 V 800 H 1910 L 1890,680 V 180 Z" style="opacity:1;vector-effect:none;fill:#000000;fill-opacity:1;fill-rule:nonzero;stroke:none;stroke-width:20;stroke-linecap:round;stroke-linejoin:round;stroke-miterlimit:4;stroke-dasharray:none;stroke-dashoffset:0;stroke-opacity:1;paint-order:stroke fill markers"/>
    <svg:path sodipodi:nodetypes="csssccsssc" inkscape:connector-curvature="0" id="path4079" d="m 1920,700 c -20,53.35139 -50,110 -120,110 -70,0 -170,-40 -170,-240 0,-200 100,-240 160,-240 50,0 90,30 110,110 v 60 c -30,-70 -45.2083,-80 -70,-80 -24.7917,0 -70,20.10417 -70,140 0,119.89583 25.3386,160 70,160 44.6615,0 60,-60 70,-90" style="opacity:1;vector-effect:none;fill:#000000;fill-opacity:1;fill-rule:nonzero;stroke:none;stroke-width:20;stroke-linecap:round;stroke-linejoin:round;stroke-miterlimit:4;stroke-dasharray:none;stroke-dashoffset:0;stroke-opacity:1;paint-order:stroke fill markers"/>
    <svg:path sodipodi:nodetypes="cssssccssscccc" inkscape:connector-curvature="0" id="path4081" d="m 2550,605 v -45 c 0,-210 -117.9224,-230 -186.8535,-230 -80,0 -200,30 -200,240 0,210 120,240 200,240 66.6574,0 155.6719,-20.82772 181.8418,-149.25195 L 2420,640.14062 C 2412.049,713.64569 2385.2093,720 2363.1465,720 c -27.6757,0 -70,-10 -70,-150 0,-140 42.3243,-150 70,-150 24.7621,0 52.1814,20 56.8535,95 h -130 v 90 z" style="opacity:1;vector-effect:none;fill:#000000;fill-opacity:1;fill-rule:nonzero;stroke:none;stroke-width:20;stroke-linecap:round;stroke-linejoin:round;stroke-miterlimit:4;stroke-dasharray:none;stroke-dashoffset:0;stroke-opacity:1;paint-order:stroke fill markers"/>
    <svg:rect style="opacity:1;vector-effect:none;fill:#000000;fill-opacity:1;fill-rule:nonzero;stroke:none;stroke-width:20;stroke-linecap:round;stroke-linejoin:round;stroke-miterlimit:4;stroke-dasharray:none;stroke-dashoffset:0;stroke-opacity:1;paint-order:stroke fill markers" id="rect4085" width="260" height="90" x="2660" y="340"/>
    <svg:path style="opacity:1;vector-effect:none;fill:#000000;fill-opacity:1;fill-rule:nonzero;stroke:none;stroke-width:20;stroke-linecap:round;stroke-linejoin:round;stroke-miterlimit:4;stroke-dasharray:none;stroke-dashoffset:0;stroke-opacity:1;paint-order:stroke fill markers" d="m 3180,580 c -70,40 -90,80 -90,110 0,50 20.2356,73.86428 100,80 l 130,10 c 39.8822,3.06786 60,20 60,60 l 110,-20 c 0,-60 -10.794,-114.0794 -170,-130 l -100,-10 c -29.8511,-2.98511 -50,-30 0,-70" id="path4088" inkscape:connector-curvature="0" sodipodi:nodetypes="csssccssc"/>
    <svg:path style="opacity:1;vector-effect:none;fill:#000000;fill-opacity:1;fill-rule:nonzero;stroke:none;stroke-width:20;stroke-linecap:round;stroke-linejoin:round;stroke-miterlimit:4;stroke-dasharray:none;stroke-dashoffset:0;stroke-opacity:1;paint-order:stroke fill markers" d="m 3380,840 c 0,30 -5,59.8912 -100,59.8912 -63.4638,0 -99.8239,-9.8912 -100,-49.8912 -0.1761,-40 20,-70 60,-80 l -80,-10 c -64.3229,30 -80,50 -80,100 0,50 39.0625,119.8912 200,119.8912 160.9375,0 210,-76.4537 210,-159.8912" id="path4090" inkscape:connector-curvature="0" sodipodi:nodetypes="cssccssc"/>
    <svg:path style="display:inline;opacity:1;vector-effect:none;fill:#000000;fill-opacity:1;fill-rule:nonzero;stroke:none;stroke-width:20;stroke-linecap:round;stroke-linejoin:round;stroke-miterlimit:4;stroke-dasharray:none;stroke-dashoffset:0;stroke-opacity:1;paint-order:stroke fill markers" d="m 3390,410 c 60,-30 90,-80 90,-130 0,-50 -30,-90 -109.3926,-104.9883 L 3350,290 c 29.1491,7.09424 40,20 40,30 0,27.6757 -10,40 -30,60 z" id="path4069-1" inkscape:connector-curvature="0" sodipodi:nodetypes="csccscc"/>
    <svg:path style="opacity:1;vector-effect:none;fill:#000000;fill-opacity:1;fill-rule:nonzero;stroke:none;stroke-width:20;stroke-linecap:round;stroke-linejoin:round;stroke-miterlimit:4;stroke-dasharray:none;stroke-dashoffset:0;stroke-opacity:1;paint-order:stroke fill markers" d="m 3670,180 v 620 h 130 V 180 Z" id="path1100" inkscape:connector-curvature="0" sodipodi:nodetypes="ccccc"/>
    <svg:path style="opacity:1;vector-effect:none;fill:#000000;fill-opacity:1;fill-rule:nonzero;stroke:none;stroke-width:20;stroke-linecap:round;stroke-linejoin:round;stroke-miterlimit:4;stroke-dasharray:none;stroke-dashoffset:0;stroke-opacity:1;paint-order:stroke fill markers" d="m 3790,510 c 20,-70 48.1228,-90 70,-90 24.7917,0 60,0.10417 60,120 v 260 h 130 V 540 c 0,-200 -90,-210 -150,-210 -42.7067,0 -90,30 -110,100.38086" id="path4109" inkscape:connector-curvature="0" sodipodi:nodetypes="cssccssc"/>
    <svg:rect style="opacity:1;vector-effect:none;fill:#000000;fill-opacity:1;fill-rule:nonzero;stroke:none;stroke-width:8;stroke-linecap:round;stroke-linejoin:round;stroke-miterlimit:4;stroke-dasharray:none;stroke-dashoffset:0;stroke-opacity:1;paint-order:stroke fill markers" id="rect1060" width="130" height="460" x="4220" y="340"/>
    <svg:rect style="opacity:1;vector-effect:none;fill:#000000;fill-opacity:1;fill-rule:nonzero;stroke:none;stroke-width:7.6861515;stroke-linecap:round;stroke-linejoin:round;stroke-miterlimit:4;stroke-dasharray:none;stroke-dashoffset:0;stroke-opacity:1;paint-order:stroke fill markers" id="rect1062" width="130" height="120.00003" x="4220" y="179.99997"/>
    <svg:rect y="179.99997" x="4500" height="120.00003" width="130" id="rect1066" style="opacity:1;vector-effect:none;fill:#000000;fill-opacity:1;fill-rule:nonzero;stroke:none;stroke-width:7.6861515;stroke-linecap:round;stroke-linejoin:round;stroke-miterlimit:4;stroke-dasharray:none;stroke-dashoffset:0;stroke-opacity:1;paint-order:stroke fill markers"/>
    <svg:path style="display:inline;opacity:1;vector-effect:none;fill:#000000;fill-opacity:1;fill-rule:nonzero;stroke:none;stroke-width:20;stroke-linecap:round;stroke-linejoin:round;stroke-miterlimit:4;stroke-dasharray:none;stroke-dashoffset:0;stroke-opacity:1;paint-order:stroke fill markers" d="M 4630,840 V 340 h -130 v 520 c 0,40 -10,50 -36.6834,50 -12.0185,0 -26.2067,-1.31222 -33.3166,-10 l -50,80 c 25.3237,14.62066 59.793,20 90,20 90,0 160,-30 160,-160 z" id="rect4083-3" inkscape:connector-curvature="0" sodipodi:nodetypes="sccssccss"/>
    <svg:path style="display:inline;opacity:1;vector-effect:none;fill:#000000;fill-opacity:1;fill-rule:nonzero;stroke:none;stroke-width:20;stroke-linecap:round;stroke-linejoin:round;stroke-miterlimit:4;stroke-dasharray:none;stroke-dashoffset:0;stroke-opacity:1;paint-order:stroke fill markers" d="m 2710,300 v 500 h 130 V 280 c 0,-40 10,-50 36.6834,-50 12.0185,0 26.2067,1.3122 33.3166,10 l 50,-80 c -25.3237,-14.6207 -59.793,-20 -90,-20 -90,0 -160,30 -160,160 z" id="rect4083-3-4" inkscape:connector-curvature="0" sodipodi:nodetypes="sccssccss"/>
    <svg:path id="path1118" d="m 4780,179.99997 v 620 h 130 v -620 z" style="opacity:1;vector-effect:none;fill:#000000;fill-opacity:1;fill-rule:nonzero;stroke:none;stroke-width:20;stroke-linecap:round;stroke-linejoin:round;stroke-miterlimit:4;stroke-dasharray:none;stroke-dashoffset:0;stroke-opacity:1;paint-order:stroke fill markers" inkscape:connector-curvature="0"/>
    <svg:path style="opacity:1;vector-effect:none;fill:#000000;fill-opacity:1;fill-rule:nonzero;stroke:none;stroke-width:8;stroke-linecap:round;stroke-linejoin:round;stroke-miterlimit:4;stroke-dasharray:none;stroke-dashoffset:0;stroke-opacity:1;paint-order:stroke fill markers" d="m 5020,340 -100,200 90,260 h 150 L 5040,520 5150,340 Z" id="path1120" inkscape:connector-curvature="0" sodipodi:nodetypes="ccccccc"/>
    <svg:path sodipodi:nodetypes="cssccssc" inkscape:connector-curvature="0" id="path1126" d="m 5390,510 c 20,-70 48.1228,-90 70,-90 24.7917,0 60.3761,0.10476 60,120 v 260 h 130 V 540 c 0,-200 -90,-210 -150,-210 -42.7067,0 -90,30 -110,100.38086" style="opacity:1;vector-effect:none;fill:#000000;fill-opacity:1;fill-rule:nonzero;stroke:none;stroke-width:20;stroke-linecap:round;stroke-linejoin:round;stroke-miterlimit:4;stroke-dasharray:none;stroke-dashoffset:0;stroke-opacity:1;paint-order:stroke fill markers"/>
    <svg:path sodipodi:nodetypes="cccccc" inkscape:connector-curvature="0" id="path4077-7" d="M 5270,800 V 340 h 110 l 20,120 v 340 z" style="display:inline;opacity:1;vector-effect:none;fill:#000000;fill-opacity:1;fill-rule:nonzero;stroke:none;stroke-width:20;stroke-linecap:round;stroke-linejoin:round;stroke-miterlimit:4;stroke-dasharray:none;stroke-dashoffset:0;stroke-opacity:1;paint-order:stroke fill markers"/>
    <svg:path style="opacity:1;vector-effect:none;fill:#000000;fill-opacity:1;fill-rule:nonzero;stroke:none;stroke-width:20;stroke-linecap:round;stroke-linejoin:round;stroke-miterlimit:4;stroke-dasharray:none;stroke-dashoffset:0;stroke-opacity:1;paint-order:stroke fill markers" d="m 5640,510 c 20,-70 48.1228,-90 70,-90 24.7917,0 60.3761,0.10476 60,120 v 260 h 130 V 540 c 0,-200 -90,-210 -150,-210 -42.7067,0 -100,30 -114.3371,110" id="path1143" inkscape:connector-curvature="0" sodipodi:nodetypes="cssccssc"/>
    <svg:path style="opacity:1;vector-effect:none;fill:#000000;fill-opacity:1;fill-rule:nonzero;stroke:none;stroke-width:20;stroke-linecap:round;stroke-linejoin:round;stroke-miterlimit:4;stroke-dasharray:none;stroke-dashoffset:0;stroke-opacity:1;paint-order:stroke fill markers" d="m 6190,330 c -80,0 -200,30 -200,240 0,210 120,240 200,240 80,0 200,-30 200,-240 0,-210 -120,-240 -200,-240 z m 0,90 c 27.6757,0 70,10 70,150 0,140 -42.3243,150 -70,150 -27.6757,0 -70,-10 -70,-150 0,-140 42.3243,-150 70,-150 z" id="path1145" inkscape:connector-curvature="0"/>
    <svg:path style="opacity:1;vector-effect:none;fill:#000000;fill-opacity:1;fill-rule:nonzero;stroke:none;stroke-width:20;stroke-linecap:round;stroke-linejoin:round;stroke-miterlimit:4;stroke-dasharray:none;stroke-dashoffset:0;stroke-opacity:1;paint-order:stroke fill markers" d="M 8126.3381,335.39425 C 8110.9991,330.88001 8095.154,330 8080,330 c -42.7067,0 -90,30 -110,100.38086 V 550 c 20,-70 48.1228,-90 70,-90 20,0 32.5129,7.15477 40,20 z" id="path1156" inkscape:connector-curvature="0" sodipodi:nodetypes="csccscc"/>
    <svg:path style="display:inline;opacity:1;vector-effect:none;fill:#000000;fill-opacity:1;fill-rule:nonzero;stroke:none;stroke-width:20;stroke-linecap:round;stroke-linejoin:round;stroke-miterlimit:4;stroke-dasharray:none;stroke-dashoffset:0;stroke-opacity:1;paint-order:stroke fill markers" d="M 7850,800 V 340 h 110 l 20,120 v 340 z" id="path1158" inkscape:connector-curvature="0" sodipodi:nodetypes="cccccc"/>
    <svg:path style="opacity:1;vector-effect:none;fill:#000000;fill-opacity:1;fill-rule:nonzero;stroke:none;stroke-width:8;stroke-linecap:round;stroke-linejoin:round;stroke-miterlimit:4;stroke-dasharray:none;stroke-dashoffset:0;stroke-opacity:1;paint-order:stroke fill markers" d="m 8440,330 c -85.594,0 -180,38.4319 -180,150 0,160 230,120 230,200 0,20 -20,30 -50,30 -30,0 -60,-20 -60,-70 l -130,20 c 0,100 80,150 190,150 85.594,0 180,-38.43188 180,-150 0,-160 -230,-120 -230,-200 0,-20 20,-30 50,-30 30,0 40,20 40,70 l 130,-20 c 0,-84.5714 -84.406,-150 -170,-150 z" id="path1160" inkscape:connector-curvature="0" sodipodi:nodetypes="ssssccssssccs"/>
    <svg:rect y="340" x="8680" height="90" width="260" id="rect1165" style="opacity:1;vector-effect:none;fill:#000000;fill-opacity:1;fill-rule:nonzero;stroke:none;stroke-width:20;stroke-linecap:round;stroke-linejoin:round;stroke-miterlimit:4;stroke-dasharray:none;stroke-dashoffset:0;stroke-opacity:1;paint-order:stroke fill markers"/>
    <svg:path sodipodi:nodetypes="scccssccss" inkscape:connector-curvature="0" id="path1167" d="M 8730,650 V 340 l 40,-100 h 90 v 430 c 0,40 10,50 36.6834,50 12.0185,0 31.7401,-6.84559 37.3166,-14 l 20,90 c -20.36,9.24492 -33.793,14 -64,14 -90,0 -160,-30 -160,-160 z" style="display:inline;opacity:1;vector-effect:none;fill:#000000;fill-opacity:1;fill-rule:nonzero;stroke:none;stroke-width:20;stroke-linecap:round;stroke-linejoin:round;stroke-miterlimit:4;stroke-dasharray:none;stroke-dashoffset:0;stroke-opacity:1;paint-order:stroke fill markers"/>
    <svg:path style="opacity:1;vector-effect:none;fill:#000000;fill-opacity:1;fill-rule:nonzero;stroke:none;stroke-width:9.46571541;stroke-linecap:round;stroke-linejoin:round;stroke-miterlimit:4;stroke-dasharray:none;stroke-dashoffset:0;stroke-opacity:1;paint-order:stroke fill markers" d="m 9640,340 140,460 h 20 l 70,-160 h 1.3047 L 9780,340 Z" id="rect1169" inkscape:connector-curvature="0"/>
    <svg:path style="opacity:1;vector-effect:none;fill:#000000;fill-opacity:1;fill-rule:nonzero;stroke:none;stroke-width:9.46571541;stroke-linecap:round;stroke-linejoin:round;stroke-miterlimit:4;stroke-dasharray:none;stroke-dashoffset:0;stroke-opacity:1;paint-order:stroke fill markers" d="m 9940,340 -140,460 h 100 l 140,-460 z" id="rect1171" inkscape:connector-curvature="0"/>
    <svg:path id="path1180" d="m 10270.57,340 116,460 h 29.715 l 58,-160 h 1.081 l -75.652,-300 z" style="opacity:1;vector-effect:none;fill:#000000;fill-opacity:1;fill-rule:nonzero;stroke:none;stroke-width:8.61625195;stroke-linecap:round;stroke-linejoin:round;stroke-miterlimit:4;stroke-dasharray:none;stroke-dashoffset:0;stroke-opacity:1;paint-order:stroke fill markers" inkscape:connector-curvature="0" sodipodi:nodetypes="ccccccc"/>
    <svg:path style="opacity:1;vector-effect:none;fill:#000000;fill-opacity:1;fill-rule:nonzero;stroke:none;stroke-width:8.61625195;stroke-linecap:round;stroke-linejoin:round;stroke-miterlimit:4;stroke-dasharray:none;stroke-dashoffset:0;stroke-opacity:1;paint-order:stroke fill markers" d="m 10532.287,340 -116,460 h 91.143 l 116,-460 z" id="rect1182" inkscape:connector-curvature="0"/>
    <svg:path inkscape:connector-curvature="0" style="opacity:1;vector-effect:none;fill:#000000;fill-opacity:1;fill-rule:nonzero;stroke:none;stroke-width:8.61625195;stroke-linecap:round;stroke-linejoin:round;stroke-miterlimit:4;stroke-dasharray:none;stroke-dashoffset:0;stroke-opacity:1;paint-order:stroke fill markers" d="m 10540.57,340 116.001,460 v 0 l 58,-160 h 1.08 L 10640,340 Z" id="path1184" sodipodi:nodetypes="ccccccc"/>
    <svg:path style="opacity:1;vector-effect:none;fill:#000000;fill-opacity:1;fill-rule:nonzero;stroke:none;stroke-width:8.61625195;stroke-linecap:round;stroke-linejoin:round;stroke-miterlimit:4;stroke-dasharray:none;stroke-dashoffset:0;stroke-opacity:1;paint-order:stroke fill markers" d="m 10772.572,340 -116,460 h 91.143 l 116,-460 z" id="rect1186" inkscape:connector-curvature="0"/>
    <svg:path id="path1191" d="m 11060,340 140,260 h 20 l 70,-84.34783 h 1.305 L 11200,340 Z" style="opacity:1;vector-effect:none;fill:#000000;fill-opacity:1;fill-rule:nonzero;stroke:none;stroke-width:7.64425468;stroke-linecap:round;stroke-linejoin:round;stroke-miterlimit:4;stroke-dasharray:none;stroke-dashoffset:0;stroke-opacity:1;paint-order:stroke fill markers" inkscape:connector-curvature="0" sodipodi:nodetypes="ccccccc"/>
    <svg:path id="path1193" d="m 11360,340 -140,260 h 100 l 140,-260 z" style="opacity:1;vector-effect:none;fill:#000000;fill-opacity:1;fill-rule:nonzero;stroke:none;stroke-width:7.64425468;stroke-linecap:round;stroke-linejoin:round;stroke-miterlimit:4;stroke-dasharray:none;stroke-dashoffset:0;stroke-opacity:1;paint-order:stroke fill markers" inkscape:connector-curvature="0" sodipodi:nodetypes="ccccc"/>
    <svg:path inkscape:connector-curvature="0" style="opacity:1;vector-effect:none;fill:#000000;fill-opacity:1;fill-rule:nonzero;stroke:none;stroke-width:7.64425468;stroke-linecap:round;stroke-linejoin:round;stroke-miterlimit:4;stroke-dasharray:none;stroke-dashoffset:0;stroke-opacity:1;paint-order:stroke fill markers" d="m 11460,800 -140,-260 h -20 l -70,84.34783 h -1.305 L 11320,800 Z" id="path1195" sodipodi:nodetypes="ccccccc"/>
    <svg:path inkscape:connector-curvature="0" style="opacity:1;vector-effect:none;fill:#000000;fill-opacity:1;fill-rule:nonzero;stroke:none;stroke-width:7.64425468;stroke-linecap:round;stroke-linejoin:round;stroke-miterlimit:4;stroke-dasharray:none;stroke-dashoffset:0;stroke-opacity:1;paint-order:stroke fill markers" d="m 11160,800 140,-260 h -100 l -140,260 z" id="path1197" sodipodi:nodetypes="ccccc"/>
    <svg:path style="opacity:1;vector-effect:none;fill:#000000;fill-opacity:1;fill-rule:nonzero;stroke:none;stroke-width:9.46571541;stroke-linecap:round;stroke-linejoin:round;stroke-miterlimit:4;stroke-dasharray:none;stroke-dashoffset:0;stroke-opacity:1;paint-order:stroke fill markers" d="m 11640,340 164.348,540 66.957,-240 L 11780,340 Z" id="path1199" inkscape:connector-curvature="0"/>
    <svg:path style="opacity:1;vector-effect:none;fill:#000000;fill-opacity:1;fill-rule:nonzero;stroke:none;stroke-width:9.46571541;stroke-linecap:round;stroke-linejoin:round;stroke-miterlimit:4;stroke-dasharray:none;stroke-dashoffset:0;stroke-opacity:1;paint-order:stroke fill markers" d="m 12040,340 h -100 l -152.174,500 c -6.754,22.19185 -18.028,40 -47.826,40 -24.64,0 -40,0 -60,-20 l -40,120 c 30,20 64.231,20 94.438,20 60,0 117.062,-40.64876 147.3,-140 z" id="path1201" inkscape:connector-curvature="0" sodipodi:nodetypes="ccssccssc"/>
    <svg:path style="display:inline;opacity:1;vector-effect:none;fill:#000000;fill-opacity:1;fill-rule:nonzero;stroke:none;stroke-width:8.30745792;stroke-linecap:round;stroke-linejoin:round;stroke-miterlimit:4;stroke-dasharray:none;stroke-dashoffset:0;stroke-opacity:1;paint-order:stroke fill markers" d="m 12150.783,340 v 90 H 12400 v -90 z" id="rect1229" inkscape:connector-curvature="0"/>
    <svg:path style="display:inline;opacity:1;vector-effect:none;fill:#000000;fill-opacity:1;fill-rule:nonzero;stroke:none;stroke-width:8.30745792;stroke-linecap:round;stroke-linejoin:round;stroke-miterlimit:4;stroke-dasharray:none;stroke-dashoffset:0;stroke-opacity:1;paint-order:stroke fill markers" d="m 12192.821,710 v 90 H 12460 v -90 z" id="rect1231" inkscape:connector-curvature="0" sodipodi:nodetypes="ccccc"/>
    <svg:path style="display:inline;opacity:1;vector-effect:none;fill:#000000;fill-opacity:1;fill-rule:nonzero;stroke:none;stroke-width:8.30745792;stroke-linecap:round;stroke-linejoin:round;stroke-miterlimit:4;stroke-dasharray:none;stroke-dashoffset:0;stroke-opacity:1;paint-order:stroke fill markers" d="M 12377.235,340 12140,721.05078 V 800 h 71.981 L 12460,401.62891 V 340 Z" id="rect1233" inkscape:connector-curvature="0" sodipodi:nodetypes="ccccccc"/>
  </svg:g>
</svg>