<?xml version="1.0" encoding="UTF-8" standalone="no"?>
<!-- Created with Inkscape (http://www.inkscape.org/) -->

<svg
   xmlns:dc="http://purl.org/dc/elements/1.1/"
   xmlns:cc="http://creativecommons.org/ns#"
   xmlns:rdf="http://www.w3.org/1999/02/22-rdf-syntax-ns#"
   xmlns:svg="http://www.w3.org/2000/svg"
   xmlns="http://www.w3.org/2000/svg"
   xmlns:xlink="http://www.w3.org/1999/xlink"
   xmlns:sodipodi="http://sodipodi.sourceforge.net/DTD/sodipodi-0.dtd"
   xmlns:inkscape="http://www.inkscape.org/namespaces/inkscape"
   width="1024"
   height="1024"
   viewBox="0 0 1024 1024"
   version="1.1"
   id="svg8"
   inkscape:version="0.92.4 (5da689c313, 2019-01-14)"
   sodipodi:docname="Orelega upper cyrillic.svg"
   inkscape:export-filename="D:\Documents\Orelega\svg\Orelega cyrillic draft.png"
   inkscape:export-xdpi="24"
   inkscape:export-ydpi="24">
  <defs
     id="defs2" />
  <sodipodi:namedview
     id="base"
     pagecolor="#ffffff"
     bordercolor="#666666"
     borderopacity="1.0"
     inkscape:pageopacity="0.0"
     inkscape:pageshadow="2"
     inkscape:zoom="0.095119042"
     inkscape:cx="6558.1548"
     inkscape:cy="-1146.3169"
     inkscape:document-units="px"
     inkscape:current-layer="layer8"
     showgrid="false"
     units="px"
     inkscape:pagecheckerboard="false"
     borderlayer="true"
     gridtolerance="10"
     inkscape:snap-smooth-nodes="true"
     inkscape:snap-text-baseline="true"
     inkscape:snap-page="true"
     showguides="false"
     inkscape:guide-bbox="true"
     inkscape:object-nodes="true"
     inkscape:object-paths="false"
     inkscape:snap-global="true"
     inkscape:snap-intersection-paths="false"
     inkscape:lockguides="false"
     showborder="false"
     inkscape:snap-center="true">
    <inkscape:grid
       type="xygrid"
       id="grid4131"
       empspacing="4"
       spacingx="10"
       spacingy="10"
       color="#ffffff"
       opacity="0.2627451"
       empcolor="#ffffff"
       empopacity="0.62352941" />
    <sodipodi:guide
       position="15825.17,820.00003"
       orientation="0,1"
       id="guide979"
       inkscape:locked="false" />
    <sodipodi:guide
       position="13510,200"
       orientation="0,1"
       id="guide983"
       inkscape:locked="false" />
    <sodipodi:guide
       position="13120,120"
       orientation="0,1"
       id="guide985"
       inkscape:locked="false" />
    <sodipodi:guide
       position="0,40"
       orientation="0,1"
       id="guide987"
       inkscape:locked="false" />
    <sodipodi:guide
       position="2710,820.00003"
       orientation="0,1"
       id="guide1028"
       inkscape:locked="false" />
    <sodipodi:guide
       position="0,0"
       orientation="0,1"
       id="guide1030"
       inkscape:locked="false" />
    <sodipodi:guide
       position="17640,660"
       orientation="0,1"
       id="guide1122"
       inkscape:locked="false" />
    <sodipodi:guide
       position="4810,860"
       orientation="0,1"
       id="guide1263"
       inkscape:locked="false" />
    <sodipodi:guide
       position="9200,520"
       orientation="0,1"
       id="guide1490"
       inkscape:locked="false" />
    <sodipodi:guide
       position="280,440"
       orientation="0,1"
       id="guide1871"
       inkscape:locked="false" />
    <sodipodi:guide
       position="7220,740"
       orientation="0.89043443,-0.45511155"
       id="guide2166"
       inkscape:locked="false" />
  </sodipodi:namedview>
  <metadata
     id="metadata5">
    <rdf:RDF>
      <cc:Work
         rdf:about="">
        <dc:format>image/svg+xml</dc:format>
        <dc:type
           rdf:resource="http://purl.org/dc/dcmitype/StillImage" />
        <dc:title />
      </cc:Work>
    </rdf:RDF>
  </metadata>
  <g
     inkscape:groupmode="layer"
     id="layer8"
     inkscape:label="Orelega Upper cyrillic"
     style="display:inline">
    <path
       style="display:inline;opacity:1;vector-effect:none;fill:#000000;fill-opacity:1;fill-rule:nonzero;stroke:none;stroke-width:9.23760414;stroke-linecap:round;stroke-linejoin:round;stroke-miterlimit:4;stroke-dasharray:none;stroke-dashoffset:0;stroke-opacity:1;paint-order:stroke fill markers"
       d="m 156.88672,504 v 80 H 280 c 97.7518,0 130,20 130,80 0,60 -30.3992,80 -110,80 H 0 v 80 h 260 c 170,0 225.424,-2.93072 274,-41.63086 C 567.9756,755.30104 590,714 590,654 590,534 468.951,504 280,504 Z"
       id="path1621-1"
       inkscape:connector-curvature="0"
       sodipodi:nodetypes="ccsssccssssc" />
    <path
       style="display:inline;opacity:1;vector-effect:none;fill:#000000;fill-opacity:1;fill-rule:nonzero;stroke:none;stroke-width:9.23760414;stroke-linecap:round;stroke-linejoin:round;stroke-miterlimit:4;stroke-dasharray:none;stroke-dashoffset:0;stroke-opacity:1;paint-order:stroke fill markers"
       d="M 80,284 V 744 H 240 V 284 Z"
       id="path1614-9"
       inkscape:connector-curvature="0" />
    <path
       style="display:inline;opacity:1;vector-effect:none;fill:#000000;fill-opacity:1;fill-rule:nonzero;stroke:none;stroke-width:9.23760414;stroke-linecap:round;stroke-linejoin:round;stroke-miterlimit:4;stroke-dasharray:none;stroke-dashoffset:0;stroke-opacity:1;paint-order:stroke fill markers"
       d="m 0,284 h 430 c 30,0 40,50.18576 40,80 v 40 h 90 V 204 H 0"
       id="path1593-6-4"
       inkscape:connector-curvature="0"
       sodipodi:nodetypes="csscccc" />
    <path
       style="display:inline;opacity:1;vector-effect:none;fill:#000000;fill-opacity:1;fill-rule:nonzero;stroke:none;stroke-width:9.23760414;stroke-linecap:round;stroke-linejoin:round;stroke-miterlimit:4;stroke-dasharray:none;stroke-dashoffset:0;stroke-opacity:1;paint-order:stroke fill markers"
       d="m 630,204 v 80 h 80 v 460 h -80 v 80 h 380 V 744 H 870 V 284 h 170 c 30,0 40,50.18576 40,80 v 40 h 90 V 204 Z"
       id="path1593-5"
       inkscape:connector-curvature="0" />
    <path
       style="display:inline;opacity:1;vector-effect:none;fill:#000000;fill-opacity:1;fill-rule:nonzero;stroke:none;stroke-width:9.23760414;stroke-linecap:round;stroke-linejoin:round;stroke-miterlimit:4;stroke-dasharray:none;stroke-dashoffset:0;stroke-opacity:1;paint-order:stroke fill markers"
       d="m 1280,204 v 80 h 80 v 100 c 0,106.66667 -10,240 -60,360 h -80 v 200 h 90 v -40 c 0,-29.81423 10,-80 40,-80 h 400 c 30,0 40,50.18578 40,80 v 40 h 90 V 744 h -80 V 204 Z m 200,80 h 160 v 460 h -210 c 40,-90 50,-210 50,-360 z"
       id="path1560-6"
       inkscape:connector-curvature="0"
       sodipodi:nodetypes="cccsccccssssccccccccccsc" />
    <path
       inkscape:connector-curvature="0"
       style="display:inline;opacity:1;vector-effect:none;fill:#000000;fill-opacity:1;fill-rule:nonzero;stroke:none;stroke-width:9.23760414;stroke-linecap:round;stroke-linejoin:round;stroke-miterlimit:4;stroke-dasharray:none;stroke-dashoffset:0;stroke-opacity:1;paint-order:stroke fill markers"
       d="m 2350,204 v 80 h 50 v 460 h -80 v 80 h 320 v -80 h -80 V 284 h 50 v -80 z"
       id="path1683-5"
       sodipodi:nodetypes="ccccccccccccc" />
    <use
       x="0"
       y="0"
       xlink:href="#g1936"
       id="use1938"
       transform="matrix(-1,0,0,1,4960,0)"
       width="100%"
       height="100%" />
    <g
       id="g1936">
      <path
         style="display:inline;opacity:1;vector-effect:none;fill:#000000;fill-opacity:1;fill-rule:nonzero;stroke:none;stroke-width:10.72095108;stroke-linecap:round;stroke-linejoin:round;stroke-miterlimit:4;stroke-dasharray:none;stroke-dashoffset:0;stroke-opacity:1;paint-order:stroke fill markers"
         d="m 2520,504 v 80 h 120 v -80 z"
         id="path1123-1-4"
         inkscape:connector-curvature="0" />
      <path
         style="display:inline;opacity:1;vector-effect:none;fill:#000000;fill-opacity:1;fill-rule:nonzero;stroke:none;stroke-width:8;stroke-linecap:round;stroke-linejoin:round;stroke-miterlimit:4;stroke-dasharray:none;stroke-dashoffset:0;stroke-opacity:1;paint-order:stroke fill markers"
         d="m 2640,534 c 110,0 191.5385,10 210,130 7.7534,50.39721 10,90 26.875,90 23.273,0 27.838,-50.32419 32.603,-90 L 2980,671.21355 C 2970.625,761.21355 2961.25,834 2848.75,834 2736.25,834 2713.199,782.51564 2680,664 c -16.672,-59.51652 -30,-80 -80,-80"
         id="path1854-3"
         inkscape:connector-curvature="0"
         sodipodi:nodetypes="cssccssc" />
      <path
         style="display:inline;opacity:1;vector-effect:none;fill:#000000;fill-opacity:1;fill-rule:nonzero;stroke:none;stroke-width:8;stroke-linecap:round;stroke-linejoin:round;stroke-miterlimit:4;stroke-dasharray:none;stroke-dashoffset:0;stroke-opacity:1;paint-order:stroke fill markers"
         d="m 2810,194 c -50,0 -82.6941,11.62354 -110,30 -29.9125,20.13064 -52.7928,62.06414 -60,122.1 -10.7348,89.42036 -22.7524,156.93844 -60,157.9 l 30,50 c 100,0 170,-67.9 180,-207.9 3.6329,-50.86061 21.5788,-80 53.1119,-80 24.5898,0 46.6612,18.18863 40.8881,50 -44.1828,0 -80,35.81722 -80,80 0,44.18278 35.8172,80 80,80 44.1828,0 89,-30 89,-110 0,-79.86899 -22.9994,-122.89398 -56.9531,-145.08047 C 2890.0006,204 2860,194 2810,194 Z"
         id="path1751-3"
         inkscape:connector-curvature="0"
         sodipodi:nodetypes="sssccsscsssss" />
    </g>
    <circle
       r="80"
       cy="394"
       cx="3120"
       style="display:inline;opacity:1;vector-effect:none;fill:#000000;fill-opacity:1;fill-rule:nonzero;stroke:none;stroke-width:8;stroke-linecap:round;stroke-linejoin:round;stroke-miterlimit:4;stroke-dasharray:none;stroke-dashoffset:0;stroke-opacity:1;paint-order:stroke fill markers"
       id="circle2160-0" />
    <path
       sodipodi:nodetypes="csssccssc"
       inkscape:connector-curvature="0"
       id="path2162-7"
       d="M 3050.718,434 C 3039.247,414.13204 3034,392.87351 3034,371.52477 3034,283.52875 3127.096,194 3280,194 c 190,0 250,80 250,190 0,130 -130,170 -210,170 l -90,-50 c 100,0 130,-59.55226 130,-110 0,-70 -30,-120 -120,-120 -70,0 -140,60 -120,130"
       style="display:inline;opacity:1;vector-effect:none;fill:#000000;fill-opacity:1;fill-rule:nonzero;stroke:none;stroke-width:8;stroke-linecap:round;stroke-linejoin:round;stroke-miterlimit:4;stroke-dasharray:none;stroke-dashoffset:0;stroke-opacity:1;paint-order:stroke fill markers" />
    <circle
       id="circle2164-0"
       style="display:inline;opacity:1;vector-effect:none;fill:#000000;fill-opacity:1;fill-rule:nonzero;stroke:none;stroke-width:8;stroke-linecap:round;stroke-linejoin:round;stroke-miterlimit:4;stroke-dasharray:none;stroke-dashoffset:0;stroke-opacity:1;paint-order:stroke fill markers"
       cx="3120"
       cy="-664"
       r="80"
       transform="scale(1,-1)" />
    <path
       style="display:inline;opacity:1;vector-effect:none;fill:#000000;fill-opacity:1;fill-rule:nonzero;stroke:none;stroke-width:8;stroke-linecap:round;stroke-linejoin:round;stroke-miterlimit:4;stroke-dasharray:none;stroke-dashoffset:0;stroke-opacity:1;paint-order:stroke fill markers"
       d="M 3050.718,624 C 3039.247,643.86796 3034,665.12649 3034,686.47523 3034,774.47125 3127.096,834 3280,834 c 200,0 260,-70 260,-160 0,-100 -100,-136 -220,-136 l -90,-34 v 80 c 100,0 140,29.55226 140,80 0,70 -50,90 -130,90 -70,0 -120,-20 -120,-70"
       id="path2166-9"
       inkscape:connector-curvature="0"
       sodipodi:nodetypes="cssscccssc" />
    <path
       style="display:inline;opacity:1;vector-effect:none;fill:#000000;fill-opacity:1;fill-rule:nonzero;stroke:none;stroke-width:9.23760414;stroke-linecap:round;stroke-linejoin:round;stroke-miterlimit:4;stroke-dasharray:none;stroke-dashoffset:0;stroke-opacity:1;paint-order:stroke fill markers"
       d="m 3600,204 v 80 h 80 v 460 h -80 v 80 h 228.7559 L 4060,423.47266 V 744 h -80 v 80 h 320 v -80 h -80 V 284 h 80 V 204 H 4071.2441 L 3840,604.52734 V 284 h 80 v -80 z"
       id="path1560-0"
       inkscape:connector-curvature="0" />
    <path
       sodipodi:nodetypes="ccccccccccccc"
       id="use2043"
       d="m 4360,204 v 80 h 80 v 460 h -80 v 80 h 320 v -80 h -80 V 284 h 50 v -80 z"
       style="display:inline;opacity:1;vector-effect:none;fill:#000000;fill-opacity:1;fill-rule:nonzero;stroke:none;stroke-width:9.23760414;stroke-linecap:round;stroke-linejoin:round;stroke-miterlimit:4;stroke-dasharray:none;stroke-dashoffset:0;stroke-opacity:1;paint-order:stroke fill markers"
       inkscape:connector-curvature="0" />
    <use
       x="0"
       y="0"
       xlink:href="#g1936"
       id="use2045"
       transform="translate(2040)"
       width="100%"
       height="100%" />
    <path
       style="display:inline;opacity:1;vector-effect:none;fill:#000000;fill-opacity:1;fill-rule:nonzero;stroke:none;stroke-width:9.23760414;stroke-linecap:round;stroke-linejoin:round;stroke-miterlimit:4;stroke-dasharray:none;stroke-dashoffset:0;stroke-opacity:1;paint-order:stroke fill markers"
       d="m 5200,204 v 80 h 340 v 460 h -80 v 80 h 320 v -80 h -80 V 284 h 80 v -80 z"
       id="path2079"
       inkscape:connector-curvature="0" />
    <circle
       transform="scale(-1)"
       id="path1116-4-55"
       style="display:inline;opacity:1;vector-effect:none;fill:#000000;fill-opacity:1;fill-rule:nonzero;stroke:none;stroke-width:9.14285755;stroke-linecap:round;stroke-linejoin:round;stroke-miterlimit:4;stroke-dasharray:none;stroke-dashoffset:0;stroke-opacity:1;paint-order:stroke fill markers"
       cx="-5164"
       cy="-664"
       r="80" />
    <path
       style="display:inline;opacity:1;vector-effect:none;fill:#000000;fill-opacity:1;fill-rule:nonzero;stroke:none;stroke-width:9.23760414;stroke-linecap:round;stroke-linejoin:round;stroke-miterlimit:4;stroke-dasharray:none;stroke-dashoffset:0;stroke-opacity:1;paint-order:stroke fill markers"
       d="m 5840,204 v 80 h 80 v 460 h -80 v 80 h 320 v -80 h -80 V 284 h 220 v 460 h -80 v 80 h 320 v -80 h -80 V 284 h 80 v -80 z"
       id="path1560-01"
       inkscape:connector-curvature="0" />
    <path
       id="path1984-3"
       d="m 6600.0007,203.99999 v 80 h 320 v -80 z m 400,0 v 80 h 270 v -80 z"
       style="display:inline;opacity:1;vector-effect:none;fill:#000000;fill-opacity:1;fill-rule:nonzero;stroke:none;stroke-width:9.23760414;stroke-linecap:round;stroke-linejoin:round;stroke-miterlimit:4;stroke-dasharray:none;stroke-dashoffset:0;stroke-opacity:1;paint-order:stroke fill markers"
       inkscape:connector-curvature="0"
       sodipodi:nodetypes="cccccccccc" />
    <path
       style="display:inline;opacity:1;vector-effect:none;fill:#000000;fill-opacity:1;fill-rule:nonzero;stroke:none;stroke-width:7.30296755;stroke-linecap:round;stroke-linejoin:round;stroke-miterlimit:4;stroke-dasharray:none;stroke-dashoffset:0;stroke-opacity:1;paint-order:stroke fill markers"
       d="m 6650,284 234.0901,441.99794 120,-120 L 7220,284 h -100 l -105.9099,207.21474 c -7.239,14.16341 -17.6345,35.67829 -30,64.7832 -11.9751,-29.26767 -22.093,-49.31322 -30,-64.7832 L 6840,284 Z"
       id="path1940-6"
       inkscape:connector-curvature="0"
       sodipodi:nodetypes="cccccccccc" />
    <path
       style="opacity:0.98000004;vector-effect:none;fill:#000000;fill-opacity:1;fill-rule:nonzero;stroke:none;stroke-width:4;stroke-linecap:butt;stroke-linejoin:miter;stroke-miterlimit:4;stroke-dasharray:none;stroke-dashoffset:0;stroke-opacity:1;paint-order:stroke fill markers"
       d="m 7180,284 -280,400 c -34.641,60 -50,70 -110,70 -65.2505,0 -90,-27.59763 -90,-90 l -65.282,-40 c -7.0005,12.1252 -14.718,40 -14.718,60 0,101.5058 87.3336,151.5907 170,150 100.0532,-1.92526 170,-41.30504 276.6665,-250 L 7220,284 Z"
       id="rect2158"
       inkscape:connector-curvature="0"
       sodipodi:nodetypes="ccsccssscc" />
    <circle
       style="display:inline;opacity:1;vector-effect:none;fill:#000000;fill-opacity:1;fill-rule:nonzero;stroke:none;stroke-width:9.14285755;stroke-linecap:round;stroke-linejoin:round;stroke-miterlimit:4;stroke-dasharray:none;stroke-dashoffset:0;stroke-opacity:1;paint-order:stroke fill markers"
       id="circle2161"
       transform="scale(-1)"
       inkscape:transform-center-y="-5.4101763"
       cx="-6704"
       cy="-664"
       r="80" />
    <path
       style="display:inline;opacity:1;vector-effect:none;fill:#000000;fill-opacity:1;fill-rule:nonzero;stroke:none;stroke-width:9.23760414;stroke-linecap:round;stroke-linejoin:round;stroke-miterlimit:4;stroke-dasharray:none;stroke-dashoffset:0;stroke-opacity:1;paint-order:stroke fill markers"
       d="m 7950,524 c 0,-150 -110,-180 -250,-180 h -20 v 80 h 20 c 50,0 70,40 70,100 z"
       id="path2210"
       inkscape:connector-curvature="0"
       sodipodi:nodetypes="csccscc" />
    <path
       style="display:inline;opacity:1;vector-effect:none;fill:#000000;fill-opacity:1;fill-rule:nonzero;stroke:none;stroke-width:9.23760414;stroke-linecap:round;stroke-linejoin:round;stroke-miterlimit:4;stroke-dasharray:none;stroke-dashoffset:0;stroke-opacity:1;paint-order:stroke fill markers"
       d="m 7440.002,204 v 80 H 7520 v 460 h -79.998 v 80 h 340 V 744 H 7680 V 284 h 100.002 v -80 z"
       id="path2208"
       inkscape:connector-curvature="0" />
    <path
       style="display:inline;opacity:1;vector-effect:none;fill:#000000;fill-opacity:1;fill-rule:nonzero;stroke:none;stroke-width:9.23760414;stroke-linecap:round;stroke-linejoin:round;stroke-miterlimit:4;stroke-dasharray:none;stroke-dashoffset:0;stroke-opacity:1;paint-order:stroke fill markers"
       d="M 7680,624 V 404"
       id="path1614-8-5-9"
       inkscape:connector-curvature="0" />
    <use
       x="0"
       y="0"
       xlink:href="#path2210"
       id="use2214"
       transform="matrix(1,0,0,-1,0,1048)"
       width="100%"
       height="100%" />
    <use
       height="100%"
       width="100%"
       transform="rotate(-180,7600,524)"
       id="use2216"
       xlink:href="#path2210"
       y="0"
       x="0" />
    <use
       x="0"
       y="0"
       xlink:href="#path2210"
       id="use2218"
       transform="matrix(-1,0,0,1,15200,0)"
       width="100%"
       height="100%" />
    <path
       style="display:inline;opacity:1;vector-effect:none;fill:#000000;fill-opacity:1;fill-rule:nonzero;stroke:none;stroke-width:9.23760414;stroke-linecap:round;stroke-linejoin:round;stroke-miterlimit:4;stroke-dasharray:none;stroke-dashoffset:0;stroke-opacity:1;paint-order:stroke fill markers"
       d="m 8040,204 v 80 h 80 v 460 h -80 v 80 h 570 c 30,0 40,50 40,80 v 40 h 90 V 744 h -80 V 284 h 80 v -80 h -320 v 80 h 80 V 744 H 8280 V 284 h 80 v -80 z"
       id="path2220"
       inkscape:connector-curvature="0"
       sodipodi:nodetypes="ccccccsscccccccccccccccc" />
    <path
       sodipodi:nodetypes="csscscscc"
       inkscape:connector-curvature="0"
       id="path1829-6-8"
       d="m 9300,504 c -24.1154,90 -90,160 -200,160 -180,0 -220,-90.00003 -220,-250.00003 v -130 h 160 v 130 c 0,120.00003 30,160 100,160 60,0 120,-79.99997 120,-179.99997 z"
       style="display:inline;opacity:1;vector-effect:none;fill:#000000;fill-opacity:1;fill-rule:nonzero;stroke:none;stroke-width:8;stroke-linecap:round;stroke-linejoin:round;stroke-miterlimit:4;stroke-dasharray:none;stroke-dashoffset:0;stroke-opacity:1;paint-order:stroke fill markers" />
    <path
       style="display:inline;opacity:1;vector-effect:none;fill:#000000;fill-opacity:1;fill-rule:nonzero;stroke:none;stroke-width:9.23760414;stroke-linecap:round;stroke-linejoin:round;stroke-miterlimit:4;stroke-dasharray:none;stroke-dashoffset:0;stroke-opacity:1;paint-order:stroke fill markers"
       d="m 8800,203.99997 v 80 h 320 v -80 z m 380,0 v 80 h 320 v -80 z"
       id="path1560-2-0"
       inkscape:connector-curvature="0"
       sodipodi:nodetypes="cccccccccc" />
    <path
       inkscape:connector-curvature="0"
       id="path2244"
       d="m 9420,283.99997 v 460 h 80 v 80 h -380 v -80 h 140 v -460 z"
       style="display:inline;opacity:1;vector-effect:none;fill:#000000;fill-opacity:1;fill-rule:nonzero;stroke:none;stroke-width:9.23760414;stroke-linecap:round;stroke-linejoin:round;stroke-miterlimit:4;stroke-dasharray:none;stroke-dashoffset:0;stroke-opacity:1;paint-order:stroke fill markers"
       sodipodi:nodetypes="ccccccccc" />
    <path
       style="display:inline;opacity:1;vector-effect:none;fill:#000000;fill-opacity:1;fill-rule:nonzero;stroke:none;stroke-width:9.23760414;stroke-linecap:round;stroke-linejoin:round;stroke-miterlimit:4;stroke-dasharray:none;stroke-dashoffset:0;stroke-opacity:1;paint-order:stroke fill markers"
       d="m 9600,204 v 80 h 80 v 460 h -80 v 80 h 1080 v -80 h -80 V 284 h 80 v -80 h -320 v 80 h 80 v 460 h -220 V 284 h 80 v -80 h -320 v 80 h 80 V 744 H 9840 V 284 h 80 v -80 z"
       id="path2247"
       inkscape:connector-curvature="0" />
    <path
       style="display:inline;opacity:1;vector-effect:none;fill:#000000;fill-opacity:1;fill-rule:nonzero;stroke:none;stroke-width:9.23760414;stroke-linecap:round;stroke-linejoin:round;stroke-miterlimit:4;stroke-dasharray:none;stroke-dashoffset:0;stroke-opacity:1;paint-order:stroke fill markers"
       d="m 10760,204 v 80 h 80 v 460 h -80 v 80 h 950 c 30,0 40,50 40,80 v 40 h 90 V 824 744 h -80 V 284 h 80 v -80 h -320 v 80 h 80 v 460 h -220 V 284 h 80 v -80 h -320 v 80 h 80 v 460 h -220 V 284 h 80 v -80 z"
       id="path2252"
       inkscape:connector-curvature="0"
       sodipodi:nodetypes="ccccccssccccccccccccccccccccccccc" />
    <g
       id="g2294">
      <path
         sodipodi:nodetypes="ccsssccssssc"
         inkscape:connector-curvature="0"
         id="path1621-1-5"
         d="m 12160,504 v 80 h 123.113 c 97.752,0 130,20 130,80 0,60 -30.399,80 -110,80 h -300 v 80 h 260 c 170,0 225.424,-2.93072 274,-41.63086 33.976,-27.0681 56,-68.36914 56,-128.36914 0,-120 -121.049,-150 -310,-150 z"
         style="display:inline;opacity:1;vector-effect:none;fill:#000000;fill-opacity:1;fill-rule:nonzero;stroke:none;stroke-width:9.23760414;stroke-linecap:round;stroke-linejoin:round;stroke-miterlimit:4;stroke-dasharray:none;stroke-dashoffset:0;stroke-opacity:1;paint-order:stroke fill markers" />
      <path
         inkscape:connector-curvature="0"
         id="path1614-9-3"
         d="m 12083.113,284 v 460 h 160 V 284 Z"
         style="display:inline;opacity:1;vector-effect:none;fill:#000000;fill-opacity:1;fill-rule:nonzero;stroke:none;stroke-width:9.23760414;stroke-linecap:round;stroke-linejoin:round;stroke-miterlimit:4;stroke-dasharray:none;stroke-dashoffset:0;stroke-opacity:1;paint-order:stroke fill markers" />
    </g>
    <path
       style="display:inline;opacity:1;vector-effect:none;fill:#000000;fill-opacity:1;fill-rule:nonzero;stroke:none;stroke-width:9.23760414;stroke-linecap:round;stroke-linejoin:round;stroke-miterlimit:4;stroke-dasharray:none;stroke-dashoffset:0;stroke-opacity:1;paint-order:stroke fill markers"
       d="m 12340,284 h -340 c -30,0 -40,50.18576 -40,80 v 40 h -90 V 204 h 470 z"
       id="path1593-6-4-5"
       inkscape:connector-curvature="0"
       sodipodi:nodetypes="cssccccc" />
    <use
       x="0"
       y="0"
       xlink:href="#g2294"
       id="use2296"
       transform="translate(676.887)"
       width="100%"
       height="100%" />
    <rect
       style="opacity:0.98000004;vector-effect:none;fill:#000000;fill-opacity:1;fill-rule:nonzero;stroke:none;stroke-width:4;stroke-linecap:butt;stroke-linejoin:miter;stroke-miterlimit:4;stroke-dasharray:none;stroke-dashoffset:0;stroke-opacity:1;paint-order:stroke fill markers"
       id="rect2298"
       width="340"
       height="80.000031"
       x="12680"
       y="203.99997" />
    <use
       height="100%"
       width="100%"
       transform="translate(1676.887)"
       id="use2300"
       xlink:href="#g2294"
       y="0"
       x="0" />
    <rect
       y="203.99997"
       x="13680"
       height="80.000031"
       width="340"
       id="rect2302"
       style="opacity:0.98000004;vector-effect:none;fill:#000000;fill-opacity:1;fill-rule:nonzero;stroke:none;stroke-width:4;stroke-linecap:butt;stroke-linejoin:miter;stroke-miterlimit:4;stroke-dasharray:none;stroke-dashoffset:0;stroke-opacity:1;paint-order:stroke fill markers" />
    <path
       style="display:inline;opacity:1;vector-effect:none;fill:#000000;fill-opacity:1;fill-rule:nonzero;stroke:none;stroke-width:9.23760414;stroke-linecap:round;stroke-linejoin:round;stroke-miterlimit:4;stroke-dasharray:none;stroke-dashoffset:0;stroke-opacity:1;paint-order:stroke fill markers"
       d="m 13320,203.99997 v 80 h 80 v 460 h -80 v 80 h 320 v -80 h -80 v -460 h 80 v -80 z"
       id="rect1553-1"
       inkscape:connector-curvature="0" />
    <path
       style="color:#000000;font-style:normal;font-variant:normal;font-weight:normal;font-stretch:normal;font-size:medium;line-height:normal;font-family:sans-serif;font-variant-ligatures:normal;font-variant-position:normal;font-variant-caps:normal;font-variant-numeric:normal;font-variant-alternates:normal;font-feature-settings:normal;text-indent:0;text-align:start;text-decoration:none;text-decoration-line:none;text-decoration-style:solid;text-decoration-color:#000000;letter-spacing:normal;word-spacing:normal;text-transform:none;writing-mode:lr-tb;direction:ltr;text-orientation:mixed;dominant-baseline:auto;baseline-shift:baseline;text-anchor:start;white-space:normal;shape-padding:0;clip-rule:nonzero;display:inline;overflow:visible;visibility:visible;opacity:1;isolation:auto;mix-blend-mode:normal;color-interpolation:sRGB;color-interpolation-filters:linearRGB;solid-color:#000000;solid-opacity:1;vector-effect:none;fill:#000000;fill-opacity:1;fill-rule:nonzero;stroke:none;stroke-width:160;stroke-linecap:round;stroke-linejoin:round;stroke-miterlimit:4;stroke-dasharray:none;stroke-dashoffset:0;stroke-opacity:1;paint-order:stroke fill markers;color-rendering:auto;image-rendering:auto;shape-rendering:auto;text-rendering:auto;enable-background:accumulate"
       d="M 5087.6328,640.16797 C 5083.3164,654 5080,673.11093 5080,694 c 0,80 50,140 150,140 130,0 170,-80 170,-450 V 264 h -100 v 120 c 0,320 -30,360 -70,360 -40,0 -70,-20 -70,-50"
       id="path874"
       inkscape:connector-curvature="0"
       sodipodi:nodetypes="ccssccssc" />
  </g>
</svg>
