<!-- Created with Inkscape (http://www.inkscape.org/) --><svg xmlns:dc="http://purl.org/dc/elements/1.1/" xmlns:cc="http://creativecommons.org/ns#" xmlns:rdf="http://www.w3.org/1999/02/22-rdf-syntax-ns#" xmlns:svg="http://www.w3.org/2000/svg" xmlns="http://www.w3.org/2000/svg" xmlns:xlink="http://www.w3.org/1999/xlink" xmlns:sodipodi="http://sodipodi.sourceforge.net/DTD/sodipodi-0.dtd" xmlns:inkscape="http://www.inkscape.org/namespaces/inkscape" width="1024" height="1024" viewBox="0 0 1024 1024" version="1.1" id="svg8" inkscape:version="0.92.4 (5da689c313, 2019-01-14)" sodipodi:docname="orelega.svg">
  <defs id="defs2"/>
  <sodipodi:namedview id="base" pagecolor="#ffffff" bordercolor="#666666" borderopacity="1.0" inkscape:pageopacity="0.0" inkscape:pageshadow="2" inkscape:zoom="0.17504384" inkscape:cx="1509.3565" inkscape:cy="249.79663" inkscape:document-units="px" inkscape:current-layer="layer2" showgrid="true" units="px" inkscape:pagecheckerboard="true" borderlayer="true" gridtolerance="10" inkscape:snap-smooth-nodes="true" inkscape:snap-text-baseline="true" inkscape:snap-page="true" showguides="true" inkscape:guide-bbox="true" inkscape:object-nodes="true" inkscape:object-paths="false" inkscape:snap-global="true">
    <inkscape:grid type="xygrid" id="grid4131" empspacing="4" spacingx="10" spacingy="10" color="#ffffff" opacity="0.2627451" empcolor="#ffffff" empopacity="0.62352941"/>
    <sodipodi:guide position="15825.17,820.00003" orientation="0,1" id="guide979" inkscape:locked="false"/>
    <sodipodi:guide position="8940,200" orientation="0,1" id="guide983" inkscape:locked="false"/>
    <sodipodi:guide position="11680,120" orientation="0,1" id="guide985" inkscape:locked="false"/>
    <sodipodi:guide position="0,40" orientation="0,1" id="guide987" inkscape:locked="false"/>
    <sodipodi:guide position="14960,820.00003" orientation="0,1" id="guide1028" inkscape:locked="false"/>
    <sodipodi:guide position="0,0" orientation="0,1" id="guide1030" inkscape:locked="false"/>
    <sodipodi:guide position="17640,660" orientation="0,1" id="guide1122" inkscape:locked="false"/>
    <sodipodi:guide position="4810,860" orientation="0,1" id="guide1263" inkscape:locked="false"/>
    <sodipodi:guide position="14730,430" orientation="0,1" id="guide1490" inkscape:locked="false"/>
  </sodipodi:namedview>
  <metadata id="metadata5">
    <rdf:RDF>
      <cc:Work rdf:about="">
        <dc:format>image/svg+xml</dc:format>
        <dc:type rdf:resource="http://purl.org/dc/dcmitype/StillImage"/>
        <dc:title/>
      </cc:Work>
    </rdf:RDF>
  </metadata>
  <svg:g inkscape:groupmode="layer" id="layer3" inkscape:label="Orelega upper" style="display:none;opacity:1" transform="translate(0,24)">
    <svg:path style="opacity:1;vector-effect:none;fill:#000000;fill-opacity:1;fill-rule:nonzero;stroke:none;stroke-width:9.23760414;stroke-linecap:round;stroke-linejoin:round;stroke-miterlimit:4;stroke-dasharray:none;stroke-dashoffset:0;stroke-opacity:1;paint-order:stroke fill markers" d="m 5440,180 v 80 h 80 v 460 h -80 v 80 h 320 v -80 h -80 V 260 h 80 v -80 z" id="rect1553" inkscape:connector-curvature="0"/>
    <svg:path id="path1560" d="m 4680,180 v 80 h 80 v 460 h -80 v 80 h 320 v -80 h -80 V 260 h 80 v -80 z" style="opacity:1;vector-effect:none;fill:#000000;fill-opacity:1;fill-rule:nonzero;stroke:none;stroke-width:9.23760414;stroke-linecap:round;stroke-linejoin:round;stroke-miterlimit:4;stroke-dasharray:none;stroke-dashoffset:0;stroke-opacity:1;paint-order:stroke fill markers" inkscape:connector-curvature="0"/>
    <svg:path inkscape:connector-curvature="0" style="opacity:1;vector-effect:none;fill:#000000;fill-opacity:1;fill-rule:nonzero;stroke:none;stroke-width:9.23760414;stroke-linecap:round;stroke-linejoin:round;stroke-miterlimit:4;stroke-dasharray:none;stroke-dashoffset:0;stroke-opacity:1;paint-order:stroke fill markers" d="m 5060,180 v 80 h 80 v 460 h -80 v 80 h 320 v -80 h -80 V 260 h 80 v -80 z" id="path1562"/>
    <svg:path style="display:inline;opacity:1;vector-effect:none;fill:#000000;fill-opacity:1;fill-rule:nonzero;stroke:none;stroke-width:8;stroke-linecap:round;stroke-linejoin:round;stroke-miterlimit:4;stroke-dasharray:none;stroke-dashoffset:0;stroke-opacity:1;paint-order:stroke fill markers" d="m 4900,480 v 80 h 260 v -80 z" id="rect1564" inkscape:connector-curvature="0"/>
    <svg:path style="opacity:1;vector-effect:none;fill:#000000;fill-opacity:1;fill-rule:nonzero;stroke:none;stroke-width:9.23760414;stroke-linecap:round;stroke-linejoin:round;stroke-miterlimit:4;stroke-dasharray:none;stroke-dashoffset:0;stroke-opacity:1;paint-order:stroke fill markers" d="m 2750,180 v 80 h 80 v 460 h -80 v 80 h 550 V 600 h -90 v 40 c 0,29.81424 -10,80 -40,80 H 2990 V 560 h 90 v 90 h 80 V 390 h -80 v 90 h -90 V 260 h 170 c 30,0 40,50.18576 40,80 v 40 h 90 V 180 Z" id="path1581" inkscape:connector-curvature="0" sodipodi:nodetypes="cccccccccsccccccccccccscccc"/>
    <svg:path sodipodi:nodetypes="ccccccccccccsccccccccccc" inkscape:connector-curvature="0" id="path1593" d="M 3750,720 H 3610 V 560 h 90 v 90 h 80 V 390 h -80 v 90 h -90 V 260 h 170 c 30,0 40,50.18576 40,80 v 40 h 90 V 180 h -540 v 80 h 80 v 460 h -80 v 80 h 380 z" style="opacity:1;vector-effect:none;fill:#000000;fill-opacity:1;fill-rule:nonzero;stroke:none;stroke-width:9.23760414;stroke-linecap:round;stroke-linejoin:round;stroke-miterlimit:4;stroke-dasharray:none;stroke-dashoffset:0;stroke-opacity:1;paint-order:stroke fill markers"/>
    <svg:path inkscape:connector-curvature="0" style="opacity:1;vector-effect:none;fill:#000000;fill-opacity:1;fill-rule:nonzero;stroke:none;stroke-width:9.23760414;stroke-linecap:round;stroke-linejoin:round;stroke-miterlimit:4;stroke-dasharray:none;stroke-dashoffset:0;stroke-opacity:1;paint-order:stroke fill markers" d="m 2030,180 v 80 h 80 v 460 h -80 v 80 h 320 v -80 h -80 V 260 h 80 v -80 z" id="path1595"/>
    <svg:path style="opacity:1;vector-effect:none;fill:#000000;fill-opacity:1;fill-rule:nonzero;stroke:none;stroke-width:8;stroke-linecap:round;stroke-linejoin:round;stroke-miterlimit:4;stroke-dasharray:none;stroke-dashoffset:0;stroke-opacity:1;paint-order:stroke fill markers" d="m 2350,260 c 110,0 160,98.16116 160,230 0,131.83884 -53.4908,230 -160,230 -106.5092,0 -220,80 0,80 220,0 340,-150.00001 340,-310.00001 0,-160 -120,-310.00002 -340,-310.00002 -220,0 -98.824,80.00003 0,80.00003 z" id="path1597" inkscape:connector-curvature="0" sodipodi:nodetypes="sssssss"/>
    <svg:path style="opacity:1;vector-effect:none;fill:#000000;fill-opacity:1;fill-rule:nonzero;stroke:none;stroke-width:9.23760414;stroke-linecap:round;stroke-linejoin:round;stroke-miterlimit:4;stroke-dasharray:none;stroke-dashoffset:0;stroke-opacity:1;paint-order:stroke fill markers" d="m 886.88672,480 v 80 H 1010 c 97.7518,0 130,20 130,80 0,60 -30.3992,80 -110,80 H 730 v 80 h 260 c 170,0 225.424,-2.93072 274,-41.63086 C 1297.9756,731.30104 1320,690 1320,630 1320,510 1198.951,480 1010,480 Z" id="path1621" inkscape:connector-curvature="0" sodipodi:nodetypes="ccsssccssssc"/>
    <svg:path style="opacity:1;vector-effect:none;fill:#000000;fill-opacity:1;fill-rule:nonzero;stroke:none;stroke-width:9.23760414;stroke-linecap:round;stroke-linejoin:round;stroke-miterlimit:4;stroke-dasharray:none;stroke-dashoffset:0;stroke-opacity:1;paint-order:stroke fill markers" d="M 810,260 V 720 H 970 V 260 Z" id="path1614" inkscape:connector-curvature="0"/>
    <svg:path style="opacity:1;vector-effect:none;fill:#000000;fill-opacity:1;fill-rule:nonzero;stroke:none;stroke-width:9.23760414;stroke-linecap:round;stroke-linejoin:round;stroke-miterlimit:4;stroke-dasharray:none;stroke-dashoffset:0;stroke-opacity:1;paint-order:stroke fill markers" d="m 730,180 v 80 h 300 c 82.9785,0 100,35 100,110 0,65 -31.0056,110 -120,110 v 80 c 167.4555,0 300,-99.51613 300,-195 0,-48.58524 -14.3124,-95.31241 -44,-125 -46,-46 -96,-60 -276,-60 z" id="path1599" inkscape:connector-curvature="0" sodipodi:nodetypes="ccssccsssc"/>
    <svg:path style="opacity:1;vector-effect:none;fill:#000000;fill-opacity:1;fill-rule:nonzero;stroke:none;stroke-width:9.23760414;stroke-linecap:round;stroke-linejoin:round;stroke-miterlimit:4;stroke-dasharray:none;stroke-dashoffset:0;stroke-opacity:1;paint-order:stroke fill markers" d="M 290,180 65.216797,720 H 0 v 80 H 320 V 720 H 165.2168 L 290.0957,420 c 5.97188,-14.34641 13.77011,-39.04009 17.91602,-54.01655 4.03137,15.16464 12.71202,39.6703 19.06836,54.01655 L 460,720 h -80 v 80 H 700 V 720 H 639.25391 L 400,180 Z" id="path1626" inkscape:connector-curvature="0" sodipodi:nodetypes="cccccccscscccccccc"/>
    <svg:rect y="560" x="180" height="80" width="310" id="rect1630" style="display:inline;opacity:1;vector-effect:none;fill:#000000;fill-opacity:1;fill-rule:nonzero;stroke:none;stroke-width:8;stroke-linecap:round;stroke-linejoin:round;stroke-miterlimit:4;stroke-dasharray:none;stroke-dashoffset:0;stroke-opacity:1;paint-order:stroke fill markers"/>
    <svg:path style="display:inline;opacity:1;vector-effect:none;fill:#000000;fill-opacity:1;fill-rule:nonzero;stroke:none;stroke-width:9.14285755;stroke-linecap:round;stroke-linejoin:round;stroke-miterlimit:4;stroke-dasharray:none;stroke-dashoffset:0;stroke-opacity:1;paint-order:stroke fill markers" d="m 6090,260 v 350 c 0,79.99997 -50,120 -100,120 -60,0 -100,-30 -100,-90 h -80 c 0,127.13036 120,170 210,170 140,0 230.6965,-77.22541 230,-200 V 260 Z" id="path1112-5" inkscape:connector-curvature="0" sodipodi:nodetypes="cssccsscc"/>
    <svg:circle transform="scale(-1)" id="path1116-4" style="display:inline;opacity:1;vector-effect:none;fill:#000000;fill-opacity:1;fill-rule:nonzero;stroke:none;stroke-width:9.14285755;stroke-linecap:round;stroke-linejoin:round;stroke-miterlimit:4;stroke-dasharray:none;stroke-dashoffset:0;stroke-opacity:1;paint-order:stroke fill markers" cx="-5890" cy="-640" r="80"/>
    <svg:rect style="opacity:1;vector-effect:none;fill:#000000;fill-opacity:1;fill-rule:nonzero;stroke:none;stroke-width:8;stroke-linecap:round;stroke-linejoin:round;stroke-miterlimit:4;stroke-dasharray:none;stroke-dashoffset:0;stroke-opacity:1;paint-order:stroke fill markers" id="rect1657" width="340" height="80.000031" x="5990" y="179.99997"/>
    <svg:path id="path1123-1" d="m 6720,720 v 80 h 330 v -80" style="display:inline;opacity:1;vector-effect:none;fill:#000000;fill-opacity:1;fill-rule:nonzero;stroke:none;stroke-width:10.72095108;stroke-linecap:round;stroke-linejoin:round;stroke-miterlimit:4;stroke-dasharray:none;stroke-dashoffset:0;stroke-opacity:1;paint-order:stroke fill markers" inkscape:connector-curvature="0" sodipodi:nodetypes="cccc"/>
    <svg:rect style="display:inline;opacity:1;vector-effect:none;fill:#000000;fill-opacity:1;fill-rule:nonzero;stroke:none;stroke-width:8.48528099;stroke-linecap:round;stroke-linejoin:round;stroke-miterlimit:4;stroke-dasharray:none;stroke-dashoffset:0;stroke-opacity:1;paint-order:stroke fill markers" id="rect1125-1" width="280" height="80" x="6760" y="179.99997"/>
    <svg:path style="display:inline;opacity:1;vector-effect:none;fill:#000000;fill-opacity:1;fill-rule:nonzero;stroke:none;stroke-width:8;stroke-linecap:round;stroke-linejoin:round;stroke-miterlimit:4;stroke-dasharray:none;stroke-dashoffset:0;stroke-opacity:1;paint-order:stroke fill markers" d="M 6849.843,260 6633.5714,497.47461 6730,520 6970,256.47307 Z" id="rect1127-1" inkscape:connector-curvature="0" sodipodi:nodetypes="ccccc"/>
    <svg:path style="display:inline;opacity:1;vector-effect:none;fill:#000000;fill-opacity:1;fill-rule:nonzero;stroke:none;stroke-width:8;stroke-linecap:round;stroke-linejoin:round;stroke-miterlimit:4;stroke-dasharray:none;stroke-dashoffset:0;stroke-opacity:1;paint-order:stroke fill markers" d="M 6633.5714,497.47461 6790,720.93581 6980.7748,720 6790,447.47461" id="path1129-0" inkscape:connector-curvature="0" sodipodi:nodetypes="cccc"/>
    <svg:path inkscape:connector-curvature="0" style="opacity:1;vector-effect:none;fill:#000000;fill-opacity:1;fill-rule:nonzero;stroke:none;stroke-width:9.23760414;stroke-linecap:round;stroke-linejoin:round;stroke-miterlimit:4;stroke-dasharray:none;stroke-dashoffset:0;stroke-opacity:1;paint-order:stroke fill markers" d="m 6370,180 v 80 h 80 v 460 h -80 v 80 h 290 v -80 h -50 V 260 h 80 v -80 z" id="path1683" sodipodi:nodetypes="ccccccccccccc"/>
    <svg:path style="display:inline;opacity:1;vector-effect:none;fill:#000000;fill-opacity:1;fill-rule:nonzero;stroke:none;stroke-width:9.23760414;stroke-linecap:round;stroke-linejoin:round;stroke-miterlimit:4;stroke-dasharray:none;stroke-dashoffset:0;stroke-opacity:1;paint-order:stroke fill markers" d="m 7100,180 v 80 h 80 v 460 h -80 v 80 h 530 V 560 h -90 v 80 c 0,29.81424 -10,80 -40,80 H 7340 V 260 h 100 v -80 z" id="path1581-1" inkscape:connector-curvature="0" sodipodi:nodetypes="cccccccccssccccc"/>
    <svg:path style="display:inline;opacity:1;vector-effect:none;fill:#000000;fill-opacity:1;fill-rule:nonzero;stroke:none;stroke-width:8;stroke-linecap:round;stroke-linejoin:round;stroke-miterlimit:4;stroke-dasharray:none;stroke-dashoffset:0;stroke-opacity:1;paint-order:stroke fill markers" d="m 9570,169.99999 c -213.5294,0 -330,160 -330,320 0,160 116.4706,320 330,320 213.5294,0 330,-160 330,-320 0,-160 -116.4706,-320 -330,-320 z m 0,80 c 103.125,0 150,108.16116 150,240 0,131.83884 -50.1476,240 -150,240 -99.8524,0 -150,-108.16116 -150,-240 0,-131.83884 46.875,-240 150,-240 z" id="path1597-8" inkscape:connector-curvature="0" sodipodi:nodetypes="ssssssssss"/>
    <svg:path style="display:inline;opacity:1;vector-effect:none;fill:#000000;fill-opacity:1;fill-rule:nonzero;stroke:none;stroke-width:8;stroke-linecap:round;stroke-linejoin:round;stroke-miterlimit:4;stroke-dasharray:none;stroke-dashoffset:0;stroke-opacity:1;paint-order:stroke fill markers" d="m 1700,170 c -213.5294,0 -330,160 -330,320 0,160 116.4706,320 330,320 178.5334,0 243.2586,-109.63386 270,-240 l -80,-20 c -12.1272,106.10425 -84.2089,180 -170,180 -99.8524,0 -170,-108.16116 -170,-240 0,-131.83884 56.875,-240 160,-240 72.1795,0 119.7188,22.99372 140,100 l 120,20 c 0,-60 -18.6159,-93.14462 -60,-130 -49.7435,-44.30001 -120.4714,-70 -210,-70 z" id="path1597-8-0" inkscape:connector-curvature="0" sodipodi:nodetypes="sssccsssccss"/>
    <svg:circle style="opacity:1;vector-effect:none;fill:#000000;fill-opacity:1;fill-rule:nonzero;stroke:none;stroke-width:8;stroke-linecap:round;stroke-linejoin:round;stroke-miterlimit:4;stroke-dasharray:none;stroke-dashoffset:0;stroke-opacity:1;paint-order:stroke fill markers" id="path1751" cx="1890" cy="370" r="80"/>
    <svg:path sodipodi:nodetypes="sssccsssccss" inkscape:connector-curvature="0" id="path1753" d="m 4299.9998,170 c -213.5294,0 -330,160 -330,320 0,160 116.4706,320 330,320 178.5334,0 213.2588,-109.63386 240.0002,-240 l -80,-20 c -12.1272,106.10425 -54.2091,180 -140.0002,180 -99.8524,0 -170,-108.16116 -170,-240 0,-131.83884 56.875,-240 160,-240 72.1795,0 119.7188,22.99372 140,100 l 120,20 c 0,-60 -18.6159,-93.14462 -60,-130 -49.7435,-44.30001 -120.4714,-70 -210,-70 z" style="display:inline;opacity:1;vector-effect:none;fill:#000000;fill-opacity:1;fill-rule:nonzero;stroke:none;stroke-width:8;stroke-linecap:round;stroke-linejoin:round;stroke-miterlimit:4;stroke-dasharray:none;stroke-dashoffset:0;stroke-opacity:1;paint-order:stroke fill markers"/>
    <svg:circle r="80" cy="370" cx="4490" id="circle1755" style="opacity:1;vector-effect:none;fill:#000000;fill-opacity:1;fill-rule:nonzero;stroke:none;stroke-width:8;stroke-linecap:round;stroke-linejoin:round;stroke-miterlimit:4;stroke-dasharray:none;stroke-dashoffset:0;stroke-opacity:1;paint-order:stroke fill markers"/>
    <svg:path style="opacity:1;vector-effect:none;fill:#000000;fill-opacity:1;fill-rule:nonzero;stroke:none;stroke-width:8;stroke-linecap:round;stroke-linejoin:round;stroke-miterlimit:4;stroke-dasharray:none;stroke-dashoffset:0;stroke-opacity:1;paint-order:stroke fill markers" d="m 4280,480 v 90 h 120 v 180 l 40,-10 80,60 h 40 V 570 h 60 v -90 z" id="rect1757" inkscape:connector-curvature="0" sodipodi:nodetypes="ccccccccccc"/>
    <svg:path style="opacity:1;vector-effect:none;fill:#000000;fill-opacity:1;fill-rule:nonzero;stroke:none;stroke-width:9.23760414;stroke-linecap:round;stroke-linejoin:round;stroke-miterlimit:4;stroke-dasharray:none;stroke-dashoffset:0;stroke-opacity:1;paint-order:stroke fill markers" d="m 7690,180 v 80 h 80 v 460 h -80 v 80 h 260 v -80 h -80 V 357.89453 L 8040,680 h 50 L 8250,359.23047 V 720 h -80 v 80 h 320 v -80 h -80 V 260 h 80 V 180 H 8250.7324 L 8104.6113,472.94727 7950,180 Z" id="path1765" inkscape:connector-curvature="0"/>
    <svg:path style="opacity:1;vector-effect:none;fill:#000000;fill-opacity:1;fill-rule:nonzero;stroke:none;stroke-width:9.23760414;stroke-linecap:round;stroke-linejoin:round;stroke-miterlimit:4;stroke-dasharray:none;stroke-dashoffset:0;stroke-opacity:1;paint-order:stroke fill markers" d="m 8540,180 v 80 h 80 v 460 h -80 v 80 h 260 v -80 h -80 V 400 l 340,400 h 60 V 260 h 80 v -80 h -260 v 80 h 80 V 482.94141 L 8762.5,180 Z" id="path1770" inkscape:connector-curvature="0"/>
    <svg:path style="display:inline;opacity:1;vector-effect:none;fill:#000000;fill-opacity:1;fill-rule:nonzero;stroke:none;stroke-width:9.23760414;stroke-linecap:round;stroke-linejoin:round;stroke-miterlimit:4;stroke-dasharray:none;stroke-dashoffset:0;stroke-opacity:1;paint-order:stroke fill markers" d="m 10039.999,259.99999 v 460 h 160 v -460 z" id="path1614-8" inkscape:connector-curvature="0"/>
    <svg:path style="display:inline;opacity:1;vector-effect:none;fill:#000000;fill-opacity:1;fill-rule:nonzero;stroke:none;stroke-width:9.23760414;stroke-linecap:round;stroke-linejoin:round;stroke-miterlimit:4;stroke-dasharray:none;stroke-dashoffset:0;stroke-opacity:1;paint-order:stroke fill markers" d="m 9960,179.99999 v 80 h 299.999 c 80,0 100,50 100,110 0,65 -31.006,110 -120,110 h -40 v 80 h 40 c 167.456,0 300,-50 300,-195 0,-48.58524 -14.312,-95.31241 -44,-125 -46,-46 -96,-60 -276,-60 z" id="path1599-1" inkscape:connector-curvature="0" sodipodi:nodetypes="ccsssccssssc"/>
    <svg:rect style="display:inline;opacity:1;vector-effect:none;fill:#000000;fill-opacity:1;fill-rule:nonzero;stroke:none;stroke-width:8;stroke-linecap:round;stroke-linejoin:round;stroke-miterlimit:4;stroke-dasharray:none;stroke-dashoffset:0;stroke-opacity:1;paint-order:stroke fill markers" id="rect1657-2" width="340" height="80" x="9960" y="719.99994"/>
    <svg:path sodipodi:nodetypes="ssssssssss" inkscape:connector-curvature="0" id="path1829" d="m 10909.999,169.99999 c -213.529,0 -330,160 -330,320 0,160 116.471,320 330,320 213.529,0 330,-160 330,-320 0,-160 -116.471,-320 -330,-320 z m 0,80 c 103.125,0 150,108.16116 150,240 0,131.83884 -50.148,240 -150,240 -99.852,0 -150,-108.16116 -150,-240 0,-131.83884 46.875,-240 150,-240 z" style="display:inline;opacity:1;vector-effect:none;fill:#000000;fill-opacity:1;fill-rule:nonzero;stroke:none;stroke-width:8;stroke-linecap:round;stroke-linejoin:round;stroke-miterlimit:4;stroke-dasharray:none;stroke-dashoffset:0;stroke-opacity:1;paint-order:stroke fill markers"/>
    <svg:circle transform="scale(-1)" id="path1116-4-9" style="display:inline;opacity:1;vector-effect:none;fill:#000000;fill-opacity:1;fill-rule:nonzero;stroke:none;stroke-width:9.14285755;stroke-linecap:round;stroke-linejoin:round;stroke-miterlimit:4;stroke-dasharray:none;stroke-dashoffset:0;stroke-opacity:1;paint-order:stroke fill markers" cx="-11120" cy="-879.99994" r="80"/>
    <svg:path style="opacity:1;vector-effect:none;fill:#000000;fill-opacity:1;fill-rule:nonzero;stroke:none;stroke-width:8;stroke-linecap:round;stroke-linejoin:round;stroke-miterlimit:4;stroke-dasharray:none;stroke-dashoffset:0;stroke-opacity:1;paint-order:stroke fill markers" d="m 11176.568,936.56853 c -32.388,32.38758 -68.57,63.43147 -136.569,63.43147 -150,0 -120,-70.00001 -327.037,-70.00001 l 60,-160 h 160 l -32.963,110 c 50.373,10.90222 60,38.49084 120,40 33.158,0.83401 82.82,1.23262 100,-40" id="path1846" inkscape:connector-curvature="0" sodipodi:nodetypes="csccccsc"/>
    <svg:path inkscape:connector-curvature="0" id="path1848" d="m 11369.999,259.99999 v 460 h 160 v -460 z" style="display:inline;opacity:1;vector-effect:none;fill:#000000;fill-opacity:1;fill-rule:nonzero;stroke:none;stroke-width:9.23760414;stroke-linecap:round;stroke-linejoin:round;stroke-miterlimit:4;stroke-dasharray:none;stroke-dashoffset:0;stroke-opacity:1;paint-order:stroke fill markers"/>
    <svg:path sodipodi:nodetypes="ccsssccssssc" inkscape:connector-curvature="0" id="path1850" d="m 11289.999,179.99999 v 80 h 300 c 80,0 100,50 100,110 0,65 -31.006,110 -120,110 h -40 v 80 h 40 c 167.456,0 300,-50 300,-195 0,-48.58524 -14.312,-95.31241 -44,-125 -46,-46 -96,-60 -276,-60 z" style="display:inline;opacity:1;vector-effect:none;fill:#000000;fill-opacity:1;fill-rule:nonzero;stroke:none;stroke-width:9.23760414;stroke-linecap:round;stroke-linejoin:round;stroke-miterlimit:4;stroke-dasharray:none;stroke-dashoffset:0;stroke-opacity:1;paint-order:stroke fill markers"/>
    <svg:rect y="719.99994" x="11290" height="80" width="320" id="rect1852" style="display:inline;opacity:1;vector-effect:none;fill:#000000;fill-opacity:1;fill-rule:nonzero;stroke:none;stroke-width:8;stroke-linecap:round;stroke-linejoin:round;stroke-miterlimit:4;stroke-dasharray:none;stroke-dashoffset:0;stroke-opacity:1;paint-order:stroke fill markers"/>
    <svg:path style="opacity:1;vector-effect:none;fill:#000000;fill-opacity:1;fill-rule:nonzero;stroke:none;stroke-width:8;stroke-linecap:round;stroke-linejoin:round;stroke-miterlimit:4;stroke-dasharray:none;stroke-dashoffset:0;stroke-opacity:1;paint-order:stroke fill markers" d="m 11599.999,489.99999 c 110,0 190,20 210,150 7.753,50.39727 10,90 26.875,90 23.273,0 27.838,-50.32419 32.603,-90 l 70.522,7.21355 c -9.375,90 -18.75,162.78645 -131.25,162.78645 -112.5,0 -135.551,-51.48436 -168.75,-170 -16.672,-59.51652 -30,-80 -80,-80" id="path1854" inkscape:connector-curvature="0" sodipodi:nodetypes="cssccssc"/>
    <svg:path style="display:inline;opacity:1;vector-effect:none;fill:#000000;fill-opacity:1;fill-rule:nonzero;stroke:none;stroke-width:9.14285755;stroke-linecap:round;stroke-linejoin:round;stroke-miterlimit:4;stroke-dasharray:none;stroke-dashoffset:0;stroke-opacity:1;paint-order:stroke fill markers" d="m 12159.999,319.99999 c 0,-50 30,-70 100,-70 80,0 130,30 130,90 h 80 c 0,-127.13036 -150,-170 -240,-170 -140,0 -231.056,79.96262 -230,190 2,208.48862 320,150.44646 320,300 0,50 -40,70 -110,70 -80,0 -140,-30 -140,-90 h -80 c 0,127.13036 160,170 250,170 140,0 241.056,-79.96262 240,-190 -2,-208.4884 -320,-150.446 -320,-300 z" id="path1112-5-4" inkscape:connector-curvature="0" sodipodi:nodetypes="ssccssssccsss"/>
    <svg:circle transform="scale(-1)" id="path1116-4-8" style="display:inline;opacity:1;vector-effect:none;fill:#000000;fill-opacity:1;fill-rule:nonzero;stroke:none;stroke-width:9.14285755;stroke-linecap:round;stroke-linejoin:round;stroke-miterlimit:4;stroke-dasharray:none;stroke-dashoffset:0;stroke-opacity:1;paint-order:stroke fill markers" cx="-12070" cy="-639.99994" r="80"/>
    <svg:circle style="display:inline;opacity:1;vector-effect:none;fill:#000000;fill-opacity:1;fill-rule:nonzero;stroke:none;stroke-width:9.14285755;stroke-linecap:round;stroke-linejoin:round;stroke-miterlimit:4;stroke-dasharray:none;stroke-dashoffset:0;stroke-opacity:1;paint-order:stroke fill markers" id="path1876" cx="12390" cy="340.00003" r="80"/>
    <svg:path style="display:inline;opacity:1;vector-effect:none;fill:#000000;fill-opacity:1;fill-rule:nonzero;stroke:none;stroke-width:9.23760414;stroke-linecap:round;stroke-linejoin:round;stroke-miterlimit:4;stroke-dasharray:none;stroke-dashoffset:0;stroke-opacity:1;paint-order:stroke fill markers" d="m 12529.999,179.99999 v 200 h 90 v -40 c 0,-29.81424 10,-80 40,-80 h 80 v 460 h -80 v 80 h 320 v -80 h -80 v -460 h 80 c 30,0 40,50.18576 40,80 v 40 h 90 v -200 z" id="path1593-6" inkscape:connector-curvature="0" sodipodi:nodetypes="cccssccccccccsscccc"/>
    <svg:path sodipodi:nodetypes="ccssscsccsc" inkscape:connector-curvature="0" id="path1829-6" d="m 13639.999,259.99999 h 80 v 330 c 0,110 -60,220 -210,220 -190,0 -270,-80 -270,-240 v -310 h 160 v 310 c 0,131.83884 70,160 120,160 80,0 120,-60 120,-140 v -330" style="display:inline;opacity:1;vector-effect:none;fill:#000000;fill-opacity:1;fill-rule:nonzero;stroke:none;stroke-width:8;stroke-linecap:round;stroke-linejoin:round;stroke-miterlimit:4;stroke-dasharray:none;stroke-dashoffset:0;stroke-opacity:1;paint-order:stroke fill markers"/>
    <svg:path style="display:inline;opacity:1;vector-effect:none;fill:#000000;fill-opacity:1;fill-rule:nonzero;stroke:none;stroke-width:9.23760414;stroke-linecap:round;stroke-linejoin:round;stroke-miterlimit:4;stroke-dasharray:none;stroke-dashoffset:0;stroke-opacity:1;paint-order:stroke fill markers" d="m 13159.999,179.99999 v 80 h 320 v -80 z m 380,0 v 80 h 270 v -80 z" id="path1560-2" inkscape:connector-curvature="0"/>
    <svg:path id="path1938" d="m 13829.999,179.99999 v 80 h 320 v -80 z m 420,0 v 80 h 270 v -80 z" style="display:inline;opacity:1;vector-effect:none;fill:#000000;fill-opacity:1;fill-rule:nonzero;stroke:none;stroke-width:9.23760414;stroke-linecap:round;stroke-linejoin:round;stroke-miterlimit:4;stroke-dasharray:none;stroke-dashoffset:0;stroke-opacity:1;paint-order:stroke fill markers" inkscape:connector-curvature="0" sodipodi:nodetypes="cccccccccc"/>
    <svg:path style="opacity:1;vector-effect:none;fill:#000000;fill-opacity:1;fill-rule:nonzero;stroke:none;stroke-width:8;stroke-linecap:round;stroke-linejoin:round;stroke-miterlimit:4;stroke-dasharray:none;stroke-dashoffset:0;stroke-opacity:1;paint-order:stroke fill markers" d="m 14189.999,518.26041 -110,-258.26042 h -190 l 230,540 h 110 l 230,-540 h -100 l -110,258.26042 c -7.239,16.9961 -20,51.73958 -30,91.73958 -10,-40 -22.093,-73.1756 -30,-91.73958 z" id="path1940" inkscape:connector-curvature="0" sodipodi:nodetypes="sccccccscs"/>
    <svg:path style="opacity:1;vector-effect:none;fill:#000000;fill-opacity:1;fill-rule:nonzero;stroke:none;stroke-width:8;stroke-linecap:round;stroke-linejoin:round;stroke-miterlimit:4;stroke-dasharray:none;stroke-dashoffset:0;stroke-opacity:1;paint-order:stroke fill markers" d="m 14609.999,259.99999 201.754,540 h 96.492 l 119.559,-320 c 7.282,-19.48923 13.893,-39.45866 17.195,-60 3.365,20.53115 9.913,40.51077 17.195,60 l 119.559,320 h 96.492 l 201.754,-540 h -100 l -82.5,258.25977 c -5.437,17.02049 -15,51.74023 -22.5,91.74023 -7.5,-40 -16.57,-73.17621 -22.5,-91.74023 l -82.5,-258.25977 h -60 -90 -10 l -82.5,258.25977 c -5.437,17.02049 -15,51.74023 -22.5,91.74023 -7.5,-40 -16.57,-73.17621 -22.5,-91.74023 l -82.5,-258.25977 z" id="path1946" inkscape:connector-curvature="0" sodipodi:nodetypes="cccscscccccccccccccccc"/>
    <svg:path sodipodi:nodetypes="cccccccccc" inkscape:connector-curvature="0" style="display:inline;opacity:1;vector-effect:none;fill:#000000;fill-opacity:1;fill-rule:nonzero;stroke:none;stroke-width:9.23760414;stroke-linecap:round;stroke-linejoin:round;stroke-miterlimit:4;stroke-dasharray:none;stroke-dashoffset:0;stroke-opacity:1;paint-order:stroke fill markers" d="m 14919.999,179.99999 v 80 h 320 v -80 z m 380,0 v 80 h 250 v -80 z" id="path1955"/>
    <svg:path style="display:inline;opacity:1;vector-effect:none;fill:#000000;fill-opacity:1;fill-rule:nonzero;stroke:none;stroke-width:9.23760414;stroke-linecap:round;stroke-linejoin:round;stroke-miterlimit:4;stroke-dasharray:none;stroke-dashoffset:0;stroke-opacity:1;paint-order:stroke fill markers" d="m 14539.999,179.99999 v 80 h 320 v -80 z" id="path1961" inkscape:connector-curvature="0"/>
    <svg:path sodipodi:nodetypes="cccccccccc" inkscape:connector-curvature="0" style="display:inline;opacity:1;vector-effect:none;fill:#000000;fill-opacity:1;fill-rule:nonzero;stroke:none;stroke-width:9.23760414;stroke-linecap:round;stroke-linejoin:round;stroke-miterlimit:4;stroke-dasharray:none;stroke-dashoffset:0;stroke-opacity:1;paint-order:stroke fill markers" d="m 15559.999,179.99999 v 80 h 320 v -80 z m 400,0 v 80 h 270 v -80 z" id="path1963"/>
    <svg:path id="path1965" d="m 16229.999,799.99999 v -80 h -320 v 80 z m -400,0 v -80 h -270 v 80 z" style="display:inline;opacity:1;vector-effect:none;fill:#000000;fill-opacity:1;fill-rule:nonzero;stroke:none;stroke-width:9.23760414;stroke-linecap:round;stroke-linejoin:round;stroke-miterlimit:4;stroke-dasharray:none;stroke-dashoffset:0;stroke-opacity:1;paint-order:stroke fill markers" inkscape:connector-curvature="0" sodipodi:nodetypes="cccccccccc"/>
    <svg:path style="opacity:1;vector-effect:none;fill:#000000;fill-opacity:1;fill-rule:nonzero;stroke:none;stroke-width:8;stroke-linecap:round;stroke-linejoin:round;stroke-miterlimit:4;stroke-dasharray:none;stroke-dashoffset:0;stroke-opacity:1;paint-order:stroke fill markers" d="m 15973.706,439.99999 -129.396,94.10742 135.193,185.89258 h 197.84 z" id="rect1967" inkscape:connector-curvature="0"/>
    <svg:rect transform="matrix(0.80873609,0.58817169,0.58817169,-0.80873609,0,0)" y="8926.8467" x="13142.098" height="367.73615" width="80" id="rect1971" style="opacity:1;vector-effect:none;fill:#000000;fill-opacity:1;fill-rule:nonzero;stroke:none;stroke-width:8;stroke-linecap:round;stroke-linejoin:round;stroke-miterlimit:4;stroke-dasharray:none;stroke-dashoffset:0;stroke-opacity:1;paint-order:stroke fill markers"/>
    <svg:path id="use1973" d="m 15823.636,539.99999 129.396,-94.10742 -135.193,-185.89258 h -197.84 z" style="opacity:1;vector-effect:none;fill:#000000;fill-opacity:1;fill-rule:nonzero;stroke:none;stroke-width:8;stroke-linecap:round;stroke-linejoin:round;stroke-miterlimit:4;stroke-dasharray:none;stroke-dashoffset:0;stroke-opacity:1;paint-order:stroke fill markers" inkscape:connector-curvature="0"/>
    <svg:rect style="opacity:1;vector-effect:none;fill:#000000;fill-opacity:1;fill-rule:nonzero;stroke:none;stroke-width:8;stroke-linecap:round;stroke-linejoin:round;stroke-miterlimit:4;stroke-dasharray:none;stroke-dashoffset:0;stroke-opacity:1;paint-order:stroke fill markers" id="use1975" width="80" height="367.73615" x="-13144.026" y="-8978.5693" transform="matrix(-0.80873609,-0.58817169,-0.58817169,0.80873609,0,0)"/>
    <svg:path id="path1984" d="m 16240.99,179.99999 v 80 h 320 v -80 z m 400,0 v 80 h 270 v -80 z" style="display:inline;opacity:1;vector-effect:none;fill:#000000;fill-opacity:1;fill-rule:nonzero;stroke:none;stroke-width:9.23760414;stroke-linecap:round;stroke-linejoin:round;stroke-miterlimit:4;stroke-dasharray:none;stroke-dashoffset:0;stroke-opacity:1;paint-order:stroke fill markers" inkscape:connector-curvature="0" sodipodi:nodetypes="cccccccccc"/>
    <svg:rect style="opacity:1;vector-effect:none;fill:#000000;fill-opacity:1;fill-rule:nonzero;stroke:none;stroke-width:8;stroke-linecap:round;stroke-linejoin:round;stroke-miterlimit:4;stroke-dasharray:none;stroke-dashoffset:0;stroke-opacity:1;paint-order:stroke fill markers" id="rect1986" width="80" height="367.73615" x="13692.84" y="9327.3857" transform="matrix(0.80873609,0.58817169,0.58817169,-0.80873609,0,0)"/>
    <svg:path inkscape:connector-curvature="0" style="opacity:1;vector-effect:none;fill:#000000;fill-opacity:1;fill-rule:nonzero;stroke:none;stroke-width:8;stroke-linecap:round;stroke-linejoin:round;stroke-miterlimit:4;stroke-dasharray:none;stroke-dashoffset:0;stroke-opacity:1;paint-order:stroke fill markers" d="m 16504.627,539.99999 129.396,-94.10742 -135.193,-185.89258 h -197.84 z" id="path1988"/>
    <svg:path sodipodi:nodetypes="ccccccccc" inkscape:connector-curvature="0" id="path1990" d="m 16489.999,469.99999 v 250 h -80 v 80 h 320 v -80 h -80 v -250 z" style="display:inline;opacity:1;vector-effect:none;fill:#000000;fill-opacity:1;fill-rule:nonzero;stroke:none;stroke-width:9.23760414;stroke-linecap:round;stroke-linejoin:round;stroke-miterlimit:4;stroke-dasharray:none;stroke-dashoffset:0;stroke-opacity:1;paint-order:stroke fill markers"/>
    <svg:path style="display:inline;opacity:1;vector-effect:none;fill:#000000;fill-opacity:1;fill-rule:nonzero;stroke:none;stroke-width:9.23760414;stroke-linecap:round;stroke-linejoin:round;stroke-miterlimit:4;stroke-dasharray:none;stroke-dashoffset:0;stroke-opacity:1;paint-order:stroke fill markers" d="m 16929.999,179.99999 v 200 h 90 v -40 c 0,-29.81424 10,-80 40,-80 h 158.461 l -299.451,490 v 50 h 510 v -240 h -90 v 80 c 0,29.81424 -10,80 -40,80 h -173.338 l 293.338,-480 v -60 z" id="path1581-1-4" inkscape:connector-curvature="0" sodipodi:nodetypes="cccssccccccsscccc"/>
    <svg:path style="display:inline;opacity:1;vector-effect:none;fill:#000000;fill-opacity:1;fill-rule:nonzero;stroke:none;stroke-width:8;stroke-linecap:round;stroke-linejoin:round;stroke-miterlimit:4;stroke-dasharray:none;stroke-dashoffset:0;stroke-opacity:1;paint-order:stroke fill markers" d="m 17859.999,169.99999 c -190,0 -300,80 -300,240 v 310 h 160 v -310 c 0,-131.83884 100,-160 150,-160 48.391,0 80.155,11.17678 104.821,42.57618 l -161.136,106.70605 117.228,18.7148 159.159,-106.10641 c -47.011,-80.44565 -100.919,-141.89062 -230.072,-141.89062 z" id="path1829-6-4" inkscape:connector-curvature="0" sodipodi:nodetypes="ssccssccccs"/>
    <svg:path style="display:inline;opacity:1;vector-effect:none;fill:#000000;fill-opacity:1;fill-rule:nonzero;stroke:none;stroke-width:9.23760414;stroke-linecap:round;stroke-linejoin:round;stroke-miterlimit:4;stroke-dasharray:none;stroke-dashoffset:0;stroke-opacity:1;paint-order:stroke fill markers" d="m 17479.999,799.99999 v -80 h 240 v 80 z" id="path1560-2-3" inkscape:connector-curvature="0" sodipodi:nodetypes="ccccc"/>
    <svg:path style="display:inline;opacity:1;vector-effect:none;fill:#000000;fill-opacity:1;fill-rule:nonzero;stroke:none;stroke-width:9.14285755;stroke-linecap:round;stroke-linejoin:round;stroke-miterlimit:4;stroke-dasharray:none;stroke-dashoffset:0;stroke-opacity:1;paint-order:stroke fill markers" d="m 17813.684,399.28222 c 66.315,180.71777 186.315,111.16423 186.315,260.71777 0,50 -30,70 -80,70 -50,0 -80,-30 -80,-90 h -80 c 0,127.13036 120,170 190,170 120,0 210,-79.95755 210,-190 0,-160 -170,-140 -206.384,-267.74995 z" id="path1112-5-4-2" inkscape:connector-curvature="0" sodipodi:nodetypes="cssccsscc"/>
    <svg:circle transform="scale(-1)" id="path1116-4-8-8" style="display:inline;opacity:1;vector-effect:none;fill:#000000;fill-opacity:1;fill-rule:nonzero;stroke:none;stroke-width:9.14285755;stroke-linecap:round;stroke-linejoin:round;stroke-miterlimit:4;stroke-dasharray:none;stroke-dashoffset:0;stroke-opacity:1;paint-order:stroke fill markers" cx="-17840.002" cy="-639.99994" r="80"/>
    <svg:path style="display:inline;opacity:1;vector-effect:none;fill:#000000;fill-opacity:1;fill-rule:nonzero;stroke:none;stroke-width:9.23760414;stroke-linecap:round;stroke-linejoin:round;stroke-miterlimit:4;stroke-dasharray:none;stroke-dashoffset:0;stroke-opacity:1;paint-order:stroke fill markers" d="m 18239.999,179.99999 v 200 h 90 v -40 c 0,-29.81424 10,-80 40,-80 h 149.451 l -135.102,180 v 40 l 66.641,-14.03125 110,-15.96875 159.01,-210 v -60 z" id="path3603" inkscape:connector-curvature="0" sodipodi:nodetypes="cccsscccccccc"/>
    <svg:path sodipodi:nodetypes="sssccssccs" inkscape:connector-curvature="0" id="path3605" d="m 18449.999,479.99999 c 110,0 129.01,85.98072 129.01,149.28602 0,50 -49.01,100.71398 -139.01,100.71398 -100,0 -130,-30 -130,-90 h -80 c 0,127.13036 110,170 240,170 180,0 269.01,-79.95755 269.01,-190 0,-110 -49.01,-210 -219.01,-210 l -135.651,70 z" style="display:inline;opacity:1;vector-effect:none;fill:#000000;fill-opacity:1;fill-rule:nonzero;stroke:none;stroke-width:9.14285755;stroke-linecap:round;stroke-linejoin:round;stroke-miterlimit:4;stroke-dasharray:none;stroke-dashoffset:0;stroke-opacity:1;paint-order:stroke fill markers"/>
    <svg:circle style="display:inline;opacity:1;vector-effect:none;fill:#000000;fill-opacity:1;fill-rule:nonzero;stroke:none;stroke-width:9.14285755;stroke-linecap:round;stroke-linejoin:round;stroke-miterlimit:4;stroke-dasharray:none;stroke-dashoffset:0;stroke-opacity:1;paint-order:stroke fill markers" id="path3607" transform="scale(-1)" cx="-18310.002" cy="-639.99994" r="80"/>
    <svg:path sodipodi:nodetypes="cccccccccsccccccccccccscccc" inkscape:connector-curvature="0" id="path1962" d="m 19120,180 v 80 h 180 v 460 h -80 v 80 h 550 V 600 h -90 v 40 c 0,29.81424 -10,80 -40,80 h -180 V 560 h 90 v 90 h 80 V 390 h -80 v 90 h -90 V 260 h 170 c 30,0 40,50.18576 40,80 v 40 h 90 V 180 Z" style="opacity:1;vector-effect:none;fill:#000000;fill-opacity:1;fill-rule:nonzero;stroke:none;stroke-width:9.23760414;stroke-linecap:round;stroke-linejoin:round;stroke-miterlimit:4;stroke-dasharray:none;stroke-dashoffset:0;stroke-opacity:1;paint-order:stroke fill markers"/>
    <svg:path sodipodi:nodetypes="cccc" inkscape:connector-curvature="0" id="path1964" d="m 18840,720 v 80 h 320 v -80" style="opacity:1;vector-effect:none;fill:#000000;fill-opacity:1;fill-rule:nonzero;stroke:none;stroke-width:9.23760414;stroke-linecap:round;stroke-linejoin:round;stroke-miterlimit:4;stroke-dasharray:none;stroke-dashoffset:0;stroke-opacity:1;paint-order:stroke fill markers"/>
    <svg:rect style="display:inline;opacity:1;vector-effect:none;fill:#000000;fill-opacity:1;fill-rule:nonzero;stroke:none;stroke-width:8;stroke-linecap:round;stroke-linejoin:round;stroke-miterlimit:4;stroke-dasharray:none;stroke-dashoffset:0;stroke-opacity:1;paint-order:stroke fill markers" id="rect1966" width="310" height="80" x="19020" y="560"/>
    <svg:rect style="opacity:1;vector-effect:none;fill:#000000;fill-opacity:1;fill-rule:nonzero;stroke:none;stroke-width:85.56481171;stroke-linecap:butt;stroke-linejoin:round;stroke-miterlimit:4;stroke-dasharray:none;stroke-dashoffset:0;stroke-opacity:1;paint-order:stroke fill markers" id="rect1968" width="109.99998" height="617.73779" x="19320" y="205.91257" transform="matrix(1,0,-0.48564293,0.87415728,0,0)"/>
    <svg:path sodipodi:nodetypes="ssssssssss" inkscape:connector-curvature="0" id="path1974" d="m 20210,169.99999 c -213.529,0 -330,160 -330,320 0,160 116.471,320 330,320 213.529,0 230,-160 230,-320 0,-160 -16.471,-320 -230,-320 z m 0,80 c 103.125,0 150,108.16116 150,240 0,131.83884 -50.148,240 -150,240 -99.852,0 -150,-108.16116 -150,-240 0,-131.83884 46.875,-240 150,-240 z" style="display:inline;opacity:1;vector-effect:none;fill:#000000;fill-opacity:1;fill-rule:nonzero;stroke:none;stroke-width:8;stroke-linecap:round;stroke-linejoin:round;stroke-miterlimit:4;stroke-dasharray:none;stroke-dashoffset:0;stroke-opacity:1;paint-order:stroke fill markers"/>
    <svg:path style="opacity:1;vector-effect:none;fill:#000000;fill-opacity:1;fill-rule:nonzero;stroke:none;stroke-width:9.23760414;stroke-linecap:round;stroke-linejoin:round;stroke-miterlimit:4;stroke-dasharray:none;stroke-dashoffset:0;stroke-opacity:1;paint-order:stroke fill markers" d="m 20360,204 v 620 h 470 V 624 h -90 v 40 c 0,29.81424 -10,80 -40,80 h -180 V 584 h 90 v 90 h 80 V 414 h -80 v 90 h -90 V 284 h 170 c 30,0 40,50.18576 40,80 v 40 h 90 V 204 Z" transform="translate(0,-24)" id="path1976" inkscape:connector-curvature="0"/>
    <svg:path style="opacity:1;vector-effect:none;fill:#000000;fill-opacity:1;fill-rule:nonzero;stroke:none;stroke-width:80;stroke-linecap:butt;stroke-linejoin:round;stroke-miterlimit:4;stroke-dasharray:none;stroke-dashoffset:0;stroke-opacity:1;paint-order:stroke fill markers" d="m 21200,180 c -140,0 -240,90 -240,230 0,140 100,230 240,230 h 20 v 320 h 80 V 260 h 60 v 700 h 80 V 260 h 60 v -80 z" id="rect1979" inkscape:connector-curvature="0"/>
    <svg:path style="display:inline;opacity:1;vector-effect:none;fill:#000000;fill-opacity:1;fill-rule:nonzero;stroke:none;stroke-width:9.23760414;stroke-linecap:round;stroke-linejoin:round;stroke-miterlimit:4;stroke-dasharray:none;stroke-dashoffset:0;stroke-opacity:1;paint-order:stroke fill markers" d="m 21640,204 v 80 h 79.998 V 744 H 21640 v 80 h 340 v -80 h -100.002 v -40 h 40 c 167.456,0 300,-50 300,-195 0,-48.58524 -14.312,-95.31241 -44,-125 -46,-46 -96,-60 -276,-60 h -20 V 284 H 21980 v -80 z m 239.998,200 h 60 c 80,0 100,50 100,110 0,65 -29.998,110 -120,110 h -40 z" transform="translate(0,-24)" id="path1614-8-5" inkscape:connector-curvature="0" sodipodi:nodetypes="ccccccccccsscsccccccssscc"/>
  </svg:g>
  </svg>