<!-- Created with Inkscape (http://www.inkscape.org/) --><svg xmlns:dc="http://purl.org/dc/elements/1.1/" xmlns:cc="http://creativecommons.org/ns#" xmlns:rdf="http://www.w3.org/1999/02/22-rdf-syntax-ns#" xmlns:svg="http://www.w3.org/2000/svg" xmlns="http://www.w3.org/2000/svg" xmlns:xlink="http://www.w3.org/1999/xlink" xmlns:sodipodi="http://sodipodi.sourceforge.net/DTD/sodipodi-0.dtd" xmlns:inkscape="http://www.inkscape.org/namespaces/inkscape" width="1024" height="1024" viewBox="0 0 1024 1024" version="1.1" id="svg8" inkscape:version="0.92.4 (5da689c313, 2019-01-14)" sodipodi:docname="orelega.svg">
  <defs id="defs2"/>
  <sodipodi:namedview id="base" pagecolor="#ffffff" bordercolor="#666666" borderopacity="1.0" inkscape:pageopacity="0.0" inkscape:pageshadow="2" inkscape:zoom="0.17504384" inkscape:cx="1509.3565" inkscape:cy="249.79663" inkscape:document-units="px" inkscape:current-layer="layer2" showgrid="true" units="px" inkscape:pagecheckerboard="true" borderlayer="true" gridtolerance="10" inkscape:snap-smooth-nodes="true" inkscape:snap-text-baseline="true" inkscape:snap-page="true" showguides="true" inkscape:guide-bbox="true" inkscape:object-nodes="true" inkscape:object-paths="false" inkscape:snap-global="true">
    <inkscape:grid type="xygrid" id="grid4131" empspacing="4" spacingx="10" spacingy="10" color="#ffffff" opacity="0.2627451" empcolor="#ffffff" empopacity="0.62352941"/>
    <sodipodi:guide position="15825.17,820.00003" orientation="0,1" id="guide979" inkscape:locked="false"/>
    <sodipodi:guide position="8940,200" orientation="0,1" id="guide983" inkscape:locked="false"/>
    <sodipodi:guide position="11680,120" orientation="0,1" id="guide985" inkscape:locked="false"/>
    <sodipodi:guide position="0,40" orientation="0,1" id="guide987" inkscape:locked="false"/>
    <sodipodi:guide position="14960,820.00003" orientation="0,1" id="guide1028" inkscape:locked="false"/>
    <sodipodi:guide position="0,0" orientation="0,1" id="guide1030" inkscape:locked="false"/>
    <sodipodi:guide position="17640,660" orientation="0,1" id="guide1122" inkscape:locked="false"/>
    <sodipodi:guide position="4810,860" orientation="0,1" id="guide1263" inkscape:locked="false"/>
    <sodipodi:guide position="14730,430" orientation="0,1" id="guide1490" inkscape:locked="false"/>
  </sodipodi:namedview>
  <metadata id="metadata5">
    <rdf:RDF>
      <cc:Work rdf:about="">
        <dc:format>image/svg+xml</dc:format>
        <dc:type rdf:resource="http://purl.org/dc/dcmitype/StillImage"/>
        <dc:title/>
      </cc:Work>
    </rdf:RDF>
  </metadata>
  <svg:g inkscape:groupmode="layer" id="layer5" inkscape:label="Orelega Extra" style="display:none">
    <svg:path style="opacity:1;vector-effect:none;fill:#000000;fill-opacity:1;fill-rule:nonzero;stroke:none;stroke-width:80;stroke-linecap:butt;stroke-linejoin:round;stroke-miterlimit:4;stroke-dasharray:none;stroke-dashoffset:0;stroke-opacity:1;paint-order:stroke fill markers" d="m 11150,204 c -215.391,0 -390,174.60895 -390,390 0,215.39105 174.609,390 390,390 215.391,0 390,-174.60895 390,-390 0,-215.39105 -174.609,-390 -390,-390 z m 17.836,63.41992 c 39.353,0.39326 83.95,13.15039 132.664,41.27539 87.559,50.55219 130.012,106.53828 130.012,169.49024 0,30.44453 -9.929,62.51865 -29.487,96.39453 -80,138.56407 -258.205,47.22403 -288.205,99.18554 l -43.3,-25 c -1.961,-116.60253 161.601,-79.9035 201.601,-149.18554 25,-43.30127 24.021,-101.60368 -36.601,-136.60352 -27.699,-15.99182 -57.198,-23.17441 -84.01,-17.21875 10.823,13.97672 16.738,31.14473 16.748,48.82227 0.02,44.18277 -35.817,80 -80,80 -44.183,0 -80.008,-35.81722 -80,-80 0,-21.03739 10.159,-39.59808 23.096,-56.1875 33.607,-43.09509 78.708,-71.56 137.482,-70.97266 z M 11018,718 c 44.183,0 80,35.81722 80,80 0,44.18278 -35.817,80 -80,80 -44.183,0 -80,-35.81722 -80,-80 0,-44.18278 35.817,-80 80,-80 z" id="path2264" inkscape:connector-curvature="0"/>
    <svg:path style="display:inline;opacity:1;vector-effect:none;fill:#000000;fill-opacity:1;fill-rule:nonzero;stroke:none;stroke-width:8;stroke-linecap:round;stroke-linejoin:round;stroke-miterlimit:4;stroke-dasharray:none;stroke-dashoffset:0;stroke-opacity:1;paint-order:stroke fill markers" d="m 1140,424 c -40,69.28203 -60,80 -100.0022,80 h -20 v 80 H 1100 v 160 h -80.0022 v 80 H 1320 v -80 h -80 V 424 Z" id="rect1289-8-8" inkscape:connector-curvature="0" sodipodi:nodetypes="csccccccccccc"/>
    <svg:circle id="circle1755-6-4" style="display:inline;opacity:1;vector-effect:none;fill:#000000;fill-opacity:1;fill-rule:nonzero;stroke:none;stroke-width:8;stroke-linecap:round;stroke-linejoin:round;stroke-miterlimit:4;stroke-dasharray:none;stroke-dashoffset:0;stroke-opacity:1;paint-order:stroke fill markers" cx="1530" cy="544" r="70"/>
    <svg:path style="display:inline;opacity:1;vector-effect:none;fill:#000000;fill-opacity:1;fill-rule:nonzero;stroke:none;stroke-width:8;stroke-linecap:round;stroke-linejoin:round;stroke-miterlimit:4;stroke-dasharray:none;stroke-dashoffset:0;stroke-opacity:1;paint-order:stroke fill markers" d="m 1460,544 c 0,-70 80,-130 170,-130 174.9854,0 230,30 230,120 0,110 -270,170 -270,210 -53.2539,40.79248 -130,80 -130,80 0,-140 100,-190 190,-230 32.9479,-14.64353 70,-40 70,-60 0,-30 -17.8912,-40 -90,-40 -59.8781,0 -107.1429,50 -90,80" id="path2155-6" inkscape:connector-curvature="0" sodipodi:nodetypes="cssccsssc"/>
    <svg:circle id="circle2164-5" style="display:inline;opacity:1;vector-effect:none;fill:#000000;fill-opacity:1;fill-rule:nonzero;stroke:none;stroke-width:8;stroke-linecap:round;stroke-linejoin:round;stroke-miterlimit:4;stroke-dasharray:none;stroke-dashoffset:0;stroke-opacity:1;paint-order:stroke fill markers" cx="2050" cy="-704" transform="scale(1,-1)" r="70"/>
    <svg:path style="display:inline;opacity:1;vector-effect:none;fill:#000000;fill-opacity:1;fill-rule:nonzero;stroke:none;stroke-width:8;stroke-linecap:round;stroke-linejoin:round;stroke-miterlimit:4;stroke-dasharray:none;stroke-dashoffset:0;stroke-opacity:1;paint-order:stroke fill markers" d="m 1980,704 c 0,70 45.0146,130 220,130 150,0 200,-50 200,-130 0,-60 -30.0022,-90 -150.0022,-90 H 2150 v 50 h 50 c 50,0 60,10 60,30 0,50 -30,60 -80.0022,60 C 2120.1197,754 2080,741.32051 2090,704" id="path2166-5" inkscape:connector-curvature="0" sodipodi:nodetypes="csssccsssc"/>
    <svg:path style="display:inline;opacity:1;vector-effect:none;fill:#000000;fill-opacity:1;fill-rule:nonzero;stroke:none;stroke-width:9.23760414;stroke-linecap:round;stroke-linejoin:round;stroke-miterlimit:4;stroke-dasharray:none;stroke-dashoffset:0;stroke-opacity:1;paint-order:stroke fill markers" d="M 2679.9978,424 C 2650,504 2590,584 2519.9978,644 v 80 h 230 v 20 H 2660 v 80 h 260 v -80 h -50 v -20 h 50 v -80 h -50 V 504 h -60 c -10,20 -30,50 -60.0022,70 v 70 H 2630 c 70,-40 150,-120 189.9978,-220 z" id="rect1553-8-6" inkscape:connector-curvature="0" sodipodi:nodetypes="ccccccccccccccccccccc"/>
    <svg:path style="display:inline;opacity:1;vector-effect:none;fill:#000000;fill-opacity:1;fill-rule:nonzero;stroke:none;stroke-width:9.23760414;stroke-linecap:round;stroke-linejoin:round;stroke-miterlimit:4;stroke-dasharray:none;stroke-dashoffset:0;stroke-opacity:1;paint-order:stroke fill markers" d="m 1460,824 h 400 V 664 h -90 v 60 h -190" id="path1581-1-0-8" inkscape:connector-curvature="0" sodipodi:nodetypes="cccccc"/>
    <svg:circle r="70" cy="544" cx="2060" style="display:inline;opacity:1;vector-effect:none;fill:#000000;fill-opacity:1;fill-rule:nonzero;stroke:none;stroke-width:8;stroke-linecap:round;stroke-linejoin:round;stroke-miterlimit:4;stroke-dasharray:none;stroke-dashoffset:0;stroke-opacity:1;paint-order:stroke fill markers" id="circle1575"/>
    <svg:path sodipodi:nodetypes="csssccsssc" inkscape:connector-curvature="0" id="path1577" d="m 1990,544 c 0,-70 50,-130 210,-130 140,0 190,60 190,120 0,60 -70,90 -140.0022,90 H 2150 v -40 h 50 c 50,0 50,-20 50,-40 0,-40 -20,-50 -70.0022,-50 C 2120.1197,494 2100,506.67949 2110,544" style="display:inline;opacity:1;vector-effect:none;fill:#000000;fill-opacity:1;fill-rule:nonzero;stroke:none;stroke-width:8;stroke-linecap:round;stroke-linejoin:round;stroke-miterlimit:4;stroke-dasharray:none;stroke-dashoffset:0;stroke-opacity:1;paint-order:stroke fill markers"/>
    <svg:rect style="display:inline;opacity:1;vector-effect:none;fill:#000000;fill-opacity:1;fill-rule:nonzero;stroke:none;stroke-width:8;stroke-linecap:round;stroke-linejoin:round;stroke-miterlimit:4;stroke-dasharray:none;stroke-dashoffset:0;stroke-opacity:1;paint-order:stroke fill markers" id="rect993-5" width="280" height="80" x="3040" y="744"/>
    <svg:rect style="display:inline;opacity:1;vector-effect:none;fill:#000000;fill-opacity:1;fill-rule:nonzero;stroke:none;stroke-width:8;stroke-linecap:round;stroke-linejoin:round;stroke-miterlimit:4;stroke-dasharray:none;stroke-dashoffset:0;stroke-opacity:1;paint-order:stroke fill markers" id="rect996-6" width="140" height="380" x="3090" y="363.99997"/>
    <svg:rect style="display:inline;opacity:1;vector-effect:none;fill:#000000;fill-opacity:1;fill-rule:nonzero;stroke:none;stroke-width:8;stroke-linecap:round;stroke-linejoin:round;stroke-miterlimit:4;stroke-dasharray:none;stroke-dashoffset:0;stroke-opacity:1;paint-order:stroke fill markers" id="rect998-0" width="360" height="80.000031" x="3020" y="363.99994"/>
    <svg:circle id="circle991-1-6" style="display:inline;opacity:1;vector-effect:none;fill:#000000;fill-opacity:1;fill-rule:nonzero;stroke:none;stroke-width:9.14285755;stroke-linecap:round;stroke-linejoin:round;stroke-miterlimit:4;stroke-dasharray:none;stroke-dashoffset:0;stroke-opacity:1;paint-order:stroke fill markers" cx="3340" cy="253.99994" r="80"/>
    <svg:path style="display:inline;opacity:1;vector-effect:none;fill:#000000;fill-opacity:1;fill-rule:nonzero;stroke:none;stroke-width:8;stroke-linecap:round;stroke-linejoin:round;stroke-miterlimit:4;stroke-dasharray:none;stroke-dashoffset:0;stroke-opacity:1;paint-order:stroke fill markers" d="m 3409.282,213.99994 c -16.9942,-29.43489 -59.282,-50 -129.282,-50 -140,0 -190,77.22343 -190,200 h 140 c 0,-79.99997 10,-120 30,-120 15.4404,0 25.7135,10.00006 25.6755,20.00006" id="path1015-8" inkscape:connector-curvature="0" sodipodi:nodetypes="csccsc"/>
    <svg:path id="path1104-8" d="m 4290,364 v 80 h 50 v 300 h -50 v 80 h 240 v -80 h -50 V 364 Z" style="display:inline;opacity:1;vector-effect:none;fill:#000000;fill-opacity:1;fill-rule:nonzero;stroke:none;stroke-width:9.14285755;stroke-linecap:round;stroke-linejoin:round;stroke-miterlimit:4;stroke-dasharray:none;stroke-dashoffset:0;stroke-opacity:1;paint-order:stroke fill markers" inkscape:connector-curvature="0" sodipodi:nodetypes="ccccccccccc"/>
    <svg:rect y="744" x="3970" height="80" width="260" id="rect1615" style="display:inline;opacity:1;vector-effect:none;fill:#000000;fill-opacity:1;fill-rule:nonzero;stroke:none;stroke-width:8;stroke-linecap:round;stroke-linejoin:round;stroke-miterlimit:4;stroke-dasharray:none;stroke-dashoffset:0;stroke-opacity:1;paint-order:stroke fill markers"/>
    <svg:rect y="363.99997" x="4020" height="380" width="140" id="rect1617" style="display:inline;opacity:1;vector-effect:none;fill:#000000;fill-opacity:1;fill-rule:nonzero;stroke:none;stroke-width:8;stroke-linecap:round;stroke-linejoin:round;stroke-miterlimit:4;stroke-dasharray:none;stroke-dashoffset:0;stroke-opacity:1;paint-order:stroke fill markers"/>
    <svg:rect y="363.99994" x="3950" height="80.000031" width="360" id="rect1619" style="display:inline;opacity:1;vector-effect:none;fill:#000000;fill-opacity:1;fill-rule:nonzero;stroke:none;stroke-width:8;stroke-linecap:round;stroke-linejoin:round;stroke-miterlimit:4;stroke-dasharray:none;stroke-dashoffset:0;stroke-opacity:1;paint-order:stroke fill markers"/>
    <svg:circle r="80" cy="253.99994" cx="4390" style="display:inline;opacity:1;vector-effect:none;fill:#000000;fill-opacity:1;fill-rule:nonzero;stroke:none;stroke-width:9.14285755;stroke-linecap:round;stroke-linejoin:round;stroke-miterlimit:4;stroke-dasharray:none;stroke-dashoffset:0;stroke-opacity:1;paint-order:stroke fill markers" id="circle1621"/>
    <svg:path sodipodi:nodetypes="csccsc" inkscape:connector-curvature="0" id="path1623" d="m 4459.282,213.99994 c -23.0939,-39.99994 -59.282,-50 -179.282,-50 -180,0 -260,77.22343 -260,200 h 140 c 0,-79.99997 74.7579,-120 110,-120 24.4604,0 50,10.00006 50,20.00006" style="display:inline;opacity:1;vector-effect:none;fill:#000000;fill-opacity:1;fill-rule:nonzero;stroke:none;stroke-width:8;stroke-linecap:round;stroke-linejoin:round;stroke-miterlimit:4;stroke-dasharray:none;stroke-dashoffset:0;stroke-opacity:1;paint-order:stroke fill markers"/>
    <svg:rect y="744" x="3380" height="80" width="300" id="rect1625" style="display:inline;opacity:1;vector-effect:none;fill:#000000;fill-opacity:1;fill-rule:nonzero;stroke:none;stroke-width:8;stroke-linecap:round;stroke-linejoin:round;stroke-miterlimit:4;stroke-dasharray:none;stroke-dashoffset:0;stroke-opacity:1;paint-order:stroke fill markers"/>
    <svg:rect y="363.99997" x="3430" height="380" width="140" id="rect1627" style="display:inline;opacity:1;vector-effect:none;fill:#000000;fill-opacity:1;fill-rule:nonzero;stroke:none;stroke-width:8;stroke-linecap:round;stroke-linejoin:round;stroke-miterlimit:4;stroke-dasharray:none;stroke-dashoffset:0;stroke-opacity:1;paint-order:stroke fill markers"/>
    <svg:rect y="363.99994" x="3360" height="80.000031" width="360" id="rect1629" style="display:inline;opacity:1;vector-effect:none;fill:#000000;fill-opacity:1;fill-rule:nonzero;stroke:none;stroke-width:8;stroke-linecap:round;stroke-linejoin:round;stroke-miterlimit:4;stroke-dasharray:none;stroke-dashoffset:0;stroke-opacity:1;paint-order:stroke fill markers"/>
    <svg:circle r="80" cy="253.99994" cx="3700" style="display:inline;opacity:1;vector-effect:none;fill:#000000;fill-opacity:1;fill-rule:nonzero;stroke:none;stroke-width:9.14285755;stroke-linecap:round;stroke-linejoin:round;stroke-miterlimit:4;stroke-dasharray:none;stroke-dashoffset:0;stroke-opacity:1;paint-order:stroke fill markers" id="circle1631"/>
    <svg:path sodipodi:nodetypes="csccsc" inkscape:connector-curvature="0" id="path1633" d="m 3769.282,213.99994 c -16.9942,-29.43489 -59.282,-50 -129.282,-50 -140,0 -210,77.22343 -210,200 h 140 c 0,-79.99997 14.7579,-120 50,-120 24.4604,0 71.5349,-32.6804 100,-10" style="display:inline;opacity:1;vector-effect:none;fill:#000000;fill-opacity:1;fill-rule:nonzero;stroke:none;stroke-width:8;stroke-linecap:round;stroke-linejoin:round;stroke-miterlimit:4;stroke-dasharray:none;stroke-dashoffset:0;stroke-opacity:1;paint-order:stroke fill markers"/>
    <svg:rect y="744" x="5330" height="80" width="260" id="rect1635" style="display:inline;opacity:1;vector-effect:none;fill:#000000;fill-opacity:1;fill-rule:nonzero;stroke:none;stroke-width:8;stroke-linecap:round;stroke-linejoin:round;stroke-miterlimit:4;stroke-dasharray:none;stroke-dashoffset:0;stroke-opacity:1;paint-order:stroke fill markers"/>
    <svg:rect y="363.99997" x="5380" height="380" width="140" id="rect1637" style="display:inline;opacity:1;vector-effect:none;fill:#000000;fill-opacity:1;fill-rule:nonzero;stroke:none;stroke-width:8;stroke-linecap:round;stroke-linejoin:round;stroke-miterlimit:4;stroke-dasharray:none;stroke-dashoffset:0;stroke-opacity:1;paint-order:stroke fill markers"/>
    <svg:rect y="363.99994" x="5310" height="80.000031" width="320" id="rect1639" style="display:inline;opacity:1;vector-effect:none;fill:#000000;fill-opacity:1;fill-rule:nonzero;stroke:none;stroke-width:8;stroke-linecap:round;stroke-linejoin:round;stroke-miterlimit:4;stroke-dasharray:none;stroke-dashoffset:0;stroke-opacity:1;paint-order:stroke fill markers"/>
    <svg:path sodipodi:nodetypes="sccsccccccccs" inkscape:connector-curvature="0" id="path1643" d="m 5590,163.99994 c -140,0 -210,77.22343 -210,200 h 140 c 0,-79.99997 40,-120 90,-120 30,0 62.7018,7.55795 90,20.00006 v 480 h -50 v 80 h 240 v -80 h -50 V 203.99998 c -70,-1e-5 -110,-40.00004 -250,-40.00004 z" style="display:inline;opacity:1;vector-effect:none;fill:#000000;fill-opacity:1;fill-rule:nonzero;stroke:none;stroke-width:8;stroke-linecap:round;stroke-linejoin:round;stroke-miterlimit:4;stroke-dasharray:none;stroke-dashoffset:0;stroke-opacity:1;paint-order:stroke fill markers"/>
    <svg:path style="display:inline;opacity:1;vector-effect:none;fill:#000000;fill-opacity:1;fill-rule:nonzero;stroke:none;stroke-width:9.14285755;stroke-linecap:round;stroke-linejoin:round;stroke-miterlimit:4;stroke-dasharray:none;stroke-dashoffset:0;stroke-opacity:1;paint-order:stroke fill markers" d="m 6300,364 v 80 h 50 v 380 c 0,79.99997 5.2421,120 -30,120 -24.4604,0 -71.5349,32.6804 -100,10 l -47.282,20 c 18.7431,32.4642 47.1801,50 127.282,50 140,0 190,-77.22343 190,-200 V 364 Z" id="path1112-7" inkscape:connector-curvature="0" sodipodi:nodetypes="cccssccsscc"/>
    <svg:circle transform="scale(-1)" id="path1116-6" style="display:inline;opacity:1;vector-effect:none;fill:#000000;fill-opacity:1;fill-rule:nonzero;stroke:none;stroke-width:9.14285755;stroke-linecap:round;stroke-linejoin:round;stroke-miterlimit:4;stroke-dasharray:none;stroke-dashoffset:0;stroke-opacity:1;paint-order:stroke fill markers" cx="-6242" cy="-934" r="80"/>
    <svg:rect style="display:inline;opacity:1;vector-effect:none;fill:#000000;fill-opacity:1;fill-rule:nonzero;stroke:none;stroke-width:8;stroke-linecap:round;stroke-linejoin:round;stroke-miterlimit:4;stroke-dasharray:none;stroke-dashoffset:0;stroke-opacity:1;paint-order:stroke fill markers" id="rect1663" width="280" height="80" x="5980" y="744"/>
    <svg:rect style="display:inline;opacity:1;vector-effect:none;fill:#000000;fill-opacity:1;fill-rule:nonzero;stroke:none;stroke-width:8;stroke-linecap:round;stroke-linejoin:round;stroke-miterlimit:4;stroke-dasharray:none;stroke-dashoffset:0;stroke-opacity:1;paint-order:stroke fill markers" id="rect1665" width="140" height="380" x="6030" y="363.99997"/>
    <svg:rect style="display:inline;opacity:1;vector-effect:none;fill:#000000;fill-opacity:1;fill-rule:nonzero;stroke:none;stroke-width:8;stroke-linecap:round;stroke-linejoin:round;stroke-miterlimit:4;stroke-dasharray:none;stroke-dashoffset:0;stroke-opacity:1;paint-order:stroke fill markers" id="rect1667" width="360" height="80.000031" x="5960" y="363.99994"/>
    <svg:circle id="circle1669" style="display:inline;opacity:1;vector-effect:none;fill:#000000;fill-opacity:1;fill-rule:nonzero;stroke:none;stroke-width:9.14285755;stroke-linecap:round;stroke-linejoin:round;stroke-miterlimit:4;stroke-dasharray:none;stroke-dashoffset:0;stroke-opacity:1;paint-order:stroke fill markers" cx="6400" cy="253.99994" r="80"/>
    <svg:path style="display:inline;opacity:1;vector-effect:none;fill:#000000;fill-opacity:1;fill-rule:nonzero;stroke:none;stroke-width:8;stroke-linecap:round;stroke-linejoin:round;stroke-miterlimit:4;stroke-dasharray:none;stroke-dashoffset:0;stroke-opacity:1;paint-order:stroke fill markers" d="m 6469.282,213.99994 c -23.0939,-39.99994 -59.282,-50 -179.282,-50 -180,0 -260,77.22343 -260,200 h 140 c 0,-79.99997 74.7579,-120 110,-120 24.4604,0 50,10.00006 50,20.00006" id="path1671" inkscape:connector-curvature="0" sodipodi:nodetypes="csccsc"/>
    <svg:path sodipodi:nodetypes="ccccccccccc" inkscape:connector-curvature="0" style="display:inline;opacity:1;vector-effect:none;fill:#000000;fill-opacity:1;fill-rule:nonzero;stroke:none;stroke-width:9.14285755;stroke-linecap:round;stroke-linejoin:round;stroke-miterlimit:4;stroke-dasharray:none;stroke-dashoffset:0;stroke-opacity:1;paint-order:stroke fill markers" d="m 4990,364 v 80 h 50 v 300 h -50 v 80 h 240 v -80 h -50 V 364 Z" id="path1673"/>
    <svg:rect style="display:inline;opacity:1;vector-effect:none;fill:#000000;fill-opacity:1;fill-rule:nonzero;stroke:none;stroke-width:8;stroke-linecap:round;stroke-linejoin:round;stroke-miterlimit:4;stroke-dasharray:none;stroke-dashoffset:0;stroke-opacity:1;paint-order:stroke fill markers" id="rect1675" width="280" height="80" x="4650" y="744"/>
    <svg:rect style="display:inline;opacity:1;vector-effect:none;fill:#000000;fill-opacity:1;fill-rule:nonzero;stroke:none;stroke-width:8;stroke-linecap:round;stroke-linejoin:round;stroke-miterlimit:4;stroke-dasharray:none;stroke-dashoffset:0;stroke-opacity:1;paint-order:stroke fill markers" id="rect1677" width="140" height="380" x="4700" y="363.99997"/>
    <svg:rect style="display:inline;opacity:1;vector-effect:none;fill:#000000;fill-opacity:1;fill-rule:nonzero;stroke:none;stroke-width:8;stroke-linecap:round;stroke-linejoin:round;stroke-miterlimit:4;stroke-dasharray:none;stroke-dashoffset:0;stroke-opacity:1;paint-order:stroke fill markers" id="rect1679" width="360" height="80.000031" x="4630" y="363.99994"/>
    <svg:circle style="display:inline;opacity:1;vector-effect:none;fill:#000000;fill-opacity:1;fill-rule:nonzero;stroke:none;stroke-width:9.14285755;stroke-linecap:round;stroke-linejoin:round;stroke-miterlimit:4;stroke-dasharray:none;stroke-dashoffset:0;stroke-opacity:1;paint-order:stroke fill markers" id="circle1686" cx="4940" cy="253.99994" r="80"/>
    <svg:path sodipodi:nodetypes="csccsc" inkscape:connector-curvature="0" id="path1688" d="m 5009.282,213.99994 c -16.9942,-29.43489 -49.282,-50 -119.282,-50 -140,0 -190,77.22343 -190,200 h 140 c 0,-79.99997 4.3245,-120 24.3245,-120 15.4404,0 25.7135,10.00006 25.6755,20.00006" style="display:inline;opacity:1;vector-effect:none;fill:#000000;fill-opacity:1;fill-rule:nonzero;stroke:none;stroke-width:8;stroke-linecap:round;stroke-linejoin:round;stroke-miterlimit:4;stroke-dasharray:none;stroke-dashoffset:0;stroke-opacity:1;paint-order:stroke fill markers"/>
    <svg:circle style="display:inline;opacity:1;vector-effect:none;fill:#000000;fill-opacity:1;fill-rule:nonzero;stroke:none;stroke-width:8;stroke-linecap:round;stroke-linejoin:round;stroke-miterlimit:4;stroke-dasharray:none;stroke-dashoffset:0;stroke-opacity:1;paint-order:stroke fill markers" id="circle1237-6-6" cx="6940" cy="264" r="70"/>
    <svg:circle r="70" cy="914" cx="6700" id="circle1266-0" style="display:inline;opacity:1;vector-effect:none;fill:#000000;fill-opacity:1;fill-rule:nonzero;stroke:none;stroke-width:8;stroke-linecap:round;stroke-linejoin:round;stroke-miterlimit:4;stroke-dasharray:none;stroke-dashoffset:0;stroke-opacity:1;paint-order:stroke fill markers"/>
    <svg:path style="display:inline;opacity:1;vector-effect:none;fill:#000000;fill-opacity:1;fill-rule:nonzero;stroke:none;stroke-width:8;stroke-linecap:round;stroke-linejoin:round;stroke-miterlimit:4;stroke-dasharray:none;stroke-dashoffset:0;stroke-opacity:1;paint-order:stroke fill markers" d="m 6890,894 c 0,32.724 -10,50 -80,50 -40,0 -50,-12.679 -60,-30 h -120 v 0 c 0,70 70,110 170.603,110 C 6920,1024 7020,994 7020,874 7020,768.50638 6920.0568,750.94251 6843.8962,730.03072 6740.1738,701.55116 6710,654 6710,574 c 0,-64.93907 40,-135 90,-160 l -50,-40 c -120,40 -180,130 -180,230 0,110 80,181.07602 186.1936,213.89532 C 6820.9009,837.8932 6890,841.64988 6890,894 Z" id="path1868" inkscape:connector-curvature="0" sodipodi:nodetypes="sscccssssccsss"/>
    <svg:path style="display:inline;opacity:1;vector-effect:none;fill:#000000;fill-opacity:1;fill-rule:nonzero;stroke:none;stroke-width:8;stroke-linecap:round;stroke-linejoin:round;stroke-miterlimit:4;stroke-dasharray:none;stroke-dashoffset:0;stroke-opacity:1;paint-order:stroke fill markers" d="m 6900,804 c 80,-30 180,-92.27084 180,-250 0,-100 -97.1306,-176.18574 -236.1038,-213.96928 C 6797.2942,327.36074 6760,311.94493 6760,274 c 0,-32.724 27.01,-40 70,-40 40,0 50,12.679 60,30 h 120 C 7010,214 6950,164 6839.397,164 6740,164 6640,184 6640,304 c 0,81.0048 56.676,107.83581 116.1936,123.89532 C 6890,464 6940,534 6940,584 c 0,60 -30,140 -90,170" id="path1287-9" inkscape:connector-curvature="0" sodipodi:nodetypes="cssssccssssc"/>
    <svg:path style="display:inline;opacity:1;vector-effect:none;fill:#000000;fill-opacity:1;fill-rule:nonzero;stroke:none;stroke-width:9.14285755;stroke-linecap:round;stroke-linejoin:round;stroke-miterlimit:4;stroke-dasharray:none;stroke-dashoffset:0;stroke-opacity:1;paint-order:stroke fill markers" d="m 7389.9979,194 c -115.9797,5.1e-4 -210.0001,83.35965 -210.0001,210.71427 0,127.35462 94.0204,210.71376 210.0001,210.71427 C 7505.9785,615.42905 7600,532.06974 7600,404.71427 7600,277.35881 7505.9785,193.99949 7389.9979,194 Z m 10e-5,80 c 43.6316,0.4096 70.002,33.61224 70.002,130.71427 0,97.10203 -26.3704,130.71448 -70.002,130.71427 -43.6314,-2.1e-4 -70.0002,-31.74489 -70.0002,-130.71427 0,-98.96938 26.3688,-131.12387 70.0002,-130.71427 z" id="path914-5-28" inkscape:connector-curvature="0" sodipodi:nodetypes="ssssssssss"/>
    <svg:circle style="display:inline;opacity:1;vector-effect:none;fill:#000000;fill-opacity:1;fill-rule:nonzero;stroke:none;stroke-width:8.0816412;stroke-linecap:round;stroke-linejoin:round;stroke-miterlimit:4;stroke-dasharray:none;stroke-dashoffset:0;stroke-opacity:1;paint-order:stroke fill markers" id="path846-19" cx="7749.2856" cy="294.00003" r="70.714355"/>
    <svg:path style="display:inline;opacity:1;vector-effect:none;fill:#000000;fill-opacity:1;fill-rule:nonzero;stroke:none;stroke-width:9.14285755;stroke-linecap:round;stroke-linejoin:round;stroke-miterlimit:4;stroke-dasharray:none;stroke-dashoffset:0;stroke-opacity:1;paint-order:stroke fill markers" d="m 7790,383.71484 c -80,0 -140,30.28516 -140,105.58983 C 7650,574 7710,614 7790,614 c 86.3164,0 120.4486,-19.01099 157.8004,-94.5273 l -19.2413,-30.16803 19.2413,-30.16975 C 7914.5087,406.41762 7876.3164,383.71484 7790,383.71484 Z m 62.9259,61.34143 c 26.0136,0 58.8664,23.13068 73.9524,44.46322 -12.0923,23.06891 -47.4283,54.08729 -78.8108,54.08729 -42.1412,0 -58.0675,-19.71679 -58.0675,-54.30211 0,-30.16853 20.3429,-44.2484 62.9259,-44.2484 z" id="path848-1" inkscape:connector-curvature="0" sodipodi:nodetypes="ssscccsscsss"/>
    <svg:path style="display:inline;opacity:1;vector-effect:none;fill:#000000;fill-opacity:1;fill-rule:nonzero;stroke:none;stroke-width:9.14285755;stroke-linecap:round;stroke-linejoin:round;stroke-miterlimit:4;stroke-dasharray:none;stroke-dashoffset:0;stroke-opacity:1;paint-order:stroke fill markers" d="m 8050,362.7192 c 0,-101.39548 -66.281,-168.71924 -177.909,-168.71924 -97.196,0 -141.5504,18.73989 -172.808,49.99747 l 50.0026,70.0026 L 7810,284 c 2.6139,-4.25906 17.1428,-10 40,-10 53.2009,0 70,12.85714 70,74.0783 V 524 l 34.2857,80 H 8070 v -80 h -20 z" id="path867-6" inkscape:connector-curvature="0" sodipodi:nodetypes="sscccsccccccs"/>
    <svg:path style="display:inline;opacity:1;vector-effect:none;fill:#000000;fill-opacity:1;fill-rule:nonzero;stroke:none;stroke-width:8.58469391;stroke-linecap:round;stroke-linejoin:round;stroke-miterlimit:4;stroke-dasharray:none;stroke-dashoffset:0;stroke-opacity:1;paint-order:stroke fill markers" d="M 590,264 V 414 H 440 v 80 h 150 v 150 h 80 V 494 H 820 V 414 H 670 V 264 Z M 440,684 v 80 h 380 v -80 z" id="rect2343-7" inkscape:connector-curvature="0" sodipodi:nodetypes="cccccccccccccccccc"/>
    <svg:path style="opacity:1;vector-effect:none;fill:#000000;fill-opacity:1;fill-rule:nonzero;stroke:none;stroke-width:80;stroke-linecap:butt;stroke-linejoin:round;stroke-miterlimit:4;stroke-dasharray:none;stroke-dashoffset:0;stroke-opacity:1;paint-order:stroke fill markers" d="M 150,324 V 474 H 0 v 80 h 150 v 150 h 80 V 554 H 380 V 474 H 230 V 324 Z" id="rect1948" inkscape:connector-curvature="0"/>
    <svg:path style="opacity:1;vector-effect:none;fill:#000000;fill-opacity:1;fill-rule:nonzero;stroke:none;stroke-width:80;stroke-linecap:butt;stroke-linejoin:round;stroke-miterlimit:4;stroke-dasharray:none;stroke-dashoffset:0;stroke-opacity:1;paint-order:stroke fill markers" d="m 8120,424 v 80 h 300 v 100 h 80 V 424 Z" id="rect1956" inkscape:connector-curvature="0"/>
    <svg:path style="display:inline;opacity:1;vector-effect:none;fill:#000000;fill-opacity:1;fill-rule:nonzero;stroke:none;stroke-width:20;stroke-linecap:round;stroke-linejoin:round;stroke-miterlimit:4;stroke-dasharray:none;stroke-dashoffset:0;stroke-opacity:1;paint-order:stroke fill markers" d="m 8560,654 v -60 h 80 l 140,30 v 140 z" id="path2394-0" inkscape:connector-curvature="0" sodipodi:nodetypes="cccccc"/>
    <svg:use x="0" y="0" xlink:href="#path2394-0" id="use2081" transform="matrix(1,0,0,-1,0,1188)" width="100%" height="100%"/>
    <svg:use height="100%" width="100%" transform="matrix(1,0,0,-1,260,1188)" id="use2083" xlink:href="#path2394-0" y="0" x="0"/>
    <svg:use x="0" y="0" xlink:href="#path2394-0" id="use2085" transform="translate(260)" width="100%" height="100%"/>
    <svg:path style="display:inline;opacity:1;vector-effect:none;fill:#000000;fill-opacity:1;fill-rule:nonzero;stroke:none;stroke-width:9.14285755;stroke-linecap:round;stroke-linejoin:round;stroke-miterlimit:4;stroke-dasharray:none;stroke-dashoffset:0;stroke-opacity:1;paint-order:stroke fill markers" d="m 9130,364 v 80 h 50 v 460 h -50 v 80 h 240 v -80 h -50 V 364 Z" id="path941-7-5" inkscape:connector-curvature="0"/>
    <svg:path style="display:inline;opacity:1;vector-effect:none;fill:#000000;fill-opacity:1;fill-rule:nonzero;stroke:none;stroke-width:9.14285755;stroke-linecap:round;stroke-linejoin:round;stroke-miterlimit:4;stroke-dasharray:none;stroke-dashoffset:0;stroke-opacity:1;paint-order:stroke fill markers" d="m 9310,814 c 10,10 30,20 70,20 60,0 80,-20 100,-50 l 24.8223,40 H 9660 v -80 h -50 V 364 h -190 v 80 h 50 l -1.0723,232.81055 C 9460,707.64245 9418.1418,744 9390,744 c -44,0 -70,-40 -70,-120" id="path1359-6" inkscape:connector-curvature="0" sodipodi:nodetypes="csccccccccccsc"/>
    <svg:text xml:space="preserve" style="font-style:normal;font-variant:normal;font-weight:bold;font-stretch:normal;font-size:1000px;line-height:1;font-family:'Clarendon LT Std';-inkscape-font-specification:'Clarendon LT Std Bold';font-variant-ligatures:normal;font-variant-caps:normal;font-variant-numeric:normal;font-feature-settings:normal;text-align:start;writing-mode:lr-tb;text-anchor:start;opacity:1;vector-effect:none;fill:#000000;fill-opacity:1;fill-rule:nonzero;stroke:none;stroke-width:80;stroke-linecap:butt;stroke-linejoin:round;stroke-miterlimit:4;stroke-dasharray:none;stroke-dashoffset:0;stroke-opacity:1;paint-order:stroke fill markers" x="8240" y="24" id="text2120"><svg:tspan sodipodi:role="line" id="tspan2118" x="8240" y="687"/></svg:text>
    <svg:path style="opacity:1;vector-effect:none;fill:#000000;fill-opacity:1;fill-rule:nonzero;stroke:none;stroke-width:80;stroke-linecap:butt;stroke-linejoin:round;stroke-miterlimit:4;stroke-dasharray:none;stroke-dashoffset:0;stroke-opacity:1;paint-order:stroke fill markers" d="m 9690,474 v 80 h 380 v -80 z" id="path2167" inkscape:connector-curvature="0"/>
    <svg:circle style="opacity:1;vector-effect:none;fill:#000000;fill-opacity:1;fill-rule:nonzero;stroke:none;stroke-width:80;stroke-linecap:butt;stroke-linejoin:round;stroke-miterlimit:4;stroke-dasharray:none;stroke-dashoffset:0;stroke-opacity:1;paint-order:stroke fill markers" id="path2169" cx="9880" cy="374" r="60"/>
    <svg:circle r="60" cy="654" cx="9880" id="circle2171" style="opacity:1;vector-effect:none;fill:#000000;fill-opacity:1;fill-rule:nonzero;stroke:none;stroke-width:80;stroke-linecap:butt;stroke-linejoin:round;stroke-miterlimit:4;stroke-dasharray:none;stroke-dashoffset:0;stroke-opacity:1;paint-order:stroke fill markers"/>
    <svg:path style="opacity:1;vector-effect:none;fill:#000000;fill-opacity:1;fill-rule:nonzero;stroke:none;stroke-width:80;stroke-linecap:butt;stroke-linejoin:round;stroke-miterlimit:4;stroke-dasharray:none;stroke-dashoffset:0;stroke-opacity:1;paint-order:stroke fill markers" d="M 10480,203.99997 V 984 h -44 c 0,-285.44046 4,-450 10,-570 l -206,100 -30,-40 250,-266.84834" id="path2228" inkscape:connector-curvature="0" sodipodi:nodetypes="ccccccc"/>
    <svg:use x="0" y="0" xlink:href="#path2228" id="use2230" transform="matrix(-1,0,0,1,20960,0)" width="100%" height="100%"/>
    <svg:path style="opacity:1;vector-effect:none;fill:#000000;fill-opacity:1;fill-rule:nonzero;stroke:none;stroke-width:80;stroke-linecap:butt;stroke-linejoin:round;stroke-miterlimit:4;stroke-dasharray:none;stroke-dashoffset:0;stroke-opacity:1;paint-order:stroke fill markers" d="m 11950,204 c -216.06,0 -390,173.94 -390,390 0,216.06 173.94,390 390,390 216.06,0 390,-173.94 390,-390 0,-216.06 -173.94,-390 -390,-390 z m 0,80 c 171.74,0 310,138.26 310,310 0,171.74 -138.26,310 -310,310 -171.74,0 -310,-138.26 -310,-310 0,-171.74 138.26,-310 310,-310 z" id="rect2275" inkscape:connector-curvature="0"/>
    <svg:g id="g2300" transform="translate(99.286,40)">
      <svg:path sodipodi:nodetypes="sssccsssccs" inkscape:connector-curvature="0" id="path989-8" d="m 11853.321,314 c -132.318,5.9e-4 -222.607,94.94523 -222.607,240 0,145.05476 91.719,239.99941 224.037,240 113.87,5e-4 189.702,-80 209.702,-160 l -70,-20 c -10,50 -46.042,96.99056 -119.286,96.99023 -56.728,-2.6e-4 -124.453,-35.84738 -124.453,-156.99023 0,-121.14286 63.27,-160 120,-160 65.352,0 73.739,20 93.739,80 l 106.56,-10.70556 C 12046.42,371.51317 11962.036,313.99952 11853.321,314 Z" style="display:inline;opacity:1;vector-effect:none;fill:#000000;fill-opacity:1;fill-rule:nonzero;stroke:none;stroke-width:9.14285755;stroke-linecap:round;stroke-linejoin:round;stroke-miterlimit:4;stroke-dasharray:none;stroke-dashoffset:0;stroke-opacity:1;paint-order:stroke fill markers"/>
      <svg:path style="display:inline;opacity:1;vector-effect:none;fill:#000000;fill-opacity:1;fill-rule:nonzero;stroke:none;stroke-width:9.14285755;stroke-linecap:round;stroke-linejoin:round;stroke-miterlimit:4;stroke-dasharray:none;stroke-dashoffset:0;stroke-opacity:1;paint-order:stroke fill markers" d="m 12013.057,523.99952 c 0,44.18278 35.817,80 80,80 44.183,0 80,-35.81722 80,-80 -0.01,-6.99257 -0.938,-13.95358 -2.758,-20.70508 h -76.781 l -0.461,-59.29492 c -44.183,0 -80,35.81722 -80,80 z" transform="translate(-99.286,-40)" id="circle991-10" inkscape:connector-curvature="0" sodipodi:nodetypes="ssccccs"/>
    </svg:g>
    <svg:path inkscape:connector-curvature="0" id="path2306" d="m 12750,204 c -216.06,0 -390,173.94 -390,390 0,216.06 173.94,390 390,390 216.06,0 390,-173.94 390,-390 0,-216.06 -173.94,-390 -390,-390 z m 0,80 c 171.74,0 310,138.26 310,310 0,171.74 -138.26,310 -310,310 -171.74,0 -310,-138.26 -310,-310 0,-171.74 138.26,-310 310,-310 z" style="opacity:1;vector-effect:none;fill:#000000;fill-opacity:1;fill-rule:nonzero;stroke:none;stroke-width:80;stroke-linecap:butt;stroke-linejoin:round;stroke-miterlimit:4;stroke-dasharray:none;stroke-dashoffset:0;stroke-opacity:1;paint-order:stroke fill markers"/>
    <svg:path style="display:inline;opacity:1;vector-effect:none;fill:#000000;fill-opacity:1;fill-rule:nonzero;stroke:none;stroke-width:9.14285755;stroke-linecap:round;stroke-linejoin:round;stroke-miterlimit:4;stroke-dasharray:none;stroke-dashoffset:0;stroke-opacity:1;paint-order:stroke fill markers" d="m 12550,364.00001 v 80 h 30 v 300 h -30 V 824 h 170 v -79.99999 h -20 L 12701.427,444 Z" id="path1155-4" inkscape:connector-curvature="0" sodipodi:nodetypes="ccccccccccc"/>
    <svg:path style="opacity:1;vector-effect:none;fill:#000000;fill-opacity:1;fill-rule:nonzero;stroke:none;stroke-width:80;stroke-linecap:butt;stroke-linejoin:round;stroke-miterlimit:4;stroke-dasharray:none;stroke-dashoffset:0;stroke-opacity:1;paint-order:stroke fill markers" d="m 12550,364 150,80 h 40 c 60,0 80,10 80,60 0,50 -10,60 -80,60 h -80 v 70 h 60 c 160,0 220,-30 220,-120 0,-80 -20,-150 -200,-150 z" id="path2326" inkscape:connector-curvature="0" sodipodi:nodetypes="ccsssccsssc"/>
    <svg:path style="opacity:1;vector-effect:none;fill:#000000;fill-opacity:1;fill-rule:nonzero;stroke:none;stroke-width:80;stroke-linecap:butt;stroke-linejoin:round;stroke-miterlimit:4;stroke-dasharray:none;stroke-dashoffset:0;stroke-opacity:1;paint-order:stroke fill markers" d="m 12708,644 c 20,0 34.903,10.39661 42,70 11.907,100 30,120 118,120 80,0 102,-70 102,-120 v -30 h -70 v 30 c 0,20 0,40 -10,40 -10,0 -19.382,-18.48573 -22,-50 -6.645,-80 -50,-110 -120,-110 h -70 v 50 z" id="path2329" inkscape:connector-curvature="0" sodipodi:nodetypes="ssscccssscccs"/>
    <svg:path style="display:inline;opacity:1;vector-effect:none;fill:#000000;fill-opacity:1;fill-rule:nonzero;stroke:none;stroke-width:9.23760414;stroke-linecap:round;stroke-linejoin:round;stroke-miterlimit:4;stroke-dasharray:none;stroke-dashoffset:0;stroke-opacity:1;paint-order:stroke fill markers" d="m 13700,203.99997 v 80 h 60 v 300 h -60 v 80 h 220 v -80 h -60 v -202.1055 l 120,202.1055 h 50 l 130,-200.7695 v 200.7695 h -60 v 80 h 240 v -80 h -60 v -300 h 60 v -80 h -179.268 l -120.732,220 -140,-220 z" id="path1765-2" inkscape:connector-curvature="0" sodipodi:nodetypes="cccccccccccccccccccccccccc"/>
    <svg:path style="display:inline;opacity:1;vector-effect:none;fill:#000000;fill-opacity:1;fill-rule:nonzero;stroke:none;stroke-width:9.23760414;stroke-linecap:round;stroke-linejoin:round;stroke-miterlimit:4;stroke-dasharray:none;stroke-dashoffset:0;stroke-opacity:1;paint-order:stroke fill markers" d="m 13200,203.99997 v 200 h 80 v -120 h 80 v 300 h -80 v 80 h 280 v -80 h -80 v -300 h 80 v 120 h 80 v -200 z" id="path1593-6-1" inkscape:connector-curvature="0" sodipodi:nodetypes="ccccccccccccccccc"/>
    <svg:rect style="display:inline;opacity:1;vector-effect:none;fill:#000000;fill-opacity:1;fill-rule:nonzero;stroke:none;stroke-width:8;stroke-linecap:round;stroke-linejoin:round;stroke-miterlimit:4;stroke-dasharray:none;stroke-dashoffset:0;stroke-opacity:1;paint-order:stroke fill markers" id="rect2351" width="260" height="80" x="14420" y="744"/>
    <svg:rect style="display:inline;opacity:1;vector-effect:none;fill:#000000;fill-opacity:1;fill-rule:nonzero;stroke:none;stroke-width:8;stroke-linecap:round;stroke-linejoin:round;stroke-miterlimit:4;stroke-dasharray:none;stroke-dashoffset:0;stroke-opacity:1;paint-order:stroke fill markers" id="rect2353" width="320" height="80.000031" x="14400" y="363.99994"/>
    <svg:path style="display:inline;opacity:1;vector-effect:none;fill:#000000;fill-opacity:1;fill-rule:nonzero;stroke:none;stroke-width:8;stroke-linecap:round;stroke-linejoin:round;stroke-miterlimit:4;stroke-dasharray:none;stroke-dashoffset:0;stroke-opacity:1;paint-order:stroke fill markers" d="m 14680,163.99994 c -140,0 -210,77.22343 -210,200 V 784 h 140 V 363.99994 c 0,-79.99997 40,-120 90,-120 30,0 62.702,7.55795 90,20.00006 v 480 h -50 v 80 h 240 v -80 h -50 V 203.99998 c -70,-1e-5 -110,-40.00004 -250,-40.00004 z" id="path2355" inkscape:connector-curvature="0" sodipodi:nodetypes="sccccsccccccccs"/>
    <svg:path style="display:inline;opacity:1;vector-effect:none;fill:#000000;fill-opacity:1;fill-rule:nonzero;stroke:none;stroke-width:9.14285755;stroke-linecap:round;stroke-linejoin:round;stroke-miterlimit:4;stroke-dasharray:none;stroke-dashoffset:0;stroke-opacity:1;paint-order:stroke fill markers" d="m 15080,354 c -118.964,0 -155.141,89.99938 -163.172,154.81836 l 3.58,41.32617 C 14949.868,485.19092 14990,444 15026,444 c 44,0 64,20 64,100 v 200 h -50 v 80 h 240 v -80 h -50 V 554 c 0,-120 -31.036,-200 -150,-200 z" id="path1079-6" inkscape:connector-curvature="0" sodipodi:nodetypes="sccssccccccss"/>
    <svg:rect y="744" x="15330" height="80" width="260" id="rect2372" style="display:inline;opacity:1;vector-effect:none;fill:#000000;fill-opacity:1;fill-rule:nonzero;stroke:none;stroke-width:8;stroke-linecap:round;stroke-linejoin:round;stroke-miterlimit:4;stroke-dasharray:none;stroke-dashoffset:0;stroke-opacity:1;paint-order:stroke fill markers"/>
    <svg:rect y="363.99994" x="15310" height="80.000061" width="300" id="rect2374" style="display:inline;opacity:1;vector-effect:none;fill:#000000;fill-opacity:1;fill-rule:nonzero;stroke:none;stroke-width:8;stroke-linecap:round;stroke-linejoin:round;stroke-miterlimit:4;stroke-dasharray:none;stroke-dashoffset:0;stroke-opacity:1;paint-order:stroke fill markers"/>
    <svg:path style="display:inline;opacity:1;vector-effect:none;fill:#000000;fill-opacity:1;fill-rule:nonzero;stroke:none;stroke-width:8;stroke-linecap:round;stroke-linejoin:round;stroke-miterlimit:4;stroke-dasharray:none;stroke-dashoffset:0;stroke-opacity:1;paint-order:stroke fill markers" d="m 15590,164 c -140,0 -210,77.22343 -210,200 v 420 h 140 V 364 c 0,-79.99997 40,-120 90,-120 30,0 22.702,7.55789 50,20 v 560 h 66.285 L 15780,744 h 20 V 204 c -70,-1e-5 -70,-40 -210,-40 z" id="path2376" inkscape:connector-curvature="0" sodipodi:nodetypes="ssccssccccccs"/>
    <svg:path style="display:inline;opacity:1;vector-effect:none;fill:#000000;fill-opacity:1;fill-rule:nonzero;stroke:none;stroke-width:9.14285755;stroke-linecap:round;stroke-linejoin:round;stroke-miterlimit:4;stroke-dasharray:none;stroke-dashoffset:0;stroke-opacity:1;paint-order:stroke fill markers" d="m 15953.016,353.99994 c -118.964,0 -168.157,90.00024 -176.188,154.81922 l 23.172,-64.81919 -19.592,106.14508 c 29.46,-64.95361 58.211,-106.14508 107.547,-106.14508 49.337,0 94.413,56.1001 94.413,148.38392 0,92.28382 -29.814,148.75893 -97.607,148.75893 -67.793,0 -98.674,-79.19102 -103.643,-150.17857 L 15770,644 l 4.326,106.26783 c 16.564,23.09004 60.73,83.81918 159.114,83.81918 114.948,0 199.276,-92.94421 199.276,-239.93526 0,-146.99104 -60.736,-240.15181 -179.7,-240.15181 z" id="path906-7" inkscape:connector-curvature="0" sodipodi:nodetypes="scccssscccsss"/>
    <svg:path id="path1123-4" d="m 16860,743.99997 v 80 h 240 v -80" style="display:inline;opacity:1;vector-effect:none;fill:#000000;fill-opacity:1;fill-rule:nonzero;stroke:none;stroke-width:9.14285755;stroke-linecap:round;stroke-linejoin:round;stroke-miterlimit:4;stroke-dasharray:none;stroke-dashoffset:0;stroke-opacity:1;paint-order:stroke fill markers" inkscape:connector-curvature="0" sodipodi:nodetypes="cccc"/>
    <svg:rect style="display:inline;opacity:1;vector-effect:none;fill:#000000;fill-opacity:1;fill-rule:nonzero;stroke:none;stroke-width:8;stroke-linecap:round;stroke-linejoin:round;stroke-miterlimit:4;stroke-dasharray:none;stroke-dashoffset:0;stroke-opacity:1;paint-order:stroke fill markers" id="rect1125-5" width="240" height="80" x="16850" y="363.99997"/>
    <svg:path style="display:inline;opacity:1;vector-effect:none;fill:#000000;fill-opacity:1;fill-rule:nonzero;stroke:none;stroke-width:8;stroke-linecap:round;stroke-linejoin:round;stroke-miterlimit:4;stroke-dasharray:none;stroke-dashoffset:0;stroke-opacity:1;paint-order:stroke fill markers" d="m 16962.143,383.99997 -182.143,200 96.429,22.52539 182.142,-199.99805 z" id="rect1127-9" inkscape:connector-curvature="0" sodipodi:nodetypes="ccccc"/>
    <svg:path style="display:inline;opacity:1;vector-effect:none;fill:#000000;fill-opacity:1;fill-rule:nonzero;stroke:none;stroke-width:8;stroke-linecap:round;stroke-linejoin:round;stroke-miterlimit:4;stroke-dasharray:none;stroke-dashoffset:0;stroke-opacity:1;paint-order:stroke fill markers" d="m 16780,583.99997 133.005,190 H 17080 l -168.006,-240" id="path1129-5" inkscape:connector-curvature="0" sodipodi:nodetypes="cccc"/>
    <svg:rect y="744" x="16250" height="80" width="260" id="rect2425" style="display:inline;opacity:1;vector-effect:none;fill:#000000;fill-opacity:1;fill-rule:nonzero;stroke:none;stroke-width:8;stroke-linecap:round;stroke-linejoin:round;stroke-miterlimit:4;stroke-dasharray:none;stroke-dashoffset:0;stroke-opacity:1;paint-order:stroke fill markers"/>
    <svg:rect y="363.99994" x="16230" height="80.000031" width="320" id="rect2427" style="display:inline;opacity:1;vector-effect:none;fill:#000000;fill-opacity:1;fill-rule:nonzero;stroke:none;stroke-width:8;stroke-linecap:round;stroke-linejoin:round;stroke-miterlimit:4;stroke-dasharray:none;stroke-dashoffset:0;stroke-opacity:1;paint-order:stroke fill markers"/>
    <svg:path sodipodi:nodetypes="sccccsccccccccs" inkscape:connector-curvature="0" id="path2429" d="m 16510,163.99994 c -140,0 -210,77.22343 -210,200 V 784 h 140 V 363.99994 c 0,-79.99997 40,-120 90,-120 30,0 62.702,7.55795 90,20.00006 v 480 h -50 v 80 h 240 v -80 h -50 V 203.99998 c -70,-1e-5 -110,-40.00004 -250,-40.00004 z" style="display:inline;opacity:1;vector-effect:none;fill:#000000;fill-opacity:1;fill-rule:nonzero;stroke:none;stroke-width:8;stroke-linecap:round;stroke-linejoin:round;stroke-miterlimit:4;stroke-dasharray:none;stroke-dashoffset:0;stroke-opacity:1;paint-order:stroke fill markers"/>
    <svg:path style="opacity:1;vector-effect:none;fill:#000000;fill-opacity:1;fill-rule:nonzero;stroke:none;stroke-width:80;stroke-linecap:butt;stroke-linejoin:round;stroke-miterlimit:4;stroke-dasharray:none;stroke-dashoffset:0;stroke-opacity:1;paint-order:stroke fill markers" d="m -80,364 -459.99996,460 h 113.13672 L 33.1368,364 Z" id="rect2431" inkscape:connector-curvature="0"/>
  </svg:g>
  </svg>