<!-- Created with Inkscape (http://www.inkscape.org/) --><svg xmlns:dc="http://purl.org/dc/elements/1.1/" xmlns:cc="http://creativecommons.org/ns#" xmlns:rdf="http://www.w3.org/1999/02/22-rdf-syntax-ns#" xmlns:svg="http://www.w3.org/2000/svg" xmlns="http://www.w3.org/2000/svg" xmlns:xlink="http://www.w3.org/1999/xlink" xmlns:sodipodi="http://sodipodi.sourceforge.net/DTD/sodipodi-0.dtd" xmlns:inkscape="http://www.inkscape.org/namespaces/inkscape" width="1024" height="1024" viewBox="0 0 1024 1024" version="1.1" id="svg8" inkscape:version="0.92.4 (5da689c313, 2019-01-14)" sodipodi:docname="orelega.svg">
  <defs id="defs2"/>
  <sodipodi:namedview id="base" pagecolor="#ffffff" bordercolor="#666666" borderopacity="1.0" inkscape:pageopacity="0.0" inkscape:pageshadow="2" inkscape:zoom="0.17504384" inkscape:cx="1509.3565" inkscape:cy="249.79663" inkscape:document-units="px" inkscape:current-layer="layer2" showgrid="true" units="px" inkscape:pagecheckerboard="true" borderlayer="true" gridtolerance="10" inkscape:snap-smooth-nodes="true" inkscape:snap-text-baseline="true" inkscape:snap-page="true" showguides="true" inkscape:guide-bbox="true" inkscape:object-nodes="true" inkscape:object-paths="false" inkscape:snap-global="true">
    <inkscape:grid type="xygrid" id="grid4131" empspacing="4" spacingx="10" spacingy="10" color="#ffffff" opacity="0.2627451" empcolor="#ffffff" empopacity="0.62352941"/>
    <sodipodi:guide position="15825.17,820.00003" orientation="0,1" id="guide979" inkscape:locked="false"/>
    <sodipodi:guide position="8940,200" orientation="0,1" id="guide983" inkscape:locked="false"/>
    <sodipodi:guide position="11680,120" orientation="0,1" id="guide985" inkscape:locked="false"/>
    <sodipodi:guide position="0,40" orientation="0,1" id="guide987" inkscape:locked="false"/>
    <sodipodi:guide position="14960,820.00003" orientation="0,1" id="guide1028" inkscape:locked="false"/>
    <sodipodi:guide position="0,0" orientation="0,1" id="guide1030" inkscape:locked="false"/>
    <sodipodi:guide position="17640,660" orientation="0,1" id="guide1122" inkscape:locked="false"/>
    <sodipodi:guide position="4810,860" orientation="0,1" id="guide1263" inkscape:locked="false"/>
    <sodipodi:guide position="14730,430" orientation="0,1" id="guide1490" inkscape:locked="false"/>
  </sodipodi:namedview>
  <metadata id="metadata5">
    <rdf:RDF>
      <cc:Work rdf:about="">
        <dc:format>image/svg+xml</dc:format>
        <dc:type rdf:resource="http://purl.org/dc/dcmitype/StillImage"/>
        <dc:title/>
      </cc:Work>
    </rdf:RDF>
  </metadata>
  <svg:g inkscape:groupmode="layer" id="layer4" inkscape:label="Orelega symbols" style="display:none;opacity:1" transform="translate(0,24)">
    <svg:path style="opacity:1;vector-effect:none;fill:#000000;fill-opacity:1;fill-rule:nonzero;stroke:none;stroke-width:80;stroke-linecap:butt;stroke-linejoin:round;stroke-miterlimit:4;stroke-dasharray:none;stroke-dashoffset:0;stroke-opacity:1;paint-order:stroke fill markers" d="m 17440,326.78634 a 200,200 0 0 0 -200,200 200,200 0 0 0 200,200 200,200 0 0 0 200,-200 200,200 0 0 0 -200,-200 z m 0,80 a 120,120 0 0 1 120,120 120,120 0 0 1 -120,120 120,120 0 0 1 -120,-120 120,120 0 0 1 120,-120 z" id="path1836" inkscape:connector-curvature="0"/>
    <svg:circle style="opacity:1;vector-effect:none;fill:#000000;fill-opacity:1;fill-rule:nonzero;stroke:none;stroke-width:8;stroke-linecap:round;stroke-linejoin:round;stroke-miterlimit:4;stroke-dasharray:none;stroke-dashoffset:0;stroke-opacity:1;paint-order:stroke fill markers" id="path2054" cx="80" cy="725.00006" r="80"/>
    <svg:path style="opacity:1;vector-effect:none;fill:#000000;fill-opacity:1;fill-rule:nonzero;stroke:none;stroke-width:8;stroke-linecap:round;stroke-linejoin:round;stroke-miterlimit:4;stroke-dasharray:none;stroke-dashoffset:0;stroke-opacity:1;paint-order:stroke fill markers" d="m 80,160 c -44.1828,0 -80,35.81722 -80,80 0,77.84259 35.0404,234.2184 59.0801,320 h 41.8398 C 124.9596,474.2184 160,317.84259 160,240 160,195.81722 124.1828,160 80,160 Z" id="circle2056" inkscape:connector-curvature="0"/>
    <svg:circle style="display:inline;opacity:1;vector-effect:none;fill:#000000;fill-opacity:1;fill-rule:nonzero;stroke:none;stroke-width:9.14285755;stroke-linecap:round;stroke-linejoin:round;stroke-miterlimit:4;stroke-dasharray:none;stroke-dashoffset:0;stroke-opacity:1;paint-order:stroke fill markers" id="path1876-6" cx="340" cy="340" r="80"/>
    <svg:path style="opacity:1;vector-effect:none;fill:#000000;fill-opacity:1;fill-rule:nonzero;stroke:none;stroke-width:8;stroke-linecap:round;stroke-linejoin:round;stroke-miterlimit:4;stroke-dasharray:none;stroke-dashoffset:0;stroke-opacity:1;paint-order:stroke fill markers" d="m 260,340 c 0,-100 70,-180 220,-180 150,0 220,60 220,180 0,160 -200,170 -200,230 H 450 C 390,470 550,420 550,340 550,290 520,240 450,240 390,240 340,270 340,340" id="path2080" inkscape:connector-curvature="0" sodipodi:nodetypes="cssccssc"/>
    <svg:circle r="80" cy="725.00006" cx="480" id="circle2082" style="opacity:1;vector-effect:none;fill:#000000;fill-opacity:1;fill-rule:nonzero;stroke:none;stroke-width:8;stroke-linecap:round;stroke-linejoin:round;stroke-miterlimit:4;stroke-dasharray:none;stroke-dashoffset:0;stroke-opacity:1;paint-order:stroke fill markers"/>
    <svg:path style="opacity:1;vector-effect:none;fill:#000000;fill-opacity:1;fill-rule:nonzero;stroke:none;stroke-width:8;stroke-linecap:round;stroke-linejoin:round;stroke-miterlimit:4;stroke-dasharray:none;stroke-dashoffset:0;stroke-opacity:1;paint-order:stroke fill markers" d="m 860,645 c -44.1828,0 -80,35.81722 -80,80 0.048,40.81657 30.8166,75.05187 71.3965,79.44141 -0.9442,33.14582 -24.1143,59.74241 -98.3653,119.26367 L 789.3262,960 c 84.3408,-48.69419 152.9333,-133.23571 152.9333,-217.22192 0,-12.87603 -1.6122,-25.73902 -5.0271,-38.45777 C 927.8511,669.37935 896.1923,645.04361 860,645 Z" id="circle2084" inkscape:connector-curvature="0" sodipodi:nodetypes="cccccssc"/>
    <svg:circle r="80" cy="417.5" cx="860" id="circle2086" style="opacity:1;vector-effect:none;fill:#000000;fill-opacity:1;fill-rule:nonzero;stroke:none;stroke-width:8;stroke-linecap:round;stroke-linejoin:round;stroke-miterlimit:4;stroke-dasharray:none;stroke-dashoffset:0;stroke-opacity:1;paint-order:stroke fill markers"/>
    <svg:path id="path2093" d="m 1080,160 c -38.66,0 -70,31.34007 -70,70 0,68.11227 20,170 40,250 h 60 c 20,-80 40,-181.88773 40,-250 0,-38.65993 -31.3401,-70 -70,-70 z" style="opacity:1;vector-effect:none;fill:#000000;fill-opacity:1;fill-rule:nonzero;stroke:none;stroke-width:8;stroke-linecap:round;stroke-linejoin:round;stroke-miterlimit:4;stroke-dasharray:none;stroke-dashoffset:0;stroke-opacity:1;paint-order:stroke fill markers" inkscape:connector-curvature="0" sodipodi:nodetypes="ssccss"/>
    <svg:path sodipodi:nodetypes="ssccss" inkscape:connector-curvature="0" style="opacity:1;vector-effect:none;fill:#000000;fill-opacity:1;fill-rule:nonzero;stroke:none;stroke-width:8;stroke-linecap:round;stroke-linejoin:round;stroke-miterlimit:4;stroke-dasharray:none;stroke-dashoffset:0;stroke-opacity:1;paint-order:stroke fill markers" d="m 1270,160 c -38.66,0 -70,31.34007 -70,70 0,68.11227 20,170 40,250 h 60 c 20,-80 40,-181.88773 40,-250 0,-38.65993 -31.3401,-70 -70,-70 z" id="path2095"/>
    <svg:path sodipodi:nodetypes="cccccssc" inkscape:connector-curvature="0" id="path2097" d="m 1957.7405,162.22192 c -44.1828,0 -80,35.81722 -80,80 0.048,40.81657 30.8166,75.05187 71.3965,79.44141 -0.9442,33.14582 -24.1143,59.74241 -98.3653,119.26367 l 36.295,36.29492 C 1971.4075,428.52773 2040,343.98621 2040,260 c 0,-12.87603 -1.6122,-25.73902 -5.0271,-38.45777 -9.3813,-34.94096 -41.0401,-59.2767 -77.2324,-59.32031 z" style="opacity:1;vector-effect:none;fill:#000000;fill-opacity:1;fill-rule:nonzero;stroke:none;stroke-width:8;stroke-linecap:round;stroke-linejoin:round;stroke-miterlimit:4;stroke-dasharray:none;stroke-dashoffset:0;stroke-opacity:1;paint-order:stroke fill markers"/>
    <svg:path style="opacity:1;vector-effect:none;fill:#000000;fill-opacity:1;fill-rule:nonzero;stroke:none;stroke-width:8;stroke-linecap:round;stroke-linejoin:round;stroke-miterlimit:4;stroke-dasharray:none;stroke-dashoffset:0;stroke-opacity:1;paint-order:stroke fill markers" d="m 2182.7676,162.22192 c -44.1828,0 -80,35.81722 -80,80 0.048,40.81657 30.8166,75.05187 71.3965,79.44141 -0.9442,33.14582 -24.1143,59.74241 -98.3653,119.26367 l 36.295,36.29492 C 2196.4346,428.52773 2265.0271,343.98621 2265.0271,260 c 0,-12.87603 -1.6122,-25.73902 -5.0271,-38.45777 -9.3813,-34.94096 -41.0401,-59.2767 -77.2324,-59.32031 z" id="path2099" inkscape:connector-curvature="0" sodipodi:nodetypes="cccccssc"/>
    <svg:path sodipodi:nodetypes="cccccssc" inkscape:connector-curvature="0" id="path2101" d="m 2182.7676,162.22192 c -44.1828,0 -80,35.81722 -80,80 0.048,40.81657 30.8166,75.05187 71.3965,79.44141 -0.9442,33.14582 -24.1143,59.74241 -98.3653,119.26367 l 36.295,36.29492 C 2196.4346,428.52773 2265.0271,343.98621 2265.0271,260 c 0,-12.87603 -1.6122,-25.73902 -5.0271,-38.45777 -9.3813,-34.94096 -41.0401,-59.2767 -77.2324,-59.32031 z" style="opacity:1;vector-effect:none;fill:#000000;fill-opacity:1;fill-rule:nonzero;stroke:none;stroke-width:8;stroke-linecap:round;stroke-linejoin:round;stroke-miterlimit:4;stroke-dasharray:none;stroke-dashoffset:0;stroke-opacity:1;paint-order:stroke fill markers"/>
    <svg:path style="opacity:1;vector-effect:none;fill:#000000;fill-opacity:1;fill-rule:nonzero;stroke:none;stroke-width:8;stroke-linecap:round;stroke-linejoin:round;stroke-miterlimit:4;stroke-dasharray:none;stroke-dashoffset:0;stroke-opacity:1;paint-order:stroke fill markers" d="m 1706.4236,477.22192 c 44.1828,0 80,-35.81722 80,-80 -0.048,-40.81657 -30.8166,-75.05187 -71.3965,-79.44141 0.9442,-33.14582 24.1143,-59.74241 98.3653,-119.26367 l -36.295,-36.29492 c -84.3408,48.69419 -152.9333,133.23571 -152.9333,217.22192 0,12.87603 1.6122,25.73902 5.0271,38.45777 9.3813,34.94096 41.0401,59.2767 77.2324,59.32031 z" id="path2103" inkscape:connector-curvature="0" sodipodi:nodetypes="cccccssc"/>
    <svg:path style="opacity:1;vector-effect:none;fill:#000000;fill-opacity:1;fill-rule:nonzero;stroke:none;stroke-width:8;stroke-linecap:round;stroke-linejoin:round;stroke-miterlimit:4;stroke-dasharray:none;stroke-dashoffset:0;stroke-opacity:1;paint-order:stroke fill markers" d="m 1481.3965,477.22192 c 44.1828,0 80,-35.81722 80,-80 -0.048,-40.81657 -30.8166,-75.05187 -71.3965,-79.44141 0.9442,-33.14582 24.1143,-59.74241 98.3653,-119.26367 l -36.295,-36.29492 c -84.3408,48.69419 -152.9333,133.23571 -152.9333,217.22192 0,12.87603 1.6122,25.73902 5.0271,38.45777 9.3813,34.94096 41.0401,59.2767 77.2324,59.32031 z" id="path2105" inkscape:connector-curvature="0" sodipodi:nodetypes="cccccssc"/>
    <svg:path style="display:inline;opacity:1;vector-effect:none;fill:#000000;fill-opacity:1;fill-rule:nonzero;stroke:none;stroke-width:9.14285755;stroke-linecap:round;stroke-linejoin:round;stroke-miterlimit:4;stroke-dasharray:none;stroke-dashoffset:0;stroke-opacity:1;paint-order:stroke fill markers" d="m 2589.9999,170 c -143.5926,7.8e-4 -259.9977,126.87622 -259.9977,320.71427 0,193.83806 116.4051,320.71349 259.9977,320.71427 C 2733.5935,811.42932 2850,684.55361 2850,490.71427 2850,296.87494 2733.5935,169.99922 2589.9999,170 Z m 1e-4,80 c 56.0961,0.75429 90,61.89796 90,240.71427 0,178.81631 -33.9039,240.71465 -90,240.71427 -56.096,-3.8e-4 -89.9978,-58.45918 -89.9978,-240.71427 C 2500.0022,308.45918 2533.904,249.24571 2590,250 Z" id="path914-5" inkscape:connector-curvature="0" sodipodi:nodetypes="ssssssssss"/>
    <svg:path style="display:inline;opacity:1;vector-effect:none;fill:#000000;fill-opacity:1;fill-rule:nonzero;stroke:none;stroke-width:8;stroke-linecap:round;stroke-linejoin:round;stroke-miterlimit:4;stroke-dasharray:none;stroke-dashoffset:0;stroke-opacity:1;paint-order:stroke fill markers" d="m 3100,180 c -40,69.28203 -70,80 -120,80 h -20 v 80 h 100 v 380 h -100 v 80 h 340 V 720 H 3200 V 180 Z" id="rect1289-8" inkscape:connector-curvature="0" sodipodi:nodetypes="csccccccccccc"/>
    <svg:circle id="circle1755-6" style="display:inline;opacity:1;vector-effect:none;fill:#000000;fill-opacity:1;fill-rule:nonzero;stroke:none;stroke-width:8;stroke-linecap:round;stroke-linejoin:round;stroke-miterlimit:4;stroke-dasharray:none;stroke-dashoffset:0;stroke-opacity:1;paint-order:stroke fill markers" cx="3470" cy="370" r="80"/>
    <svg:path style="opacity:1;vector-effect:none;fill:#000000;fill-opacity:1;fill-rule:nonzero;stroke:none;stroke-width:8;stroke-linecap:round;stroke-linejoin:round;stroke-miterlimit:4;stroke-dasharray:none;stroke-dashoffset:0;stroke-opacity:1;paint-order:stroke fill markers" d="M 3400.718,410 C 3341.9666,308.23959 3435.0146,170 3610,170 c 174.9854,0 240,90 240,180 0,150 -130,188.71996 -210,250 -53.2539,40.79248 -85.359,50 -120,110 L 3460,766.78607 3390,800 c 0,-130 120,-220 210,-290 56.2198,-43.72649 80,-99.55226 80,-150 0,-70 -37.8912,-110 -110,-110 -59.8781,0 -140,60 -100,130" id="path2155" inkscape:connector-curvature="0" sodipodi:nodetypes="cssscccsssc"/>
    <svg:circle r="80" cy="370" cx="4020" style="display:inline;opacity:1;vector-effect:none;fill:#000000;fill-opacity:1;fill-rule:nonzero;stroke:none;stroke-width:8;stroke-linecap:round;stroke-linejoin:round;stroke-miterlimit:4;stroke-dasharray:none;stroke-dashoffset:0;stroke-opacity:1;paint-order:stroke fill markers" id="circle2160"/>
    <svg:path sodipodi:nodetypes="cssccssc" inkscape:connector-curvature="0" id="path2162" d="M 3950.718,410 C 3891.9666,308.23959 3985.0146,170 4160,170 c 174.9854,0 240,90 240,180 0,100 -150,150 -210,150 l -90,-50 c 100,0 130,-39.55226 130,-90 0,-70 -37.8912,-110 -110,-110 -59.8781,0 -140,60 -100,130" style="opacity:1;vector-effect:none;fill:#000000;fill-opacity:1;fill-rule:nonzero;stroke:none;stroke-width:8;stroke-linecap:round;stroke-linejoin:round;stroke-miterlimit:4;stroke-dasharray:none;stroke-dashoffset:0;stroke-opacity:1;paint-order:stroke fill markers"/>
    <svg:circle id="circle2164" style="display:inline;opacity:1;vector-effect:none;fill:#000000;fill-opacity:1;fill-rule:nonzero;stroke:none;stroke-width:8;stroke-linecap:round;stroke-linejoin:round;stroke-miterlimit:4;stroke-dasharray:none;stroke-dashoffset:0;stroke-opacity:1;paint-order:stroke fill markers" cx="4020" cy="-610" r="80" transform="scale(1,-1)"/>
    <svg:path style="opacity:1;vector-effect:none;fill:#000000;fill-opacity:1;fill-rule:nonzero;stroke:none;stroke-width:8;stroke-linecap:round;stroke-linejoin:round;stroke-miterlimit:4;stroke-dasharray:none;stroke-dashoffset:0;stroke-opacity:1;paint-order:stroke fill markers" d="m 3950.718,570 c -58.7514,101.76041 34.2966,240 209.282,240 174.9854,0 240,-90 240,-180 0,-100 -90,-146 -210,-146 l -90,-34 v 80 c 100,0 130,39.55226 130,90 0,70 -37.8912,110 -110,110 -59.8781,0 -140,-60 -100,-130" id="path2166" inkscape:connector-curvature="0" sodipodi:nodetypes="csscccssc"/>
    <svg:path style="display:inline;opacity:1;vector-effect:none;fill:#000000;fill-opacity:1;fill-rule:nonzero;stroke:none;stroke-width:9.23760414;stroke-linecap:round;stroke-linejoin:round;stroke-miterlimit:4;stroke-dasharray:none;stroke-dashoffset:0;stroke-opacity:1;paint-order:stroke fill markers" d="m 3390,800 h 470 V 560 h -90 v 40 c 0,29.81424 -10,80 -40,80 h -140 c -20.2759,0 -41.3437,3.78124 -60,10 l -60,20 z" id="path1581-1-0" inkscape:connector-curvature="0" sodipodi:nodetypes="ccccsssscc"/>
    <svg:path style="display:inline;opacity:1;vector-effect:none;fill:#000000;fill-opacity:1;fill-rule:nonzero;stroke:none;stroke-width:9.23760414;stroke-linecap:round;stroke-linejoin:round;stroke-miterlimit:4;stroke-dasharray:none;stroke-dashoffset:0;stroke-opacity:1;paint-order:stroke fill markers" d="m 4620,180 c -10,110 -40,260 -160,380 v 80 h 250 v 80 h -100 v 80 h 340 v -80 h -80 v -80 h 80 v -80 h -80 V 340 h -73.2324 C 4780.7944,382.66312 4748.0262,426.59176 4710,464.20508 V 560 h -170 c 140,-110 240,-219.99997 240,-380 z" id="rect1553-8" inkscape:connector-curvature="0" sodipodi:nodetypes="ccccccccccccccccccccc"/>
    <svg:circle transform="scale(1,-1)" r="80" cy="-610" cx="5110" style="display:inline;opacity:1;vector-effect:none;fill:#000000;fill-opacity:1;fill-rule:nonzero;stroke:none;stroke-width:8;stroke-linecap:round;stroke-linejoin:round;stroke-miterlimit:4;stroke-dasharray:none;stroke-dashoffset:0;stroke-opacity:1;paint-order:stroke fill markers" id="circle2216"/>
    <svg:path sodipodi:nodetypes="csscccssc" inkscape:connector-curvature="0" id="path2218" d="m 5040.718,570 c -58.7514,101.76041 34.2966,240 209.282,240 174.9854,0 240,-90 240,-180 0,-160 -170,-260 -370,-170 l -80,20 80,20 c 150,-20 200,10 200,120 0,70 -37.8912,110 -110,110 -59.8781,0 -140,-60 -100,-130" style="opacity:1;vector-effect:none;fill:#000000;fill-opacity:1;fill-rule:nonzero;stroke:none;stroke-width:8;stroke-linecap:round;stroke-linejoin:round;stroke-miterlimit:4;stroke-dasharray:none;stroke-dashoffset:0;stroke-opacity:1;paint-order:stroke fill markers"/>
    <svg:rect style="opacity:1;vector-effect:none;fill:#000000;fill-opacity:1;fill-rule:nonzero;stroke:none;stroke-width:8;stroke-linecap:round;stroke-linejoin:round;stroke-miterlimit:4;stroke-dasharray:none;stroke-dashoffset:0;stroke-opacity:1;paint-order:stroke fill markers" id="rect2220" width="76.680664" height="303.26025" x="5061.7817" y="-512.15973" transform="rotate(7.8051015)"/>
    <svg:path style="opacity:1;vector-effect:none;fill:#000000;fill-opacity:1;fill-rule:nonzero;stroke:none;stroke-width:8;stroke-linecap:round;stroke-linejoin:round;stroke-miterlimit:4;stroke-dasharray:none;stroke-dashoffset:0;stroke-opacity:1;paint-order:stroke fill markers" d="m 5130,300 c 40,24.44827 99.4751,31.41046 160,30 79.9783,-1.8638 160,-30 190,-120 l -10,-30.00003 C 5415.0025,194.7364 5360,200 5290,200 c -70,0 -90,-10 -130,-20.00003 l -75.5275,2e-5" id="path2222" inkscape:connector-curvature="0" sodipodi:nodetypes="csccscc"/>
    <svg:circle id="circle2230" style="display:inline;opacity:1;vector-effect:none;fill:#000000;fill-opacity:1;fill-rule:nonzero;stroke:none;stroke-width:8;stroke-linecap:round;stroke-linejoin:round;stroke-miterlimit:4;stroke-dasharray:none;stroke-dashoffset:0;stroke-opacity:1;paint-order:stroke fill markers" cx="5970" cy="320" r="80"/>
    <svg:path style="display:inline;opacity:1;vector-effect:none;fill:#000000;fill-opacity:1;fill-rule:nonzero;stroke:none;stroke-width:9.14285755;stroke-linecap:round;stroke-linejoin:round;stroke-miterlimit:4;stroke-dasharray:none;stroke-dashoffset:0;stroke-opacity:1;paint-order:stroke fill markers" d="m 5830,170 c -143.5926,7.8e-4 -259.998,126.87679 -259.998,320.71484 0,193.83806 116.4054,320.71211 259.998,320.71289 v -80 c -56.096,-3.8e-4 -89.998,-58.4578 -89.998,-240.71289 C 5740.002,308.45975 5790,249.05875 5860,250 Z" id="path2240" inkscape:connector-curvature="0" sodipodi:nodetypes="csccscc"/>
    <svg:path style="opacity:1;vector-effect:none;fill:#000000;fill-opacity:1;fill-rule:nonzero;stroke:none;stroke-width:8;stroke-linecap:round;stroke-linejoin:round;stroke-miterlimit:4;stroke-dasharray:none;stroke-dashoffset:0;stroke-opacity:1;paint-order:stroke fill markers" d="M 5734.2819,570 C 5750,524.60329 5785.0154,490 5820,490 c 50,0 90,24.17843 90,110 0,70 -7.8912,130 -80,130 v 80 c 174.9854,0 250,-110 250,-200 0,-116.36364 -94.0195,-200 -220,-200 -70,0 -120.6371,33.90142 -140,80 z" id="path2259" inkscape:connector-curvature="0" sodipodi:nodetypes="cssccsscc"/>
    <svg:path style="opacity:1;vector-effect:none;fill:#000000;fill-opacity:1;fill-rule:nonzero;stroke:none;stroke-width:8;stroke-linecap:round;stroke-linejoin:round;stroke-miterlimit:4;stroke-dasharray:none;stroke-dashoffset:0;stroke-opacity:1;paint-order:stroke fill markers" d="m 6050,320 c 0,-90 -70,-150 -220,-150 l 30,80 c 50,0 56.6223,10 60,20" id="path2261" inkscape:connector-curvature="0" sodipodi:nodetypes="cccc"/>
    <svg:path style="display:inline;opacity:1;vector-effect:none;fill:#000000;fill-opacity:1;fill-rule:nonzero;stroke:none;stroke-width:9.23760414;stroke-linecap:round;stroke-linejoin:round;stroke-miterlimit:4;stroke-dasharray:none;stroke-dashoffset:0;stroke-opacity:1;paint-order:stroke fill markers" d="m 6130,180 v 240 h 90 v -40 c 0,-29.8142 10,-80 40,-80 h 140 c 38.6176,0 57.0406,-3.55669 88,-10 -172.2598,172.2598 -248,313.12098 -248,510 h 160 c 0,-190 -20,-290 200,-540 v -80 z" id="path2263" inkscape:connector-curvature="0" sodipodi:nodetypes="cccssscccccc"/>
    <svg:path style="display:inline;opacity:1;vector-effect:none;fill:#000000;fill-opacity:1;fill-rule:nonzero;stroke:none;stroke-width:9.14285755;stroke-linecap:round;stroke-linejoin:round;stroke-miterlimit:4;stroke-dasharray:none;stroke-dashoffset:0;stroke-opacity:1;paint-order:stroke fill markers" d="m 6780,320 c 0,-50 10,-70 70,-70 70,0 110,30 110,90 h 120 c 0,-127.13036 -150,-170 -240,-170 -140,0 -221.056,79.96262 -220,190 2,208.48862 320,150.44646 320,300 0,50 -30,70 -100,70 -50,0 -100,-20 -100,-80 h -130 c 0,127.13036 150,160 240,160 140,0 251.056,-79.96262 250,-190 -2,-208.4884 -320,-180 -320,-300 z" id="path1112-5-4-4" inkscape:connector-curvature="0" sodipodi:nodetypes="ssccssssccsss"/>
    <svg:path style="opacity:1;vector-effect:none;fill:#000000;fill-opacity:1;fill-rule:nonzero;stroke:none;stroke-width:8;stroke-linecap:round;stroke-linejoin:round;stroke-miterlimit:4;stroke-dasharray:none;stroke-dashoffset:0;stroke-opacity:1;paint-order:stroke fill markers" d="m 6760,500 c -69.6767,18.66981 -150,90 -150,150 h 130 c 0,-50 15.1872,-75.18721 60,-120" id="path2296" inkscape:connector-curvature="0" sodipodi:nodetypes="cccc"/>
    <svg:path sodipodi:nodetypes="cccc" inkscape:connector-curvature="0" id="path2298" d="m 6960,470 c 50,-14.29109 120,-70 120,-130 h -120 c 0,40 -20,70 -64.029,104.07743" style="opacity:1;vector-effect:none;fill:#000000;fill-opacity:1;fill-rule:nonzero;stroke:none;stroke-width:8;stroke-linecap:round;stroke-linejoin:round;stroke-miterlimit:4;stroke-dasharray:none;stroke-dashoffset:0;stroke-opacity:1;paint-order:stroke fill markers"/>
    <svg:path style="display:inline;opacity:1;vector-effect:none;fill:#000000;fill-opacity:1;fill-rule:nonzero;stroke:none;stroke-width:9.14285755;stroke-linecap:round;stroke-linejoin:round;stroke-miterlimit:4;stroke-dasharray:none;stroke-dashoffset:0;stroke-opacity:1;paint-order:stroke fill markers" d="m 8870,320 c -1.545,-49.97612 10,-70 30,-70 20,0 30,10 30,50 l 120,10 c 0,-100 -46,-140 -166,-140 -130,0 -154,70 -154,150 0,85.84281 49.8984,198.70938 140,300 88.3323,99.30166 175.942,187.87135 270,190 44.2647,1.00177 82.679,-10 100,-40 16.638,-28.81731 20,-41.87434 20,-110 v -40 h -80 c 0,50 -5.329,60 -20,60 -42.665,0 -107.5219,-71.49796 -180,-150 -63.4237,-68.69515 -107.8359,-139.99681 -110,-210 z" id="path1112-5-42" inkscape:connector-curvature="0" sodipodi:nodetypes="ssccssssssccsss"/>
    <svg:circle style="opacity:1;vector-effect:none;fill:#000000;fill-opacity:1;fill-rule:nonzero;stroke:none;stroke-width:8;stroke-linecap:round;stroke-linejoin:round;stroke-miterlimit:4;stroke-dasharray:none;stroke-dashoffset:0;stroke-opacity:1;paint-order:stroke fill markers" id="path2318" cx="9200" cy="340" r="80"/>
    <svg:path style="opacity:1;vector-effect:none;fill:#000000;fill-opacity:1;fill-rule:nonzero;stroke:none;stroke-width:8;stroke-linecap:round;stroke-linejoin:round;stroke-miterlimit:4;stroke-dasharray:none;stroke-dashoffset:0;stroke-opacity:1;paint-order:stroke fill markers" d="m 8930,300 c 0,30 -8.5267,55.52829 -40,70 -35.4479,16.29926 -60,40 -140,60 -60,15 -120,80 -120,170 0,120 65.015,210 240,210 81.972,0 151.172,-30.33715 190,-73.04883 44.058,-48.46408 -33.948,-80.45051 -54.793,-56.95117 -22.374,25.22364 -64.208,40 -95.207,40 -72.109,0 -120,-70 -120,-140 0,-50.447 14.8482,-64.94939 30,-70 21.2132,-7.07107 97.3646,-45.51337 120,-60 60.7371,-38.87171 110,-80 110,-140 z" id="path2320" inkscape:connector-curvature="0" sodipodi:nodetypes="cssssccsssscc"/>
    <svg:path style="opacity:1;vector-effect:none;fill:#000000;fill-opacity:1;fill-rule:nonzero;stroke:none;stroke-width:8;stroke-linecap:round;stroke-linejoin:round;stroke-miterlimit:4;stroke-dasharray:none;stroke-dashoffset:0;stroke-opacity:1;paint-order:stroke fill markers" d="M 9269.282,300 9200,340 c 23.094,40 -17.398,80 -70,80 h -110 v 80 c 80,20 60,110 20,130 l 80,50 c 60,-40 60,-140 30,-180 78.29,-6.88355 134,-65.18751 134,-127.09848 0,-24.74166 -1.53,-50.05937 -14.718,-72.90152 z" id="path2337" inkscape:connector-curvature="0" sodipodi:nodetypes="ccscccccsc"/>
    <svg:rect style="opacity:1;vector-effect:none;fill:#000000;fill-opacity:1;fill-rule:nonzero;stroke:none;stroke-width:7.23627234;stroke-linecap:round;stroke-linejoin:round;stroke-miterlimit:4;stroke-dasharray:none;stroke-dashoffset:0;stroke-opacity:1;paint-order:stroke fill markers" id="rect2341" width="270" height="80" x="7760" y="480"/>
    <svg:path style="opacity:1;vector-effect:none;fill:#000000;fill-opacity:1;fill-rule:nonzero;stroke:none;stroke-width:8.58469391;stroke-linecap:round;stroke-linejoin:round;stroke-miterlimit:4;stroke-dasharray:none;stroke-dashoffset:0;stroke-opacity:1;paint-order:stroke fill markers" d="m 8150,360 v 80 h 380 v -80 z m 0,180 v 80 h 380 v -80 z" id="rect2343" inkscape:connector-curvature="0" sodipodi:nodetypes="cccccccccc"/>
    <svg:path style="display:inline;opacity:1;vector-effect:none;fill:#000000;fill-opacity:1;fill-rule:nonzero;stroke:none;stroke-width:9.14285755;stroke-linecap:round;stroke-linejoin:round;stroke-miterlimit:4;stroke-dasharray:none;stroke-dashoffset:0;stroke-opacity:1;paint-order:stroke fill markers" d="m 7360,320 c 0,-50 30,-70 100,-70 80,0 130,30 130,90 h 80 c 0,-127.13036 -150,-170 -240,-170 -140,0 -231.056,79.96262 -230,190 2,208.48862 320,150.44646 320,300 0,50 -40,70 -110,70 -80,0 -140,-30 -140,-90 h -80 c 0,127.13036 160,170 250,170 140,0 241.056,-79.96262 240,-190 -2,-208.4884 -320,-150.446 -320,-300 z" id="path1112-5-4-0" inkscape:connector-curvature="0" sodipodi:nodetypes="ssccssssccsss"/>
    <svg:circle transform="scale(-1)" id="path1116-4-8-3" style="display:inline;opacity:1;vector-effect:none;fill:#000000;fill-opacity:1;fill-rule:nonzero;stroke:none;stroke-width:9.14285755;stroke-linecap:round;stroke-linejoin:round;stroke-miterlimit:4;stroke-dasharray:none;stroke-dashoffset:0;stroke-opacity:1;paint-order:stroke fill markers" cx="-7270" cy="-640" r="80"/>
    <svg:circle style="display:inline;opacity:1;vector-effect:none;fill:#000000;fill-opacity:1;fill-rule:nonzero;stroke:none;stroke-width:9.14285755;stroke-linecap:round;stroke-linejoin:round;stroke-miterlimit:4;stroke-dasharray:none;stroke-dashoffset:0;stroke-opacity:1;paint-order:stroke fill markers" id="path1876-7" cx="7590" cy="340" r="80"/>
    <svg:rect y="-7480" x="140" height="80" width="700" id="rect2371" style="opacity:1;vector-effect:none;fill:#000000;fill-opacity:1;fill-rule:nonzero;stroke:none;stroke-width:11.65150547;stroke-linecap:round;stroke-linejoin:round;stroke-miterlimit:4;stroke-dasharray:none;stroke-dashoffset:0;stroke-opacity:1;paint-order:stroke fill markers" transform="rotate(90)"/>
    <svg:path style="display:inline;opacity:1;vector-effect:none;fill:#000000;fill-opacity:1;fill-rule:nonzero;stroke:none;stroke-width:9.14285755;stroke-linecap:round;stroke-linejoin:round;stroke-miterlimit:4;stroke-dasharray:none;stroke-dashoffset:0;stroke-opacity:1;paint-order:stroke fill markers" d="m 9666.9844,810.00004 c 118.964,0 168.1562,-90.00024 176.1875,-154.81922 L 9820,700 l 19.5916,-86.14507 c -29.4598,64.95361 -58.2105,106.14508 -107.5469,106.14508 -49.3363,0 -94.413,-56.1001 -94.413,-148.38392 0,-92.28382 29.814,-148.75893 97.6072,-148.75893 67.793,0 98.6738,79.19102 103.6428,150.17857 L 9850,570 9845.6741,413.73215 c -16.5646,-23.09004 -60.7301,-83.81918 -159.1138,-83.81918 -114.9484,0 -199.2768,92.94421 -199.2768,239.93526 0,146.99104 60.7369,240.15181 179.7009,240.15181 z" id="path906-1-2" inkscape:connector-curvature="0" sodipodi:nodetypes="scccssscccsss"/>
    <svg:path style="opacity:1;vector-effect:none;fill:#000000;fill-opacity:1;fill-rule:nonzero;stroke:none;stroke-width:8;stroke-linecap:round;stroke-linejoin:round;stroke-miterlimit:4;stroke-dasharray:none;stroke-dashoffset:0;stroke-opacity:1;paint-order:stroke fill markers" d="m 10160,520 c 0,243.31603 -132.766,280 -200,280 -100,0 -140,-54.68141 -140,-120 V 420 h 20 l 53.7148,-80 H 9960 l 0,330 c 0,18.59446 10,50 38.8817,50 C 10030,720 10080,670 10080,520" id="path1261" inkscape:connector-curvature="0" sodipodi:nodetypes="ccsccccssc"/>
    <svg:circle id="circle1265" style="opacity:1;vector-effect:none;fill:#000000;fill-opacity:1;fill-rule:nonzero;stroke:none;stroke-width:8;stroke-linecap:round;stroke-linejoin:round;stroke-miterlimit:4;stroke-dasharray:none;stroke-dashoffset:0;stroke-opacity:1;paint-order:stroke fill markers" cx="9900" cy="900" r="80"/>
    <svg:path style="opacity:1;vector-effect:none;fill:none;fill-opacity:1;fill-rule:nonzero;stroke:#000000;stroke-width:80;stroke-linecap:butt;stroke-linejoin:round;stroke-miterlimit:4;stroke-dasharray:none;stroke-dashoffset:0;stroke-opacity:1;paint-order:stroke fill markers" d="M 10120,520 C 10120,300 9990,179.99997 9760,179.99997 9520,179.99997 9350,320 9350,560 c 0,270 152.5793,400 370,400" id="path1273" inkscape:connector-curvature="0" sodipodi:nodetypes="cssc"/>
    <svg:path style="opacity:1;vector-effect:none;fill:#000000;fill-opacity:1;fill-rule:nonzero;stroke:none;stroke-width:80;stroke-linecap:butt;stroke-linejoin:round;stroke-miterlimit:4;stroke-dasharray:none;stroke-dashoffset:0;stroke-opacity:1;paint-order:stroke fill markers" d="m 9720,1000 c 100,0 171.0282,-2.44408 220,-30.71797 L 9900,900 c -17.3205,10 -101.422,20 -180,20" id="path1275" inkscape:connector-curvature="0" sodipodi:nodetypes="cccc"/>
    <svg:rect transform="matrix(-0.09632352,0.99535008,-1,0,0,0)" style="opacity:1;vector-effect:none;fill:#000000;fill-opacity:1;fill-rule:nonzero;stroke:none;stroke-width:12.31357479;stroke-linecap:round;stroke-linejoin:round;stroke-miterlimit:4;stroke-dasharray:none;stroke-dashoffset:0;stroke-opacity:1;paint-order:stroke fill markers" id="rect1277" width="622.89642" height="100.00028" x="180.84087" y="-10527.419"/>
    <svg:rect y="-10747.419" x="180.84087" height="100.00014" width="622.89642" id="rect1279" style="opacity:1;vector-effect:none;fill:#000000;fill-opacity:1;fill-rule:nonzero;stroke:none;stroke-width:10.99109459;stroke-linecap:round;stroke-linejoin:round;stroke-miterlimit:4;stroke-dasharray:none;stroke-dashoffset:0;stroke-opacity:1;paint-order:stroke fill markers" transform="matrix(-0.09632352,0.99535008,-1,0,0,0)"/>
    <svg:rect y="-390" x="-10800" height="80" width="520" id="rect1281" style="opacity:1;vector-effect:none;fill:#000000;fill-opacity:1;fill-rule:nonzero;stroke:none;stroke-width:10.04233456;stroke-linecap:round;stroke-linejoin:round;stroke-miterlimit:4;stroke-dasharray:none;stroke-dashoffset:0;stroke-opacity:1;paint-order:stroke fill markers" transform="scale(-1)"/>
    <svg:rect transform="scale(-1)" style="opacity:1;vector-effect:none;fill:#000000;fill-opacity:1;fill-rule:nonzero;stroke:none;stroke-width:10.04233456;stroke-linecap:round;stroke-linejoin:round;stroke-miterlimit:4;stroke-dasharray:none;stroke-dashoffset:0;stroke-opacity:1;paint-order:stroke fill markers" id="rect1283" width="520" height="80" x="-10800" y="-670"/>
    <svg:path style="display:inline;opacity:1;vector-effect:none;fill:#000000;fill-opacity:1;fill-rule:nonzero;stroke:none;stroke-width:8.4292984;stroke-linecap:round;stroke-linejoin:round;stroke-miterlimit:4;stroke-dasharray:none;stroke-dashoffset:0;stroke-opacity:1;paint-order:stroke fill markers" d="m 11110,170 c -90,4.2e-4 -170,42.49998 -170,170 0,127.50002 80,169.99958 170,170 90,-4.2e-4 170,-42.49998 170,-170 0,-127.50002 -80,-169.99958 -170,-170 z m 0,80 c 30,0 50,14.99998 50,90 0,75.00002 -20,90 -50,90 -30,0 -50,-14.99998 -50,-90 0,-75.00002 20,-90 50,-90 z" id="path914-5-4" inkscape:connector-curvature="0"/>
    <svg:path id="path1312" d="m 11533.645,470 c -90,4.2e-4 -170,42.49998 -170,170 0,127.50002 80,169.99958 170,170 90,-4.2e-4 170,-42.49998 170,-170 0,-127.50002 -80,-169.99958 -170,-170 z m 0,80 c 30,0 50,14.99998 50,90 0,75.00002 -20,90 -50,90 -30,0 -50,-14.99998 -50,-90 0,-75.00002 20,-90 50,-90 z" style="display:inline;opacity:1;vector-effect:none;fill:#000000;fill-opacity:1;fill-rule:nonzero;stroke:none;stroke-width:8.4292984;stroke-linecap:round;stroke-linejoin:round;stroke-miterlimit:4;stroke-dasharray:none;stroke-dashoffset:0;stroke-opacity:1;paint-order:stroke fill markers" inkscape:connector-curvature="0"/>
    <svg:path style="opacity:1;vector-effect:none;fill:#000000;fill-opacity:1;fill-rule:nonzero;stroke:none;stroke-width:80;stroke-linecap:butt;stroke-linejoin:round;stroke-miterlimit:4;stroke-dasharray:none;stroke-dashoffset:0;stroke-opacity:1;paint-order:stroke fill markers" d="m 11454.613,180 -357.957,620 h 92.375 l 357.957,-620 z" id="rect1314" inkscape:connector-curvature="0"/>
    <svg:path style="display:inline;opacity:1;vector-effect:none;fill:#000000;fill-opacity:1;fill-rule:nonzero;stroke:none;stroke-width:8;stroke-linecap:round;stroke-linejoin:round;stroke-miterlimit:4;stroke-dasharray:none;stroke-dashoffset:0;stroke-opacity:1;paint-order:stroke fill markers" d="m 12120,170 c -213.529,0 -330,160 -330,320 0,160 116.471,320 330,320 178.534,0 243.259,-109.63386 270,-240 l -80,-20 c -12.127,106.10425 -84.208,180 -170,180 -99.852,0 -170,-108.16116 -170,-240 0,-131.83884 56.875,-240 160,-240 72.18,0 119.719,22.99372 140,100 l 120,20 c 0,-60 -18.615,-93.14462 -60,-130 -49.743,-44.30001 -120.471,-70 -210,-70 z" id="path1597-8-0-7" inkscape:connector-curvature="0" sodipodi:nodetypes="sssccsssccss"/>
    <svg:circle style="display:inline;opacity:1;vector-effect:none;fill:#000000;fill-opacity:1;fill-rule:nonzero;stroke:none;stroke-width:8;stroke-linecap:round;stroke-linejoin:round;stroke-miterlimit:4;stroke-dasharray:none;stroke-dashoffset:0;stroke-opacity:1;paint-order:stroke fill markers" id="path1751-5" cx="12310.001" cy="370" r="80"/>
    <svg:path style="display:inline;opacity:1;vector-effect:none;fill:#000000;fill-opacity:1;fill-rule:nonzero;stroke:none;stroke-width:20;stroke-linecap:round;stroke-linejoin:round;stroke-miterlimit:4;stroke-dasharray:none;stroke-dashoffset:0;stroke-opacity:1;paint-order:stroke fill markers" d="m 12156.389,380 -396.389,-4.6e-4 -21.436,80.00016 396.389,4.6e-4 z" id="rect2483-8" inkscape:connector-curvature="0" sodipodi:nodetypes="ccccc"/>
    <svg:path sodipodi:nodetypes="ccccc" inkscape:connector-curvature="0" id="path1353" d="m 12124.235,499.99984 -364.235,-4.6e-4 -21.436,80.00016 364.235,4.6e-4 z" style="display:inline;opacity:1;vector-effect:none;fill:#000000;fill-opacity:1;fill-rule:nonzero;stroke:none;stroke-width:20;stroke-linecap:round;stroke-linejoin:round;stroke-miterlimit:4;stroke-dasharray:none;stroke-dashoffset:0;stroke-opacity:1;paint-order:stroke fill markers"/>
    <svg:path style="display:inline;opacity:1;vector-effect:none;fill:#000000;fill-opacity:1;fill-rule:nonzero;stroke:none;stroke-width:9.14285755;stroke-linecap:round;stroke-linejoin:round;stroke-miterlimit:4;stroke-dasharray:none;stroke-dashoffset:0;stroke-opacity:1;paint-order:stroke fill markers" d="m 12530,760 c 90,-50 180,-170 180,-270 0,-40.04297 -10,-70 -10,-120 0,-79.99997 60,-120 110,-120 60,0 110,30 110,90 h 80 c 0,-115.4556 -130,-170 -220,-170 -140,0 -240.495,77.22443 -240,200 0.362,90 30,130 30,210 0,60 -30,100 -90,140 l 40,80 z" id="path1112-5-1" inkscape:connector-curvature="0" sodipodi:nodetypes="csssccscsccc"/>
    <svg:circle id="path1116-4-5" style="display:inline;opacity:1;vector-effect:none;fill:#000000;fill-opacity:1;fill-rule:nonzero;stroke:none;stroke-width:9.14285755;stroke-linecap:round;stroke-linejoin:round;stroke-miterlimit:4;stroke-dasharray:none;stroke-dashoffset:0;stroke-opacity:1;paint-order:stroke fill markers" cx="12920" cy="340" r="80"/>
    <svg:path style="opacity:1;vector-effect:none;fill:#000000;fill-opacity:1;fill-rule:nonzero;stroke:none;stroke-width:80;stroke-linecap:butt;stroke-linejoin:round;stroke-miterlimit:4;stroke-dasharray:none;stroke-dashoffset:0;stroke-opacity:1;paint-order:stroke fill markers" d="m 12500,740 c 105.857,-84.48268 190,-100 260,-100 70,0 100,40 130,40 40,0 50,-5.47079 50,-80 h 80 c 0,150 -20,200 -130,200 -100,0 -110,-50 -180,-50 -70,0 -135.321,12.25838 -190,50" id="path1391" inkscape:connector-curvature="0" sodipodi:nodetypes="cssccssc"/>
    <svg:path sodipodi:nodetypes="ccccc" inkscape:connector-curvature="0" id="path1393" d="m 12800,380 -308.564,-4.6e-4 -21.436,80.00016 308.564,4.6e-4 z" style="display:inline;opacity:1;vector-effect:none;fill:#000000;fill-opacity:1;fill-rule:nonzero;stroke:none;stroke-width:20;stroke-linecap:round;stroke-linejoin:round;stroke-miterlimit:4;stroke-dasharray:none;stroke-dashoffset:0;stroke-opacity:1;paint-order:stroke fill markers"/>
    <svg:path style="display:inline;opacity:1;vector-effect:none;fill:#000000;fill-opacity:1;fill-rule:nonzero;stroke:none;stroke-width:20;stroke-linecap:round;stroke-linejoin:round;stroke-miterlimit:4;stroke-dasharray:none;stroke-dashoffset:0;stroke-opacity:1;paint-order:stroke fill markers" d="m 12800,499.99984 -308.564,-4.6e-4 -21.436,80.00016 308.564,4.6e-4 z" id="path1395" inkscape:connector-curvature="0" sodipodi:nodetypes="ccccc"/>
    <svg:path id="path1984-4" d="m 13056.363,180 v 80 h 320 v -80 z m 400,0 v 80 h 270 v -80 z" style="display:inline;opacity:1;vector-effect:none;fill:#000000;fill-opacity:1;fill-rule:nonzero;stroke:none;stroke-width:9.23760414;stroke-linecap:round;stroke-linejoin:round;stroke-miterlimit:4;stroke-dasharray:none;stroke-dashoffset:0;stroke-opacity:1;paint-order:stroke fill markers" inkscape:connector-curvature="0" sodipodi:nodetypes="cccccccccc"/>
    <svg:rect style="display:inline;opacity:1;vector-effect:none;fill:#000000;fill-opacity:1;fill-rule:nonzero;stroke:none;stroke-width:8;stroke-linecap:round;stroke-linejoin:round;stroke-miterlimit:4;stroke-dasharray:none;stroke-dashoffset:0;stroke-opacity:1;paint-order:stroke fill markers" id="rect1986-1" width="80" height="367.73615" x="11117.317" y="7454.2783" transform="matrix(0.80873609,0.58817169,0.58817169,-0.80873609,0,0)"/>
    <svg:path inkscape:connector-curvature="0" style="display:inline;opacity:1;vector-effect:none;fill:#000000;fill-opacity:1;fill-rule:nonzero;stroke:none;stroke-width:8;stroke-linecap:round;stroke-linejoin:round;stroke-miterlimit:4;stroke-dasharray:none;stroke-dashoffset:0;stroke-opacity:1;paint-order:stroke fill markers" d="M 13320,540 13449.396,445.89258 13314.203,260 h -197.84 z" id="path1988-5"/>
    <svg:path sodipodi:nodetypes="ccccccccc" inkscape:connector-curvature="0" id="path1990-8" d="m 13305.372,470 v 250 h -80 v 80 h 320 v -80 h -80 V 470 Z" style="display:inline;opacity:1;vector-effect:none;fill:#000000;fill-opacity:1;fill-rule:nonzero;stroke:none;stroke-width:9.23760414;stroke-linecap:round;stroke-linejoin:round;stroke-miterlimit:4;stroke-dasharray:none;stroke-dashoffset:0;stroke-opacity:1;paint-order:stroke fill markers"/>
    <svg:path style="display:inline;opacity:1;vector-effect:none;fill:#000000;fill-opacity:1;fill-rule:nonzero;stroke:none;stroke-width:20;stroke-linecap:round;stroke-linejoin:round;stroke-miterlimit:4;stroke-dasharray:none;stroke-dashoffset:0;stroke-opacity:1;paint-order:stroke fill markers" d="m 13600,470 -418.564,-4.6e-4 -21.436,80.00016 418.564,4.6e-4 z" id="path1421" inkscape:connector-curvature="0" sodipodi:nodetypes="ccccc"/>
    <svg:path sodipodi:nodetypes="ccccc" inkscape:connector-curvature="0" id="path1423" d="m 13600,589.99984 -418.564,-4.6e-4 -21.436,80.00016 418.564,4.6e-4 z" style="display:inline;opacity:1;vector-effect:none;fill:#000000;fill-opacity:1;fill-rule:nonzero;stroke:none;stroke-width:20;stroke-linecap:round;stroke-linejoin:round;stroke-miterlimit:4;stroke-dasharray:none;stroke-dashoffset:0;stroke-opacity:1;paint-order:stroke fill markers"/>
    <svg:path style="display:inline;opacity:1;vector-effect:none;fill:#000000;fill-opacity:1;fill-rule:nonzero;stroke:none;stroke-width:9.14285755;stroke-linecap:round;stroke-linejoin:round;stroke-miterlimit:4;stroke-dasharray:none;stroke-dashoffset:0;stroke-opacity:1;paint-order:stroke fill markers" d="m 14250,170 c -110,0 -191.056,79.96262 -190,190 2,208.48862 240,150.44646 240,300 0,50 -60,70 -130,70 -180,0 -340,-20 -340,-90 h -80 c 0,127.13036 180,170 450,170 140,0 261.056,-79.96262 260,-190 -2,-208.4884 -240,-150.446 -240,-300 0,-50 20,-70 60,-70 24.078,0 59.385,16.08968 59.385,48.15979 L 14370,340 h 80 c 0,-113.42001 -91.755,-170 -200,-170 z" id="path1112-5-4-3" inkscape:connector-curvature="0" sodipodi:nodetypes="scssccscsscccs"/>
    <svg:circle style="display:inline;opacity:1;vector-effect:none;fill:#000000;fill-opacity:1;fill-rule:nonzero;stroke:none;stroke-width:9.14285755;stroke-linecap:round;stroke-linejoin:round;stroke-miterlimit:4;stroke-dasharray:none;stroke-dashoffset:0;stroke-opacity:1;paint-order:stroke fill markers" id="path1876-5" cx="14370" cy="340" r="80"/>
    <svg:path style="opacity:1;vector-effect:none;fill:#000000;fill-opacity:1;fill-rule:nonzero;stroke:none;stroke-width:80;stroke-linecap:butt;stroke-linejoin:round;stroke-miterlimit:4;stroke-dasharray:none;stroke-dashoffset:0;stroke-opacity:1;paint-order:stroke fill markers" d="m 13848,530 c -50,0 -98,40 -98,110 h 80 c 0,-20 8,-30 18,-30 12.243,0 22.267,9.85125 20,30 l -18,160 h 80 l 18,-160 c 1.579,-14.03775 1.226,-27.52423 -1.158,-40 h -36.842 20 c -7.744,-40.51378 -20.835,-70 -82,-70 z" id="path1444" inkscape:connector-curvature="0" sodipodi:nodetypes="sccscccccccs"/>
    <svg:path style="opacity:1;vector-effect:none;fill:#000000;fill-opacity:1;fill-rule:nonzero;stroke:none;stroke-width:80;stroke-linecap:butt;stroke-linejoin:round;stroke-miterlimit:4;stroke-dasharray:none;stroke-dashoffset:0;stroke-opacity:1;paint-order:stroke fill markers" d="m 13980,530 c -30,0 -70,30 -70,80 l 38,30 c 0,-20 10,-30 20,-30 12.243,0 22.267,9.85125 20,30 l -18,160 h 80 l 18,-160 c 1.579,-14.03772 1.911,-27.52426 0.674,-40 h -28.674 10 c -4.017,-40.51382 -16.481,-70 -70,-70 z" id="path1447" inkscape:connector-curvature="0" sodipodi:nodetypes="sccscccccccs"/>
    <svg:path style="opacity:1;vector-effect:none;fill:#000000;fill-opacity:1;fill-rule:nonzero;stroke:none;stroke-width:80;stroke-linecap:butt;stroke-linejoin:round;stroke-miterlimit:4;stroke-dasharray:none;stroke-dashoffset:0;stroke-opacity:1;paint-order:stroke fill markers" d="m 14110,530 c -30,0 -80,30 -80,80 l 38,30 c 0,-20 10,-30 20,-30 12.243,0 22.267,9.85125 20,30 l -18,160 h 80 l 18,-160 c 6.708,-59.62392 -8,-110 -78,-110 z" id="path1452" inkscape:connector-curvature="0" sodipodi:nodetypes="sccssccss"/>
    <svg:path style="display:inline;opacity:1;vector-effect:none;fill:#000000;fill-opacity:1;fill-rule:nonzero;stroke:none;stroke-width:9.14285755;stroke-linecap:round;stroke-linejoin:round;stroke-miterlimit:4;stroke-dasharray:none;stroke-dashoffset:0;stroke-opacity:1;paint-order:stroke fill markers" d="m 14860,920 c -70,0 -119.998,-167.74491 -119.998,-350 0,-182.25509 49.998,-350.94125 119.998,-350 v -80 c -190,0 -289.998,236.16195 -289.998,430 0,193.83806 99.998,430 289.998,430 z" id="path914-5-2" inkscape:connector-curvature="0" sodipodi:nodetypes="csccscc"/>
    <svg:path style="opacity:1;vector-effect:none;fill:#000000;fill-opacity:1;fill-rule:nonzero;stroke:none;stroke-width:80;stroke-linecap:butt;stroke-linejoin:round;stroke-miterlimit:4;stroke-dasharray:none;stroke-dashoffset:0;stroke-opacity:1;paint-order:stroke fill markers" d="m 15110,140 c -80,0 -150,60 -150,150 v 190 c 0,25.95703 -16.377,50 -50,50 h -30 v 80 h 130 v -30 c 70,-18.75644 90,-40 90,-110 V 280 c 0,-30 26.753,-60 50,-60 14.267,0 32.149,2.18888 38,8 l 22,-68 c -18.189,-13.00636 -50,-20 -100,-20 z" id="rect1492" inkscape:connector-curvature="0" sodipodi:nodetypes="ssssccccsssccs"/>
    <svg:use x="0" y="0" xlink:href="#rect1492" id="use1499" transform="matrix(1,0,0,-1,0,1140)" width="100%" height="100%"/>
    <svg:path style="opacity:1;vector-effect:none;fill:#000000;fill-opacity:1;fill-rule:nonzero;stroke:none;stroke-width:80;stroke-linecap:butt;stroke-linejoin:round;stroke-miterlimit:4;stroke-dasharray:none;stroke-dashoffset:0;stroke-opacity:1;paint-order:stroke fill markers" d="m 15280,140 v 860 h 280 v -80 h -140 V 220 h 140 v -80 z" id="rect1501" inkscape:connector-curvature="0"/>
    <svg:g id="g1747" transform="translate(0,33.568444)">
      <svg:g transform="translate(-40,220)" id="g1718">
        <svg:path style="display:inline;opacity:1;vector-effect:none;fill:#000000;fill-opacity:1;fill-rule:nonzero;stroke:none;stroke-width:8;stroke-linecap:round;stroke-linejoin:round;stroke-miterlimit:4;stroke-dasharray:none;stroke-dashoffset:0;stroke-opacity:1;paint-order:stroke fill markers" d="m 15920,224 c -44.183,0 -80,35.81722 -80,80 0,81.31481 60,147.56836 60,217.56836 l 20,10 V 304 Z" transform="translate(40,-271.56844)" id="path2093-9" inkscape:connector-curvature="0" sodipodi:nodetypes="cscccc"/>
        <svg:use height="100%" width="100%" transform="matrix(-1,0,0,1,31920,0)" id="use1720" xlink:href="#path2093-9" y="0" x="0"/>
      </svg:g>
      <svg:use height="100%" width="100%" transform="rotate(72,15920,480)" id="use1722" xlink:href="#g1718" y="0" x="0"/>
      <svg:use x="0" y="0" xlink:href="#g1718" id="use1724" transform="rotate(144,15920,480)" width="100%" height="100%"/>
      <svg:use height="100%" width="100%" transform="rotate(-144,15920,480)" id="use1726" xlink:href="#g1718" y="0" x="0"/>
      <svg:use x="0" y="0" xlink:href="#g1718" id="use1728" transform="rotate(-72,15920,480)" width="100%" height="100%"/>
    </svg:g>
    <svg:g id="g1755" transform="translate(-460,-65)">
      <svg:path style="opacity:1;vector-effect:none;fill:#000000;fill-opacity:1;fill-rule:nonzero;stroke:none;stroke-width:80;stroke-linecap:butt;stroke-linejoin:round;stroke-miterlimit:4;stroke-dasharray:none;stroke-dashoffset:0;stroke-opacity:1;paint-order:stroke fill markers" d="m 17120,368.21366 -380,140 v 69.91482 l 40,-15.13014 c 60.663,-5.14475 109.446,-17.37769 150,-32.75226 l 190,-72.03242 z" id="rect1749" inkscape:connector-curvature="0" sodipodi:nodetypes="ccccscc"/>
      <svg:use height="100%" width="100%" transform="matrix(1,0,0,-1,0,1110)" id="use1751" xlink:href="#rect1749" y="0" x="0"/>
    </svg:g>
    <svg:path style="display:inline;opacity:1;vector-effect:none;fill:#000000;fill-opacity:1;fill-rule:nonzero;stroke:none;stroke-width:8;stroke-linecap:round;stroke-linejoin:round;stroke-miterlimit:4;stroke-dasharray:none;stroke-dashoffset:0;stroke-opacity:1;paint-order:stroke fill markers" d="m 17656,268 c -16.569,0 -31.569,6.71636 -42.426,17.57422 -40.219,40.21875 -14.076,70.6451 -63.574,120.14258 V 434 h 28.283 c 49.498,-49.49748 79.925,-23.35546 120.143,-63.57422 C 17709.284,359.56791 17716,344.56854 17716,328 c 0,-33.13708 -26.863,-60 -60,-60 z" transform="translate(0,-24)" id="path2093-9-7" inkscape:connector-curvature="0" sodipodi:nodetypes="scccccss"/>
    <svg:use x="0" y="0" xlink:href="#path2093-9-7" id="use1830" transform="rotate(90,17440,520)" width="100%" height="100%"/>
    <svg:use height="100%" width="100%" transform="rotate(180,17440,520)" id="use1832" xlink:href="#path2093-9-7" y="0" x="0"/>
    <svg:use x="0" y="0" xlink:href="#path2093-9-7" id="use1834" transform="rotate(-90,17440,520)" width="100%" height="100%"/>
  </svg:g>
  </svg>